<svg width="300" height="300" viewBox="0 0 300 300" fill="none" xmlns="http://www.w3.org/2000/svg">
<g clip-path="url(#clip0_219_35)">
<path d="M82.8384 226.785C82.0089 225.153 80.7732 223.762 79.2507 222.748C74.9355 219.379 70.0582 216.804 64.8452 215.141C61.8152 214.126 58.5892 213.84 55.4284 214.307C53.615 214.595 51.7939 214.829 49.7627 215.125C50.0273 214.4 50.2063 213.8 50.4631 213.231C52.2212 209.381 54.4937 205.789 57.2183 202.553C57.9499 201.672 58.8838 200.994 59.6776 200.129C61.1818 198.594 62.0968 196.576 62.2614 194.431C62.4432 192.381 62.8317 190.355 63.421 188.383C64.0592 186.13 64.6351 183.839 65.4834 181.664C66.2031 180.006 67.0541 178.408 68.0283 176.886C69.4343 174.276 71.1088 171.821 73.0246 169.56C73.6083 168.92 74.1998 168.289 74.7835 167.642C75.8997 166.454 76.7582 165.048 77.305 163.511C78.3635 160.394 79.5464 157.33 80.418 154.158C81.761 149.543 83.428 145.03 85.4066 140.651C86.2061 138.783 87.3643 137.091 88.8154 135.67C91.0879 133.441 93.4148 131.274 95.7029 129.068C96.0895 128.743 96.3868 128.325 96.5668 127.852C97.0089 126.426 97.9408 125.203 99.1973 124.4C100.902 123.106 102.723 122.139 104.956 122.311C105.454 122.346 105.953 122.346 106.451 122.311C107.214 122.236 107.923 121.877 108.435 121.305C109.197 120.489 110.076 119.79 111.042 119.232C112.116 118.671 112.599 118.64 113.47 119.419C113.931 119.855 114.51 120.145 115.135 120.252C115.759 120.359 116.402 120.278 116.98 120.019C118.655 119.312 120.155 118.248 121.377 116.901L120.475 117.291C119.635 117.658 118.685 117.68 117.829 117.353C116.634 117.01 115.604 116.243 114.934 115.194C114.334 114.103 113.603 113.02 113.743 111.679C113.779 111.343 113.733 111.004 113.608 110.69C113.483 110.376 113.284 110.098 113.027 109.879C111.968 108.795 110.98 107.65 109.96 106.519C108.932 105.257 108.284 103.726 108.093 102.108C108.015 101.695 107.929 101.274 107.82 100.72C107.33 100.962 106.949 101.141 106.583 101.344C104.863 102.279 103.75 102.123 102.808 100.035C102.595 99.5444 102.53 99.0024 102.622 98.4757C103.018 96.1411 103.19 93.7738 103.135 91.4063C103.167 90.6093 102.945 89.8227 102.502 89.1601C102.058 88.4975 101.416 87.9931 100.668 87.7196C100.171 87.5748 99.7384 87.2637 99.4424 86.8382C99.1465 86.4127 99.005 85.8985 99.0416 85.3813C99.1272 81.6166 99.1039 77.852 99.1661 74.0952C99.2053 73.7053 99.146 73.3119 98.9937 72.9509C98.8413 72.59 98.6009 72.2732 98.2945 72.0297C96.9086 70.8674 95.6082 69.6067 94.4032 68.2572C93.8308 67.4362 93.3701 66.5423 93.0335 65.5994C92.909 65.35 92.9401 65.0148 92.8 64.7732C92.6022 64.471 92.4968 64.1174 92.4968 63.756C92.4968 63.3946 92.6022 63.0411 92.8 62.7389C92.9263 62.4008 92.9691 62.0371 92.9245 61.6788C92.9245 61.141 93.1035 60.7825 93.7028 60.7513C94.0238 60.7179 94.3323 60.6085 94.6029 60.4324C94.8735 60.2562 95.0984 60.0183 95.2593 59.7381C95.3646 59.576 95.5029 59.438 95.6652 59.3333C95.8275 59.2285 96.0101 59.1593 96.201 59.1301C97.6719 59.2392 98.598 58.2883 99.6253 57.5167C100.653 56.7451 101.836 55.7786 102.98 54.9524C103.462 54.6251 103.985 54.363 104.536 54.1729C106.093 53.5884 107.579 52.7622 109.206 52.3023C110.996 51.8113 112.677 50.9617 114.451 50.4083C115.579 50.0576 116.591 49.3327 117.829 49.3483C118.046 49.3373 118.259 49.2787 118.451 49.1768C119.298 48.7739 120.222 48.5611 121.16 48.5533C121.688 48.5358 122.212 48.4467 122.716 48.2883C124.042 47.9143 125.445 47.9143 126.771 48.2883C128.607 48.8079 130.444 49.2911 132.281 49.738C132.777 49.8288 133.279 49.8809 133.783 49.8939C134.865 49.8754 135.945 49.9773 137.005 50.1979C138.22 50.6279 139.378 51.2065 140.452 51.9204C143.083 53.6537 145.332 55.9085 147.06 58.5455C148.132 60.0935 149.04 61.7497 149.768 63.4871C150.302 64.8911 150.744 66.3283 151.091 67.7896C151.401 68.7863 151.604 69.8131 151.698 70.8527C151.851 72.7219 151.887 74.5987 151.807 76.4724C151.589 79.1726 151.589 81.8861 151.807 84.5863C151.813 85.7747 151.914 86.9607 152.111 88.1327C152.539 89.6915 152.593 91.3205 153.278 92.8092C153.761 93.8771 153.932 95.0774 154.313 96.192C154.596 96.9323 154.92 97.6558 155.286 98.3588C155.341 98.4886 155.444 98.5919 155.574 98.6472C156.842 98.9901 157.551 100.042 158.173 100.985C160.064 103.846 162.905 104.696 166.026 105.163C167.196 105.385 168.397 105.385 169.567 105.163C171.667 104.798 173.812 104.78 175.917 105.109C177.502 105.281 179.104 105.17 180.649 104.781C181.872 104.46 183.118 104.238 184.377 104.119C186.379 103.956 188.37 104.536 189.973 105.748C190.642 106.239 191.272 106.784 191.926 107.307C192.97 108.168 194.294 108.617 195.646 108.569C197.335 108.491 199.024 108.265 200.712 108.289C202.259 108.317 203.801 108.479 205.32 108.772C208.497 109.431 211.581 110.478 214.503 111.89C215.281 112.24 216.013 112.583 216.752 112.965C217.588 113.338 218.243 114.028 218.573 114.883C218.805 115.533 219.253 116.084 219.842 116.442C221.331 117.396 222.647 118.598 223.733 119.996C225.134 121.742 226.527 123.495 227.858 125.288C229.66 127.918 230.883 130.902 231.446 134.041C231.88 136.238 232.094 138.473 232.084 140.713C232.084 141.617 232.13 142.521 232.084 143.425C232.02 145.971 232.719 148.476 234.092 150.619C235.413 152.82 236.935 154.895 238.637 156.816C241.878 160.611 244.545 164.863 246.551 169.435C247.618 171.851 248.769 174.228 249.664 176.699C250.865 180.183 251.74 183.771 252.279 187.416C252.816 190.706 253.797 193.878 254.614 197.089C255.207 199.137 255.956 201.135 256.856 203.067C257.463 204.501 257.198 204.899 255.618 204.837C252.002 204.808 248.388 205.021 244.8 205.476C238.236 206.151 232.03 208.803 227.002 213.083C226.224 213.722 225.515 214.447 224.768 215.141L223.928 215.92C223.431 215.099 223.076 214.201 222.877 213.262C222.337 211.203 222.016 209.092 221.92 206.964C221.724 203.33 222.126 199.688 223.111 196.185C223.593 194.322 223.305 193.48 221.803 192.288C220.437 191.256 219.138 190.139 217.912 188.944L218.519 189.123C220.177 189.614 221.834 190.137 223.5 190.589C223.958 190.703 224.434 190.724 224.901 190.651C225.058 190.628 225.209 190.572 225.343 190.486C225.478 190.4 225.592 190.286 225.679 190.152C225.749 190.02 225.5 189.653 225.329 189.451C225.155 189.267 224.946 189.121 224.714 189.022C224.213 188.747 223.693 188.51 223.157 188.313C219.455 187.034 216.044 185.028 213.126 182.412C211.071 180.802 209.412 178.741 208.277 176.387C207.174 173.954 206.455 171.364 206.145 168.71C205.87 166.227 205.844 163.723 206.067 161.235C206.121 160.223 206.121 159.208 206.067 158.196C206.018 157.753 205.935 157.315 205.818 156.886H205.577C205.464 157.14 205.368 157.4 205.289 157.666C204.661 160.384 204.291 163.155 204.183 165.943C203.981 170.986 204.798 175.826 207.514 180.207C207.592 180.365 207.657 180.529 207.709 180.698C206.3 181.812 205.6 183.379 204.806 184.868C202.876 188.5 200.915 192.147 199.164 195.858C197.911 198.461 196.829 201.142 195.786 203.831C195.068 205.912 194.611 208.075 194.424 210.269C194.082 213.099 193.646 215.912 193.397 218.749C193.102 220.794 193.163 222.875 193.576 224.899C193.705 225.461 193.768 226.037 193.763 226.614C193.763 227.877 193.763 229.147 193.763 230.41C193.761 234.127 193.951 237.842 194.331 241.54C194.397 242.263 194.397 242.991 194.331 243.715C194.3 244.242 194.125 244.751 193.824 245.186C193.524 245.62 193.109 245.964 192.626 246.178C190.959 246.891 189.133 247.147 187.334 246.918C185.755 246.736 184.156 246.834 182.61 247.206C178.866 248.307 174.978 248.832 171.077 248.765C168.991 248.765 166.905 248.524 164.851 248.399C164.493 248.399 164.127 248.352 163.769 248.352C161.24 248.352 158.71 248.305 156.181 248.352C152.959 248.422 149.768 248.11 146.562 247.908C143.791 247.704 141.01 247.66 138.234 247.775C135.176 247.947 132.102 247.845 129.028 247.916C126.794 247.97 124.568 248.134 122.335 248.235C121.292 248.282 120.241 248.235 119.222 248.352C118.532 248.409 117.841 248.253 117.243 247.904C116.645 247.556 116.167 247.032 115.875 246.404C115.23 245.144 114.939 243.732 115.035 242.319C115.035 238.991 115.315 235.663 115.206 232.35C115.081 228.64 114.708 224.938 114.342 221.236C114.188 220.201 113.903 219.19 113.494 218.227C112.311 215.008 111.159 211.797 109.867 208.601C108.744 205.473 107.408 202.426 105.867 199.482C105.689 199.17 105.469 198.884 105.213 198.632C105.115 198.522 104.995 198.435 104.861 198.374C104.727 198.314 104.582 198.283 104.435 198.283C104.288 198.283 104.143 198.314 104.008 198.374C103.874 198.435 103.754 198.522 103.657 198.632C103.413 198.848 103.184 199.08 102.972 199.326C101.252 201.181 99.5163 203.013 97.8275 204.899C95.2262 207.76 92.3218 210.329 89.1656 212.561C87.7892 213.64 86.8115 215.149 86.3872 216.848C85.609 219.357 84.8307 221.875 83.9902 224.377C83.6491 225.2 83.2646 226.003 82.8384 226.785V226.785ZM141.986 84.2745C141.986 83.7601 141.986 83.3626 141.986 82.9729C141.986 82.1077 141.947 81.2347 141.986 80.3696C141.986 78.5145 140.974 77.1973 139.76 75.9736C139.554 75.7391 139.275 75.5813 138.968 75.5261C138.662 75.4709 138.345 75.5215 138.071 75.6696C136.962 76.1757 135.886 76.751 134.849 77.3921C132.896 78.647 132.312 80.5099 132.195 82.6299C132.195 83.0274 132.195 83.4093 132.195 83.8224C132.194 84.3848 132.05 84.9377 131.778 85.4296C131.506 85.9215 131.114 86.3366 130.639 86.6362C130.496 86.7616 130.326 86.852 130.142 86.9002C129.958 86.9484 129.766 86.953 129.58 86.9136C129.394 86.8743 129.22 86.7921 129.072 86.6736C128.923 86.555 128.804 86.4035 128.724 86.2309C128.527 85.8497 128.383 85.4432 128.296 85.0228C128.22 84.3468 128.096 83.6773 127.923 83.0196C127.65 82.3176 127.48 81.58 127.417 80.8294C127.334 79.7396 126.906 78.7048 126.195 77.8754C124.844 76.3081 123.05 75.1884 121.051 74.6641C120.116 74.4426 119.247 74.004 118.513 73.3839C117.779 72.7638 117.2 71.9795 116.825 71.0944C116.167 69.801 115.158 68.7201 113.914 67.9766C113.629 67.8186 113.305 67.7455 112.98 67.7662C111.897 67.7978 110.82 67.5985 109.82 67.1816C109.459 67.0102 109.054 66.9555 108.661 67.0254C108.268 67.0952 107.906 67.2861 107.626 67.5713C106.605 68.4868 105.506 69.311 104.342 70.0343C103.088 70.7263 101.905 71.5381 100.808 72.4584C100.601 72.6123 100.432 72.8134 100.317 73.0451C100.202 73.2768 100.144 73.5325 100.147 73.7912C100.147 77.7741 100.147 81.7491 100.069 85.732C100.038 86.0518 100.107 86.3731 100.266 86.6521C100.425 86.9311 100.666 87.1542 100.956 87.2909C101.205 87.439 101.47 87.5403 101.734 87.6728C102.329 87.9546 102.835 88.3943 103.197 88.944C103.559 89.4937 103.764 90.1324 103.789 90.7905C103.898 93.3471 103.727 95.9192 103.626 98.4757C103.568 99.1636 103.771 99.848 104.194 100.393C104.328 100.612 104.541 100.77 104.789 100.836C105.037 100.901 105.3 100.868 105.524 100.744C105.984 100.526 106.412 100.261 106.879 100.058C108.108 99.5383 108.816 99.9332 109.003 101.243C109.01 101.387 109.028 101.53 109.058 101.671C109.272 103.142 109.823 104.542 110.669 105.763C111.492 106.847 112.397 107.866 113.377 108.811C113.871 109.26 114.261 109.813 114.52 110.43C114.778 111.047 114.898 111.712 114.871 112.381C114.874 112.994 114.968 113.604 115.151 114.189C115.311 114.713 115.614 115.181 116.027 115.539C116.44 115.898 116.946 116.132 117.486 116.216C118.311 116.379 119.089 116.621 119.821 115.982C119.915 115.928 120.025 115.909 120.132 115.927C120.709 115.96 121.282 115.816 121.774 115.514C122.28 115.315 122.8 115.156 123.331 115.039C123.466 115.007 123.606 115.007 123.741 115.038C123.875 115.069 124.002 115.131 124.109 115.218C124.381 115.522 124.109 115.818 123.876 116.06L121.595 118.398C122.122 118.564 122.661 118.689 123.206 118.772C123.985 118.842 124.763 118.772 125.588 118.819C126.413 118.866 127.144 118.764 127.572 117.915C128.888 118.53 130.164 118.164 131.464 117.961C132.312 117.829 133.152 117.603 134.008 117.517C137.65 117.154 141.143 115.886 144.172 113.83C144.572 113.461 144.944 113.062 145.285 112.638C145.724 112.112 146.251 111.666 146.842 111.321C147.798 110.847 148.673 110.223 149.433 109.473C150.212 108.811 150.951 108.133 151.683 107.439C153.241 106.139 154.502 104.517 155.379 102.685C155.565 102.293 155.657 101.863 155.646 101.43C155.635 100.997 155.522 100.572 155.317 100.19C154.401 98.6507 153.677 97.0042 153.161 95.2878C152.949 94.3836 152.673 93.4954 152.336 92.63C152.031 91.9033 151.829 91.1371 151.737 90.354C151.636 89.5746 151.348 89.2862 150.562 89.2161C150.025 89.1693 149.488 89.2161 149.005 89.2161C148.725 88.9211 148.412 88.6595 148.071 88.4366C146.491 87.6271 145.184 86.3693 144.313 84.8201C143.659 83.6899 143.254 83.612 141.954 84.2745H141.986ZM183.311 115.553L183.202 115.296L184.836 114.267C186.463 113.261 188.105 112.287 189.7 111.227C190.759 110.526 190.914 109.551 190.066 108.655C188.665 107.182 187.023 106.021 184.875 106.153C183.334 106.294 181.802 106.512 180.283 106.808C179.498 106.967 178.785 107.377 178.252 107.977C177.186 109.06 176.12 110.144 175.03 111.196C173.941 112.248 172.937 113.176 171.863 114.142C171.598 114.384 171.333 114.742 170.742 114.548C171.03 114.134 171.24 113.768 171.52 113.449C172.298 112.544 173.077 111.664 173.855 110.76C174.468 110.103 175.045 109.414 175.583 108.694C175.743 108.531 175.853 108.325 175.899 108.101C175.946 107.876 175.927 107.644 175.845 107.43C175.763 107.216 175.621 107.031 175.437 106.895C175.252 106.76 175.033 106.681 174.804 106.668C174.283 106.539 173.745 106.492 173.209 106.527C172.34 106.565 171.502 106.866 170.807 107.39C170.112 107.915 169.593 108.639 169.318 109.466C168.68 111.025 168.041 112.529 167.31 114.018C166.098 116.574 164.404 118.871 162.321 120.783C159.987 122.903 157.839 125.288 155.192 127.081C154.844 127.385 154.617 127.806 154.554 128.265C154.445 128.951 156.282 131.835 156.936 131.976C157.526 132.12 158.143 132.12 158.734 131.976C159.802 131.646 160.843 131.232 161.847 130.736C165.629 128.858 169.372 126.894 173.162 125.039C176.338 123.48 179.552 122.022 182.758 120.526C187.849 118.203 193.193 116.481 198.681 115.397C201.218 114.875 203.787 114.477 206.339 114.002C206.98 113.911 207.608 113.751 208.215 113.526C208.9 113.23 208.939 112.63 208.347 112.162C208.027 111.932 207.676 111.748 207.304 111.617C205.236 110.846 203.034 110.502 200.829 110.604C199.14 110.658 197.444 110.806 195.755 110.814C194.525 110.819 193.31 111.085 192.191 111.593C190.447 112.373 188.72 113.152 186.976 113.979L183.311 115.553ZM101.54 153.418L101.174 153.324C100.95 153.713 100.753 154.117 100.583 154.532C99.6364 157.511 99.3522 160.661 99.7498 163.761C100.396 168.819 102.295 173.285 106.1 176.871C108.72 179.43 111.875 181.374 115.338 182.561C117.802 183.278 120.326 183.769 122.879 184.026C129.202 184.909 135.639 184.485 141.791 182.779C143.496 182.287 145.275 182.103 147.044 182.233C149.885 182.483 152.725 182.677 155.605 182.787C159.792 183.006 163.99 182.886 168.158 182.428C175.92 181.455 183.26 178.341 189.358 173.433C193.632 169.969 197.313 165.827 200.253 161.173C200.726 160.364 201.125 159.513 201.444 158.632C201.554 158.325 201.599 157.999 201.576 157.673C201.587 157.581 201.573 157.487 201.537 157.402C201.501 157.316 201.443 157.242 201.369 157.185C201.296 157.129 201.209 157.092 201.117 157.079C201.025 157.067 200.931 157.078 200.845 157.112C200.466 157.23 200.105 157.398 199.771 157.611C198.494 158.506 197.371 159.604 196.448 160.861C194.034 163.888 191.402 166.732 188.572 169.373C182.298 175.031 174.398 178.558 166.002 179.451C163.777 179.677 161.543 179.895 159.302 179.988C156.091 180.204 152.868 180.115 149.675 179.723C145.783 179.162 145.706 179.162 142.203 180.23C138.852 181.268 135.392 181.912 131.892 182.147C127.014 182.481 122.113 182.063 117.362 180.908C116.317 180.625 115.299 180.252 114.319 179.794C112.182 178.719 110.258 177.267 108.637 175.507C104.598 171.61 102.614 166.707 101.851 161.282C101.648 159.083 101.571 156.873 101.618 154.665C101.579 154.252 101.555 153.831 101.54 153.418ZM114.879 126.255L114.7 126.574C114.295 126.473 113.875 126.395 113.486 126.255C112.241 125.779 110.98 125.319 109.758 124.789C107.563 123.823 105.314 124.01 103.065 124.47C102.516 124.625 102.022 124.933 101.641 125.358C101.541 125.454 101.464 125.57 101.414 125.699C101.365 125.829 101.345 125.967 101.355 126.105C101.365 126.243 101.406 126.377 101.474 126.497C101.543 126.617 101.637 126.721 101.75 126.8C101.987 126.984 102.249 127.133 102.528 127.244C103.781 127.884 105.026 128.554 106.303 129.131C107.736 129.809 109.204 130.413 110.7 130.939C113.455 131.866 116.365 131.968 119.261 132.202C122.687 132.385 126.121 132.338 129.541 132.061C131.518 131.952 133.495 131.648 135.464 132.061C135.722 132.102 135.984 132.102 136.242 132.061C136.67 131.993 137.07 131.803 137.394 131.514C137.718 131.226 137.953 130.85 138.071 130.432C138.203 129.7 137.837 129.177 136.88 128.725L136.577 128.601C132.032 126.665 127.827 124.01 124.125 120.736C123.23 119.91 122.568 119.957 121.93 121.025C121.783 121.297 121.552 121.513 121.271 121.641C120.99 121.769 120.675 121.802 120.373 121.734C119.878 121.646 119.372 121.628 118.871 121.679C117.907 121.813 116.953 122.011 116.015 122.272C115.464 122.507 114.862 122.6 114.266 122.543C113.669 122.485 113.096 122.28 112.599 121.944C112.447 121.862 112.277 121.819 112.105 121.819C111.932 121.819 111.762 121.862 111.61 121.944C111.503 122.078 111.43 122.236 111.397 122.404C111.365 122.573 111.374 122.747 111.424 122.911C111.653 123.433 111.971 123.91 112.365 124.322C112.704 124.588 113.063 124.828 113.439 125.039C113.93 125.436 114.397 125.841 114.879 126.255ZM146.087 131.352C144.764 131.43 143.861 131.562 142.974 131.523C142.293 131.488 141.613 131.611 140.987 131.881C140.361 132.151 139.805 132.562 139.363 133.082C138.525 133.955 137.925 135.027 137.618 136.198C137.311 137.368 137.309 138.598 137.611 139.77C137.913 140.942 138.509 142.017 139.343 142.893C140.177 143.768 141.22 144.416 142.375 144.774C143.554 145.162 144.8 145.303 146.036 145.186C147.272 145.07 148.47 144.7 149.556 144.098C150.643 143.497 151.593 142.678 152.349 141.691C153.104 140.705 153.649 139.573 153.947 138.367C154.132 137.667 154.172 136.936 154.063 136.22C153.955 135.504 153.701 134.818 153.317 134.205C152.934 133.591 152.428 133.063 151.832 132.652C151.237 132.242 150.563 131.959 149.854 131.82C148.476 131.555 147.068 131.469 146.064 131.352H146.087ZM113.003 213.66L113.354 213.558C113.416 213.223 113.509 212.888 113.54 212.545C113.609 211.168 113.416 209.79 112.972 208.484C111.688 204.33 110.334 200.207 109.136 196.013C107.828 191.485 106.801 186.894 106.972 182.124C106.991 181.836 106.991 181.547 106.972 181.259C106.972 180.932 106.928 180.607 106.84 180.292C106.739 180.02 106.552 179.638 106.334 179.575C105.89 179.451 105.719 179.887 105.626 180.23C105.485 180.741 105.38 181.262 105.314 181.789C105.229 182.436 105.236 183.091 105.143 183.737C104.593 188.028 104.951 192.386 106.194 196.528C107.369 200.628 108.91 204.618 110.342 208.64C110.786 209.831 111.306 210.992 111.898 212.116C112.215 212.666 112.585 213.183 113.003 213.66V213.66ZM161.255 144.883C159.963 144.883 159.263 145.756 159.597 146.777C159.766 147.25 160.031 147.683 160.376 148.047C160.835 148.554 161.395 148.967 161.893 149.435C162.749 150.214 162.765 150.814 161.932 151.641C161.496 152.069 160.998 152.42 160.578 152.88C160.29 153.106 160.088 153.425 160.006 153.782C159.924 154.139 159.967 154.514 160.127 154.844C160.469 155.39 161.154 155.514 162.088 155.164C163.25 154.752 164.327 154.128 165.263 153.324C165.399 153.162 165.566 153.029 165.754 152.932C165.941 152.836 166.146 152.777 166.357 152.759C166.567 152.742 166.779 152.766 166.98 152.831C167.181 152.896 167.367 153 167.528 153.137C167.932 153.371 168.306 153.667 168.703 153.916C169.065 154.156 169.451 154.357 169.855 154.517C170.072 154.614 170.313 154.649 170.549 154.618C170.785 154.587 171.008 154.491 171.193 154.341C171.378 154.191 171.519 153.993 171.598 153.768C171.678 153.543 171.694 153.3 171.645 153.067C171.551 152.54 171.323 152.046 170.983 151.633C170.59 151.211 170.157 150.827 169.691 150.487C168.835 149.708 168.773 149.131 169.489 148.242C169.917 147.704 170.431 147.229 170.812 146.683C171.104 146.276 171.299 145.807 171.38 145.312C171.418 145.123 171.405 144.927 171.341 144.745C171.278 144.563 171.167 144.401 171.02 144.277C170.872 144.152 170.695 144.07 170.505 144.038C170.315 144.006 170.12 144.026 169.94 144.096C169.538 144.244 169.168 144.469 168.851 144.758C168.252 145.273 167.722 145.881 167.108 146.379C165.808 147.447 165.279 147.439 163.932 146.473C163.349 146.052 162.765 145.623 162.15 145.249C161.875 145.092 161.583 144.969 161.278 144.883H161.255ZM116.264 152.085V152.038L116.801 151.984C118.257 151.851 118.615 152.202 118.584 153.667C118.568 154.098 118.599 154.529 118.677 154.953C118.72 155.263 118.865 155.549 119.09 155.766C119.314 155.984 119.604 156.12 119.914 156.153C120.202 156.179 120.491 156.118 120.744 155.98C120.998 155.841 121.204 155.63 121.339 155.374C121.488 155.128 121.611 154.867 121.704 154.595C121.891 154.049 122.07 153.496 122.234 152.942C122.356 152.445 122.644 152.005 123.05 151.695C123.456 151.384 123.956 151.222 124.467 151.235C125.225 151.195 125.979 151.104 126.724 150.962C127.852 150.736 128.475 150.082 128.405 149.294C128.335 148.507 127.627 147.938 126.514 147.814C126.016 147.759 125.502 147.814 125.004 147.759C124.016 147.704 123.72 147.408 123.673 146.434C123.673 145.896 123.673 145.351 123.634 144.813C123.657 144.516 123.578 144.22 123.411 143.974C123.245 143.728 123 143.546 122.716 143.457C122.432 143.38 122.13 143.402 121.86 143.52C121.59 143.637 121.368 143.843 121.23 144.103C120.813 144.695 120.502 145.354 120.311 146.052C120.273 146.45 120.157 146.837 119.969 147.19C119.781 147.543 119.526 147.855 119.217 148.109C118.908 148.362 118.552 148.552 118.169 148.667C117.787 148.783 117.385 148.821 116.988 148.78C116.842 148.784 116.696 148.8 116.552 148.827C115.84 148.922 115.133 149.057 114.435 149.232C114.111 149.3 113.821 149.48 113.616 149.741C113.411 150.002 113.304 150.327 113.315 150.658C113.347 150.985 113.488 151.291 113.715 151.527C113.943 151.764 114.243 151.916 114.568 151.96C115.138 152.037 115.712 152.078 116.288 152.085H116.264ZM74.3321 203.784L74.5189 204.088C74.8964 204.082 75.272 204.034 75.6396 203.948C76.2562 203.743 76.8527 203.482 77.4218 203.169C80.3795 201.498 83.1797 199.563 85.788 197.385C88.0453 195.57 89.9885 193.395 91.5393 190.947C93.9653 187.152 95.449 182.831 95.8663 178.344C95.8468 178.057 95.8025 177.773 95.734 177.494C95.5006 177.689 95.3916 177.744 95.3527 177.822C95.2165 178.118 95.0995 178.422 95.0025 178.734C94.1444 181.543 92.9995 184.257 91.586 186.832C90.0291 189.741 87.9502 192.339 85.4533 194.494C82.9396 196.551 80.3247 198.484 77.7642 200.495C76.807 201.275 75.8808 202.054 74.9703 202.888C74.7264 203.163 74.5125 203.464 74.3321 203.784ZM215.608 153.059C216.114 153.012 217.087 152.934 218.052 152.81C218.402 152.763 218.869 152.646 218.83 152.217C218.795 152.052 218.724 151.896 218.622 151.761C218.519 151.626 218.389 151.516 218.239 151.438C217.38 151.059 216.49 150.759 215.577 150.542C213.919 150.183 212.231 149.949 210.557 149.661C207.444 149.115 204.331 148.741 201.374 147.572C198.72 146.528 196.152 145.273 193.591 144.103C193.275 143.927 192.947 143.771 192.611 143.636C192.353 143.599 192.091 143.599 191.833 143.636C191.841 143.904 191.899 144.168 192.004 144.415C192.295 144.785 192.632 145.115 193.008 145.397C196.314 147.999 200.071 149.968 204.09 151.204C207.845 152.266 211.71 152.891 215.608 153.067V153.059ZM115.214 169.279C115.712 169.224 116.07 169.193 116.42 169.139L124 167.907C124.248 167.869 124.493 167.812 124.732 167.736C125.077 167.654 125.382 167.454 125.595 167.17C125.808 166.886 125.915 166.536 125.897 166.182C125.88 165.827 125.739 165.49 125.499 165.228C125.259 164.967 124.935 164.798 124.584 164.751C124.015 164.645 123.432 164.645 122.864 164.751C120.218 165.27 117.577 165.834 114.941 166.442C114.455 166.575 114.017 166.846 113.681 167.221C113.536 167.361 113.431 167.538 113.377 167.732C113.322 167.926 113.32 168.131 113.371 168.326C113.422 168.521 113.523 168.699 113.665 168.841C113.807 168.984 113.984 169.087 114.179 169.139C114.528 169.227 114.885 169.276 115.245 169.287L115.214 169.279ZM169.123 165.444C168.166 165.592 167.162 165.733 166.174 165.912C164.29 166.239 162.407 166.582 160.524 166.941C160.099 167.02 159.686 167.151 159.294 167.33C158.43 167.72 158.064 168.328 158.228 169.006C158.391 169.684 159.006 170.051 159.94 169.988C160.306 169.988 160.656 169.887 161.014 169.84C163.123 169.56 165.24 169.295 167.349 168.998C168.097 168.895 168.838 168.744 169.567 168.546C169.947 168.43 170.294 168.225 170.579 167.946C170.763 167.783 170.899 167.572 170.973 167.337C171.048 167.102 171.057 166.852 171 166.612C170.943 166.372 170.823 166.152 170.651 165.975C170.48 165.798 170.264 165.671 170.026 165.608C169.74 165.533 169.448 165.481 169.154 165.452L169.123 165.444ZM168.493 159.809C167.948 159.895 167.489 159.949 167.03 160.043L160.874 161.298C160.589 161.353 160.31 161.437 160.041 161.547C159.778 161.632 159.552 161.805 159.402 162.037C159.251 162.269 159.186 162.546 159.216 162.821C159.246 163.096 159.37 163.353 159.567 163.547C159.765 163.74 160.023 163.86 160.298 163.885C160.686 163.955 161.084 163.955 161.473 163.885C162.505 163.711 163.526 163.476 164.532 163.184C165.897 162.715 167.313 162.406 168.75 162.264C169.074 162.244 169.393 162.178 169.699 162.069C169.914 162.009 170.105 161.883 170.245 161.708C170.385 161.533 170.466 161.319 170.477 161.095C170.491 160.852 170.422 160.612 170.28 160.415C170.138 160.218 169.933 160.076 169.699 160.012C169.313 159.914 168.92 159.849 168.524 159.817L168.493 159.809ZM232.652 180.012L233.049 179.926C233.057 179.144 233.01 178.363 232.909 177.588C232.496 175.343 232.13 173.098 231.531 170.9C231.043 169.275 230.475 167.675 229.827 166.107C229.702 165.882 229.544 165.678 229.36 165.499L229.126 165.6C229.156 165.943 229.205 166.284 229.274 166.621C229.578 167.884 229.92 169.147 230.216 170.409C230.792 172.911 231.329 175.429 231.92 177.923C232.136 178.635 232.391 179.335 232.683 180.02L232.652 180.012ZM144.367 157.408H144.118C144.118 158.289 144.048 159.178 144.071 160.066C144.095 160.955 144.165 161.789 144.258 162.646C144.351 163.503 144.468 164.439 144.624 165.327C144.779 166.216 144.624 167.081 145.161 167.993C145.581 166.458 144.935 158.468 144.398 157.393L144.367 157.408ZM91.4303 158.227C91.0849 158.243 90.7427 158.301 90.4108 158.398C88.1279 159.437 85.858 160.503 83.6011 161.594C83.5622 161.594 83.6011 161.773 83.6011 161.96C86.1369 161.201 88.5782 160.155 90.8777 158.842C91.0256 158.804 91.1268 158.577 91.4303 158.227Z" fill="black"/>
<path d="M82.2477 227.986C81.594 228.976 80.9403 230.005 80.2632 231.01C77.4031 235.088 74.2368 238.942 70.7919 242.538C69.9801 243.303 69.128 244.023 68.2392 244.697C66.9145 245.926 65.7579 247.326 64.7993 248.859C64.4942 249.393 64.0302 249.818 63.4721 250.075C62.914 250.332 62.2897 250.409 61.6863 250.293C60.6044 250.251 59.5212 250.33 58.4566 250.527C54.9233 250.979 51.39 251.47 47.8568 251.93C46.0911 252.111 44.3082 251.843 42.6736 251.15C41.1171 250.55 40.7591 249.771 41.1405 248.157C41.3195 247.378 41.5763 246.599 41.7708 245.819C41.9617 245.274 42.0719 244.705 42.0977 244.128C41.9888 241.961 42.6114 239.911 43.0472 237.838C43.8409 233.724 44.9148 229.669 46.2614 225.702C46.8528 224.073 47.3198 222.405 47.8179 220.753C47.929 220.461 47.9921 220.153 48.0046 219.841C47.9896 219.696 48.0036 219.549 48.0457 219.41C48.0879 219.27 48.1573 219.14 48.25 219.028C48.3427 218.915 48.4569 218.822 48.5858 218.755C48.7147 218.687 48.8558 218.645 49.0008 218.633C49.6329 218.49 50.276 218.401 50.9231 218.368C52.5808 218.266 54.2462 218.266 55.8961 218.103C60.2699 217.674 64.309 218.843 68.1458 220.714C71.1576 222.187 74.0527 223.917 76.9634 225.593C78.4947 226.619 80.2016 227.353 81.9987 227.76C82.061 227.768 82.0999 227.853 82.2477 227.986Z" fill="black"/>
<path d="M224.667 217.947C227.605 215.594 230.755 213.519 234.076 211.75C237.351 210.037 240.912 208.94 244.582 208.516C247.135 208.243 249.68 207.955 252.225 207.612C253.509 207.44 254.778 207.136 256.062 206.902L257.369 206.676C257.435 206.99 257.482 207.308 257.509 207.627C257.673 212.569 257.867 217.518 257.961 222.436C257.975 224.816 257.852 227.195 257.595 229.56C257.459 231.761 257.443 233.967 257.548 236.17C257.548 237.69 257.665 239.202 257.68 240.714C257.696 242.226 257.291 242.577 255.844 242.616C251.696 242.733 247.548 242.826 243.392 242.974C242.386 243.028 241.385 243.148 240.395 243.333C240.084 243.41 239.757 243.396 239.452 243.294C239.148 243.192 238.878 243.005 238.676 242.756C237.181 240.683 235.306 238.859 234.216 236.521C233.952 235.928 233.695 235.328 233.438 234.728C232.863 233.354 232.14 232.047 231.282 230.831C230.44 229.572 229.721 228.236 229.134 226.84C227.872 223.963 226.456 221.155 224.893 218.43C224.808 218.274 224.733 218.112 224.667 217.947V217.947Z" fill="black"/>
<path d="M137.558 97.0653C137.599 98.3287 137.227 99.5712 136.499 100.604C136.017 101.321 135.628 102.093 135.192 102.841C135.089 103.029 134.972 103.208 134.842 103.379C133.939 104.501 133.044 105.623 132.133 106.738C131.635 107.346 131.098 107.93 130.577 108.546C130.336 108.858 130.164 109.217 129.946 109.544C129.83 109.723 129.697 110.012 129.55 110.019C128.709 110.097 128.297 110.799 127.666 111.22C127.518 111.313 127.394 111.477 127.238 111.524C127.083 111.57 126.826 111.524 126.763 111.461C126.705 111.382 126.665 111.29 126.649 111.192C126.633 111.094 126.64 110.994 126.67 110.9C126.822 110.656 127.021 110.444 127.254 110.277C128.453 109.349 129.503 108.242 130.367 106.995C131.326 105.509 132.412 104.109 133.612 102.81C134.404 101.925 135.108 100.964 135.713 99.9413C136.686 98.3825 136.997 96.7535 135.993 95.0621C135.838 94.7815 135.721 94.462 136.056 94.3295C136.191 94.2919 136.333 94.2894 136.469 94.3221C136.605 94.3549 136.731 94.4218 136.834 94.5165C137.127 94.8661 137.344 95.274 137.468 95.7133C137.593 96.1525 137.624 96.6133 137.558 97.0653Z" fill="black"/>
<path d="M136.406 81.1724C136.663 82.8325 135.511 84.3914 136.756 85.8489L136.406 85.9892C136.235 85.8879 135.923 85.7866 135.916 85.6853C135.916 84.2589 135.628 82.817 136.079 81.4062C136.095 81.414 136.18 81.3516 136.406 81.1724Z" fill="black"/>
<path d="M138.438 90.4866L140.912 87.9067C140.858 88.8187 139.511 90.2606 138.438 90.4866Z" fill="black"/>
<path d="M141.861 85.6855C142.04 86.465 141.682 86.8079 141.231 87.3613C141.175 87.051 141.204 86.7314 141.315 86.4363C141.426 86.1413 141.615 85.8818 141.861 85.6855Z" fill="black"/>
</g>
<defs>
<clipPath id="clip0_219_35">
<rect width="217" height="204" fill="white" transform="translate(41 48)"/>
</clipPath>
</defs>
</svg>
