<svg width="300" height="300" viewBox="0 0 300 300" fill="none" xmlns="http://www.w3.org/2000/svg">
<g clip-path="url(#clip0_219_35)">
<path d="M33.2179 171.885C35.3991 170.47 37.4192 168.822 39.2423 166.969C42.9487 163.314 44.2771 158.842 43.8918 153.781C43.7661 152.429 43.5442 151.087 43.2276 149.767C43.0638 149.105 42.809 148.469 42.4704 147.876C42.2969 147.546 42.0377 147.269 41.7199 147.074C41.5912 147.008 41.449 146.974 41.3047 146.974C41.1605 146.974 41.0182 147.008 40.8896 147.074C40.802 147.183 40.7438 147.313 40.7205 147.451C40.6973 147.589 40.7098 147.731 40.7567 147.863C41.9125 150.198 42.0852 152.693 42.0188 155.227C42.0452 158.937 40.6144 162.51 38.0335 165.178C36.8047 166.445 35.5427 167.686 34.2607 168.9C33.5035 169.623 32.6799 170.273 31.7965 171.036C30.581 169.862 29.1396 168.588 27.8112 167.161C25.7123 164.859 23.7064 162.471 21.7071 160.076C20.4118 158.517 19.203 156.892 17.7948 155.433C16.0894 153.494 14.6508 151.336 13.5173 149.017C10.1099 142.715 7.28032 136.141 4.21829 129.686C3.28602 127.959 2.59969 126.11 2.17915 124.193C2.02292 123.155 1.96288 122.104 1.99981 121.055C2.04935 120.616 2.21183 120.198 2.4714 119.841C4.02567 117.446 5.58657 115.058 7.17405 112.716C7.93539 111.538 9.12682 110.702 10.4951 110.388C11.2984 110.227 12.1296 110.28 12.9062 110.54C13.3748 110.688 13.8734 110.716 14.3555 110.619C14.8375 110.523 15.2872 110.306 15.6627 109.989C17.9343 108.278 20.5646 108.55 22.5241 110.653C22.938 111.04 23.2305 111.539 23.366 112.089C23.5016 112.639 23.4745 113.216 23.2879 113.751C22.8383 115.133 22.7854 116.613 23.1351 118.023C23.3112 118.959 23.3112 119.92 23.1351 120.856C22.9067 122.251 23.2332 123.679 24.0451 124.836C24.4873 125.558 24.9895 126.242 25.5462 126.88C27.1536 128.664 26.9876 131.596 25.9115 133.255C25.5595 133.799 25.2473 134.356 24.9285 134.92C24.7858 135.171 24.6994 135.45 24.6753 135.737C24.6512 136.025 24.69 136.314 24.789 136.585C25.1344 137.58 25.3602 138.615 25.7787 139.571C26.1482 140.472 26.7134 141.281 27.4335 141.938C28.1537 142.596 29.0109 143.085 29.9433 143.372C32.6666 144.201 35.4165 145.004 38.1995 145.561C41.7018 146.224 45.107 147.323 48.3354 148.832C48.734 149.017 49.1325 149.203 49.5443 149.362C50.6602 149.78 51.3975 149.634 52.0086 148.619C52.9052 147.14 53.6957 145.601 54.4462 144.049C57.1031 138.602 61.2146 135.033 67.3386 134.137C68.7216 134.023 70.1105 133.999 71.4966 134.064H72.214C72.6928 134.113 73.1738 133.996 73.5765 133.733C73.9792 133.469 74.279 133.076 74.4258 132.618C75.4071 130.418 76.6254 128.332 78.0591 126.395C79.0276 124.997 80.2191 123.767 81.586 122.753C83.9241 120.995 86.2355 119.211 89.0651 118.255C90.4013 117.762 91.7934 117.434 93.2098 117.28C95.3333 117.065 97.4295 116.636 99.4667 116C101.227 115.496 103.007 114.952 104.867 115.124C106.195 115.244 107.524 115.443 108.799 115.662C109.887 115.921 111.014 115.971 112.12 115.808C112.289 115.8 112.457 115.771 112.618 115.721C114.192 114.905 115.992 115.005 117.626 114.394C119.26 113.784 120.881 113.419 122.495 112.889C124.145 112.421 125.61 111.457 126.693 110.129C127.481 109.069 128.044 107.859 128.347 106.573C128.753 104.793 129.033 102.986 129.184 101.166C129.291 99.9177 129.329 98.6641 129.297 97.4114C129.255 97.0424 129.097 96.6962 128.845 96.4229C127.667 94.965 126.905 93.2161 126.64 91.3611C126.387 89.8287 125.916 88.336 125.65 86.8036C125.456 85.8767 125.413 84.9246 125.524 83.9841C125.684 82.8411 125.568 81.6765 125.185 80.5875C124.667 79.0451 124.355 77.4414 124.255 75.8176C124.209 74.6036 124.096 73.3896 124.056 72.1756C123.99 70.046 124.674 68.0426 125.119 65.9926C125.343 64.8559 125.827 63.7861 126.532 62.8659C127.237 61.9456 128.144 61.1996 129.184 60.6854C130.638 59.896 131.927 58.8014 133.375 58.0318C134.714 57.3371 136.091 56.717 137.5 56.1743C140.444 54.9683 143.683 54.6702 146.799 55.3185C148.565 55.6369 150.346 55.9222 152.112 56.3269C154.227 56.8076 156.247 57.6347 158.09 58.7748C159.274 59.4986 160.493 60.1629 161.743 60.765C163.079 61.4407 164.329 62.2713 165.47 63.2395C166.21 63.8979 166.799 64.708 167.197 65.6145C168.406 68.016 168.525 70.5635 168.339 73.1574C168.22 74.7761 167.98 76.3882 167.914 78.0135C167.848 79.6388 167.914 81.1978 167.967 82.79C167.967 83.4534 168.16 84.0637 168.153 84.6939C168.122 85.1618 168.021 85.6224 167.854 86.0606C167.725 86.3759 167.574 86.6818 167.403 86.9761C166.738 88.2365 166.3 89.5169 166.738 90.9565C167.177 92.3961 166.785 93.7229 166.446 95.0696C166.052 96.9232 165.479 98.7341 164.732 100.476C164.247 101.632 163.83 102.815 163.484 104.019C163.451 104.112 163.484 104.225 163.417 104.317C162.288 106.885 163.158 109.127 164.58 111.263C165.29 112.338 166.048 113.386 166.831 114.408C167.233 114.908 167.677 115.372 168.16 115.794C169.282 116.829 170.438 117.824 171.554 118.866C172.318 119.633 173.219 120.249 174.211 120.684C174.619 120.852 175.01 121.059 175.38 121.3C179.22 123.816 183.457 125.669 187.914 126.78C189.986 127.311 192.072 127.782 194.144 128.306C197.403 129.176 200.453 130.695 203.111 132.771C203.629 133.155 204.154 133.527 204.692 133.879C207.873 135.955 209.833 138.954 211.121 142.436C212.153 145.238 212.651 148.209 212.589 151.193C212.56 152.005 212.478 152.814 212.343 153.615C212.078 155.306 212.383 156.049 213.811 156.932C215.408 157.847 216.881 158.962 218.195 160.249C221 163.056 222.824 166.693 223.396 170.618C223.515 171.553 223.456 172.515 223.489 173.464C223.46 174.221 223.717 174.961 224.209 175.537C224.702 176.114 225.393 176.484 226.146 176.575C226.492 176.646 226.85 176.641 227.194 176.559C227.538 176.478 227.861 176.323 228.138 176.104C228.827 175.549 229.658 175.2 230.536 175.096C231.033 174.995 231.507 174.806 231.938 174.539C233.804 173.57 235.644 172.548 237.53 171.613C240.025 170.445 242.278 168.82 244.173 166.823C245.269 165.622 246.404 164.455 247.494 163.267C247.715 163.031 247.888 162.754 248.002 162.451C248.116 162.148 248.169 161.826 248.158 161.503C248.24 160.014 248.655 158.563 249.373 157.257C250.23 155.452 251.187 153.675 251.864 151.804C252.296 150.596 252.874 149.336 252.641 147.963C252.542 147.332 252.435 146.709 252.276 146.092C252.112 145.335 251.89 144.592 251.612 143.869C251.24 143 250.768 142.171 250.317 141.335C249.251 139.179 248.343 136.949 247.6 134.661C247.51 134.333 247.469 133.993 247.48 133.653C247.48 132.645 247.64 132.273 248.251 132.068C248.656 131.931 249.094 131.928 249.501 132.06C249.907 132.191 250.261 132.45 250.509 132.797C250.753 133.203 250.962 133.63 251.134 134.071C251.658 135.397 252.343 136.653 253.173 137.813C253.638 138.48 254.053 139.181 254.415 139.909C255.063 141.188 256.063 142.256 257.297 142.987C258.387 143.684 259.151 143.246 259.171 141.952C259.171 140.466 259.171 138.98 259.171 137.494C259.177 137.191 259.136 136.889 259.051 136.599C258.734 135.702 258.578 134.756 258.593 133.806C258.594 133.401 258.524 132.999 258.387 132.618C257.852 130.962 257.852 129.179 258.387 127.523C258.622 126.503 259.029 125.529 259.589 124.644C259.764 124.354 259.969 124.083 260.2 123.835C260.39 123.653 260.621 123.52 260.874 123.449C261.127 123.377 261.393 123.368 261.65 123.423C261.907 123.478 262.147 123.595 262.348 123.764C262.549 123.933 262.705 124.149 262.804 124.392C262.916 124.676 262.983 124.976 263.003 125.281C263.089 126.462 263.096 127.649 263.229 128.83C263.381 130.686 263.817 132.507 264.524 134.23C265.009 135.312 265.5 136.393 265.939 137.494C266.104 137.971 266.215 138.465 266.271 138.967C266.337 139.405 266.497 139.77 266.935 139.876C267.154 139.921 267.381 139.894 267.582 139.798C267.784 139.702 267.948 139.543 268.051 139.345C268.276 138.967 268.48 138.577 268.662 138.177C269.267 136.963 269.838 135.729 270.489 134.549C271.043 133.375 271.174 132.046 270.861 130.787C270.768 130.157 270.549 129.54 270.429 128.91C270.11 127.225 270.661 125.699 271.326 124.193C271.692 123.417 272.344 122.814 273.146 122.508C274.348 121.984 275.251 122.508 275.298 123.835C275.331 124.717 275.258 125.606 275.298 126.488C275.36 127.16 275.476 127.825 275.643 128.478C275.909 129.243 276.098 130.032 276.208 130.834C276.181 131.706 276.022 132.569 275.736 133.394C275.271 134.913 274.7 136.406 274.188 137.912C274.093 138.165 274.039 138.431 274.029 138.702C274.029 139.686 273.895 140.666 273.63 141.614C273.564 141.841 273.564 142.083 273.63 142.31C273.661 142.417 273.713 142.517 273.784 142.602C273.855 142.688 273.943 142.758 274.042 142.808C274.151 142.826 274.263 142.817 274.367 142.781C274.472 142.745 274.565 142.684 274.64 142.602C275.831 141.208 276.61 139.511 276.892 137.7C277.085 136.114 277.603 134.586 278.413 133.209C278.937 132.287 279.521 131.401 280.16 130.555C280.771 129.779 281.488 129.082 282.624 129.175C283.348 129.241 283.707 129.474 283.793 130.177C283.944 131.154 283.846 132.153 283.507 133.083C282.79 134.907 282.106 136.751 281.435 138.595C281.297 139.011 281.221 139.445 281.209 139.882C281.116 141.607 281.076 143.339 280.99 145.064C281.005 145.782 280.812 146.489 280.435 147.101C280.058 147.712 279.513 148.203 278.864 148.513C278.499 148.686 278.167 148.931 277.808 149.124C276.562 149.766 275.545 150.779 274.899 152.023C274.62 152.567 274.275 153.071 273.949 153.588C273.139 154.877 272.112 156.017 270.914 156.958C269.216 158.32 267.659 159.846 266.264 161.516C265.401 162.551 264.936 163.931 264.331 165.178C263.727 166.425 263.162 167.832 262.558 169.158C262.295 169.71 261.998 170.244 261.668 170.757C260.021 173.371 258.347 175.958 256.706 178.579C256.247 179.291 255.879 180.057 255.61 180.861C254.853 183.242 253.571 185.365 252.422 187.554C251.758 188.815 251.021 190.036 250.363 191.303C249.508 192.884 248.503 194.379 247.361 195.767C245.933 197.578 244.637 199.496 243.163 201.26C241.31 203.469 239.35 205.592 237.398 207.709C236.66 208.457 235.875 209.158 235.046 209.805C234.442 210.332 233.715 210.7 232.932 210.873C232.148 211.047 231.334 211.022 230.563 210.8C228.563 210.272 226.616 209.563 224.744 208.684C221.47 207.191 218.149 205.811 214.854 204.385C214.602 204.284 214.356 204.168 214.117 204.04C212.636 203.217 211.148 202.401 209.667 201.566C207.481 200.332 205.289 199.118 203.137 197.824C202.416 197.316 201.724 196.766 201.065 196.179C198.827 194.469 196.806 192.493 195.047 190.294C193.666 188.576 192.51 186.685 191.168 184.941C189.826 183.196 188.365 181.451 186.897 179.766C185.888 178.618 184.705 178.791 183.762 180.104C182.952 181.232 182.155 182.373 181.278 183.421C180.403 184.496 179.472 185.523 178.488 186.5C177.079 187.883 175.872 189.458 174.902 191.177C173.573 193.505 172.278 195.82 171.162 198.282C170.303 200.272 169.558 202.31 168.93 204.385C167.915 207.544 167.129 210.772 166.579 214.044C166.303 215.747 165.919 217.431 165.43 219.086C165.239 219.874 165.088 220.671 164.978 221.474C164.739 222.761 164.527 222.98 163.344 222.901L154.709 222.35C151.76 222.158 148.818 221.945 145.875 221.806C144.388 221.733 142.886 221.806 141.399 221.806C139.804 221.759 138.217 221.594 136.623 221.541C135.029 221.487 133.302 221.494 131.628 221.541C130.2 221.58 128.773 221.482 127.364 221.249C126.794 221.168 126.219 221.13 125.643 221.136C122.92 221.096 120.203 221.016 117.487 221.05C113.622 221.022 109.759 221.243 105.923 221.713C103.763 221.944 101.592 222.06 99.4202 222.058C98.5766 222.058 98.3442 221.866 98.4704 221.01C98.6804 219.222 99.0066 217.449 99.4468 215.703C100.101 213.397 100.609 211.053 100.968 208.684C101.26 206.694 101.632 204.703 101.765 202.654C101.989 200.592 101.96 198.512 101.679 196.457C101.6 195.886 101.571 195.309 101.592 194.732C101.583 190.598 100.995 186.485 99.8453 182.513C99.0778 179.951 98.0842 177.462 96.8763 175.076C96.0925 173.424 95.3685 171.759 94.6777 170.041C94.5051 169.46 94.3741 168.868 94.2858 168.269C94.1683 167.707 94.013 167.153 93.8209 166.611C93.7565 166.388 93.642 166.182 93.486 166.01C93.3301 165.837 93.1368 165.703 92.9209 165.617C92.705 165.53 92.4722 165.494 92.2402 165.511C92.0083 165.528 91.7833 165.598 91.5825 165.715C90.0491 166.378 88.6629 167.339 87.5042 168.541C86.2186 169.944 84.628 171.033 82.8547 171.726C80.4644 172.693 77.9803 173.411 75.442 173.868C72.6258 174.479 69.7564 174.937 67.0796 176.071C65.5851 176.734 64.1039 177.398 62.6493 178.121C59.5047 179.625 56.0598 180.399 52.5731 180.383C48.3676 180.415 44.2451 179.213 40.7169 176.927C38.2527 175.368 35.8216 173.749 33.4105 172.157C33.3242 172.11 33.3043 172.031 33.2179 171.885ZM135.666 107.409C135.714 107.063 135.714 106.713 135.666 106.367C135.308 105.167 134.909 103.979 134.497 102.798C134.285 102.188 134.006 101.604 133.773 101C133.641 100.675 133.548 100.337 133.946 100.118C134.61 100.403 134.723 100.383 134.996 100.98C135.431 101.934 135.809 102.913 136.125 103.913C136.497 105.087 136.849 106.281 137.878 107.051C140.276 108.829 142.707 110.56 145.125 112.311C145.789 112.809 146.533 113.26 147.171 113.811C148.599 115.012 150.143 116.07 151.78 116.968C152.209 117.249 152.73 117.354 153.235 117.26C155.228 116.856 157.041 116.066 158.947 115.489C159.233 115.381 159.49 115.208 159.698 114.985C160.294 114.361 160.684 113.569 160.814 112.716C160.946 112.053 161.059 111.456 161.152 110.819C161.446 109.363 161.646 107.889 161.75 106.407C161.811 105.051 162.148 103.722 162.74 102.5C163.842 99.9522 165.118 97.4711 165.589 94.6914C165.861 93.5738 165.93 92.4169 165.795 91.2749C165.621 90.3926 165.633 89.4836 165.831 88.6062C166.029 87.7288 166.408 86.9024 166.944 86.18C167.294 85.5932 167.59 84.9759 167.828 84.3357C167.533 84.1954 167.293 83.9622 167.144 83.6721C166.995 83.382 166.946 83.0511 167.004 82.7303C167.004 81.7153 167.044 80.6936 167.004 79.672C166.967 78.0039 166.428 76.3857 165.456 75.0282C165.101 74.5105 164.601 74.1086 164.019 73.8727C163.437 73.6367 162.798 73.5772 162.182 73.7014C160.382 74.1724 158.588 74.6965 156.769 75.1211C155.592 75.4406 154.386 75.6407 153.168 75.7181C149.815 75.7851 146.524 74.804 143.757 72.9119C143.231 72.5363 142.681 72.1971 142.109 71.8969C141.892 71.7584 141.646 71.6693 141.39 71.6362C141.134 71.603 140.874 71.6265 140.628 71.705C140.382 71.7835 140.156 71.9151 139.967 72.0904C139.777 72.2658 139.629 72.4805 139.532 72.7195C139.206 73.4572 139.006 74.2443 138.941 75.0481C138.862 76.568 139.048 78.09 139.492 79.5459C139.638 80.0307 139.654 80.5454 139.537 81.0381C139.421 81.5308 139.176 81.984 138.828 82.3521C138.323 82.9434 137.923 83.6165 137.646 84.3423C137.299 85.2989 137.005 86.2733 136.762 87.2613C136.543 88.0043 136.384 88.7739 136.098 89.5036C135.999 89.7822 135.706 90.167 135.474 90.167C135.241 90.167 134.949 89.842 134.723 89.6098C134.609 89.4423 134.516 89.2619 134.444 89.0724C133.309 87.0976 131.789 85.3698 129.974 83.9907C129.616 83.7286 129.201 83.5532 128.763 83.4783C128.325 83.4035 127.875 83.4313 127.45 83.5595C127.312 83.5708 127.178 83.6102 127.055 83.6752C126.933 83.7402 126.825 83.8295 126.739 83.9376C126.652 84.0458 126.589 84.1704 126.553 84.3039C126.516 84.4373 126.507 84.5769 126.527 84.7139C126.537 85.3553 126.604 85.9947 126.726 86.6244C126.998 87.9844 127.304 89.3378 127.623 90.6845C127.942 92.0312 128.008 93.6764 129.317 94.6649C129.409 94.7379 129.436 94.9103 129.469 95.0364C129.574 95.3781 129.752 95.6926 129.992 95.9575C130.232 96.2224 130.527 96.4311 130.857 96.5688C131.23 96.736 131.593 96.922 131.947 97.1261C132.1 97.2256 132.173 97.4512 132.359 97.7364H130.366C130.331 97.9157 130.314 98.0978 130.313 98.2804C130.447 99.7336 130.378 101.198 130.107 102.632C129.981 103.574 130.034 104.53 130.001 105.485C129.983 105.635 130.022 105.787 130.11 105.91C130.199 106.033 130.33 106.118 130.479 106.148C130.849 106.303 131.247 106.378 131.648 106.367C131.891 106.307 132.147 106.313 132.387 106.384C132.628 106.455 132.845 106.589 133.016 106.772C133.378 107.076 133.806 107.291 134.266 107.402C134.726 107.512 135.205 107.515 135.666 107.409V107.409ZM146.214 135.477C147.642 135.477 149.07 135.557 150.492 135.477C153.328 135.292 156.157 134.986 158.994 134.814C163.367 134.597 167.703 133.905 171.926 132.751C175.466 131.689 178.94 130.436 182.447 129.261C182.607 129.205 182.761 129.131 182.905 129.042C183.769 128.532 183.842 127.842 182.972 127.337C181.727 126.509 180.314 125.965 178.834 125.745C177.99 125.672 177.2 125.599 176.788 124.71C176.717 124.593 176.61 124.502 176.482 124.452C174.968 123.649 173.58 122.561 171.786 122.362C171.524 122.36 171.27 122.266 171.069 122.097C170.285 121.082 169.163 121.068 168.1 121.174C166.784 121.299 165.481 121.541 164.208 121.898C159.324 123.212 154.589 125.029 150.08 127.318C148.37 128.228 146.524 128.857 144.613 129.182C143.577 129.348 142.528 129.474 141.492 129.659C140.249 129.878 139.831 130.323 139.592 131.577C139.532 132.079 139.416 132.573 139.247 133.049C138.582 134.615 138.921 135.424 141.02 135.53C141.055 135.534 141.091 135.534 141.126 135.53L146.214 135.477ZM104.322 115.953C103.645 116.046 102.979 116.199 102.329 116.411C101.406 116.769 101.366 117.652 102.197 118.202C102.599 118.461 103.024 118.683 103.465 118.866C105.838 119.903 108.114 121.149 110.267 122.587C112.127 123.835 114.015 125.033 115.933 126.183C118.862 127.935 122.11 128.969 125.232 130.23C125.736 130.429 126.254 130.581 126.766 130.761C127.057 130.862 127.371 130.883 127.673 130.82C127.975 130.757 128.254 130.612 128.48 130.402C129.476 129.58 130.472 128.744 131.415 127.895C131.573 127.79 131.707 127.653 131.81 127.494C131.912 127.335 131.98 127.156 132.01 126.969C132.04 126.782 132.031 126.591 131.984 126.408C131.936 126.225 131.851 126.053 131.734 125.904C131.429 125.38 131.01 124.929 130.685 124.412C129.429 122.422 128.161 120.431 126.959 118.348C126.143 117.015 125 115.912 123.637 115.144C123.16 114.888 122.631 114.738 122.09 114.706C121.313 114.627 120.529 114.627 119.752 114.706C118.556 114.832 117.394 115.098 116.71 116.265C116.451 116.71 116.046 116.623 115.627 116.551C114.142 116.306 112.619 116.631 111.363 117.459C111.174 117.599 110.954 117.688 110.722 117.72C110.489 117.751 110.253 117.723 110.034 117.639C109.466 117.417 108.91 117.167 108.367 116.889C107.111 116.263 105.725 115.943 104.322 115.953V115.953ZM136.769 167.613C137.056 167.77 137.356 167.904 137.666 168.011C140.21 168.608 142.747 169.264 145.317 169.749C148.442 170.245 151.608 170.434 154.769 170.313C160.292 170.177 165.737 168.976 170.803 166.777C172.967 165.916 174.853 164.48 176.257 162.624C178.215 159.928 179.849 157.011 181.125 153.933C181.281 153.555 181.375 153.154 181.404 152.746C181.378 152.49 181.309 152.241 181.198 152.009C180.959 152.096 180.64 152.102 180.494 152.268C179.97 152.842 179.488 153.454 179.053 154.099C177.771 156.089 176.536 158.133 175.267 160.143C173.933 162.222 171.992 163.843 169.707 164.787C167.192 165.827 164.577 166.607 161.903 167.115C159.844 167.549 157.758 167.842 155.659 167.991C153.657 168.11 151.65 168.11 149.648 167.991C147.41 167.878 145.178 167.626 142.946 167.453C141.286 167.321 139.625 167.212 137.965 167.128C137.74 167.073 137.503 167.091 137.288 167.178C137.074 167.264 136.892 167.417 136.769 167.613V167.613ZM120.11 166.18C119.993 165.972 119.817 165.803 119.605 165.695C119.392 165.586 119.152 165.543 118.915 165.569C118.032 165.503 117.148 165.49 116.258 165.49C113.601 165.49 110.885 165.556 108.201 165.49C104.428 165.39 100.948 164.382 98.0187 161.887C95.6209 159.851 94.1397 157.356 94.2526 154.106C94.2634 153.123 94.3277 152.142 94.4452 151.167C94.6113 149.959 94.8903 148.765 95.1094 147.565C95.126 147.364 95.126 147.162 95.1094 146.961L94.9035 146.928C94.691 147.339 94.4386 147.737 94.2393 148.168C93.3251 150.335 92.8336 152.657 92.7913 155.008C92.7282 157.307 93.4837 159.555 94.9235 161.35C97.3713 164.521 100.978 166.595 104.953 167.115C109.43 167.778 113.913 167.314 118.384 166.883C119.027 166.871 119.642 166.62 120.11 166.18V166.18ZM194.828 164.521L194.562 164.435C194.365 164.683 194.195 164.952 194.058 165.238C193.615 166.339 193.234 167.464 192.915 168.608C192.327 170.686 192.427 172.899 193.201 174.917C194.036 177.063 195.386 178.972 197.133 180.476C198.879 181.979 200.968 183.032 203.217 183.541C204.405 183.846 205.615 184.052 206.837 184.158C207.85 184.21 208.865 184.179 209.872 184.065C210.092 184.065 210.457 183.766 210.457 183.614C210.444 183.472 210.4 183.335 210.328 183.212C210.255 183.089 210.157 182.984 210.039 182.904C209.426 182.622 208.788 182.399 208.132 182.241C206.844 181.929 205.535 181.697 204.24 181.398C201.426 180.756 198.889 179.24 196.993 177.066C195.001 174.877 193.885 172.376 194.23 169.357C194.383 168.031 194.589 166.737 194.755 165.423C194.801 165.125 194.808 164.833 194.828 164.521ZM70.4139 158.179V158.524C70.8242 158.642 71.2444 158.722 71.6693 158.763C73.2966 158.763 74.924 158.816 76.5513 158.763C78.1577 158.722 79.7284 158.281 81.1205 157.479C82.5126 156.677 83.6818 155.54 84.5219 154.172C86.0717 151.731 87.287 149.094 88.1352 146.331C88.2758 145.878 88.3409 145.405 88.3278 144.931C88.3278 144.672 88.0953 144.427 87.9691 144.168C87.7167 144.307 87.3581 144.38 87.2252 144.593C86.7536 145.336 86.3352 146.112 85.93 146.895C85.0599 148.586 84.2429 150.304 83.3462 151.983C82.6181 153.492 81.5037 154.783 80.1157 155.724C78.7277 156.666 77.1155 157.224 75.442 157.343C74.0273 157.482 72.6191 157.741 71.2044 157.96C70.9364 158.016 70.6724 158.089 70.4139 158.179ZM133.933 128.916C133.323 128.921 132.721 129.052 132.164 129.301C131.607 129.55 131.108 129.911 130.698 130.363C130.481 130.602 130.329 130.893 130.257 131.208C130.185 131.523 130.195 131.851 130.286 132.16C130.443 132.682 130.415 133.242 130.207 133.746C129.768 134.927 130.207 135.663 131.435 135.842C132.295 135.959 133.17 135.882 133.996 135.618C134.822 135.354 135.579 134.909 136.211 134.316C136.91 133.767 137.422 133.017 137.679 132.167C137.819 131.779 137.824 131.354 137.693 130.963C137.561 130.572 137.301 130.236 136.955 130.011C136.046 129.412 135.008 129.037 133.926 128.916H133.933ZM132.418 139.312C131.754 139.312 131.562 139.783 131.309 140.168C130.042 142.019 129.141 144.095 128.652 146.284C127.913 150.086 127.745 153.976 128.154 157.827C128.191 158.199 128.283 158.564 128.426 158.909C128.619 159.367 128.998 159.38 129.257 158.949C129.393 158.712 129.487 158.454 129.536 158.186C129.66 157.528 129.749 156.863 129.801 156.195C129.901 154.398 129.954 152.6 130.047 150.809C130.125 148.295 130.593 145.808 131.435 143.438C131.754 142.576 132.1 141.727 132.398 140.864C132.533 140.628 132.604 140.361 132.606 140.09C132.609 139.818 132.542 139.55 132.412 139.312H132.418ZM230.556 175.978L230.317 175.786C229.54 176.293 228.892 176.975 228.424 177.776C226.617 180.967 226.75 184.078 228.975 187.017C230.979 189.608 233.56 191.695 236.514 193.114C236.783 193.258 237.075 193.352 237.378 193.392C237.685 193.373 237.989 193.313 238.281 193.213C238.053 192.856 237.793 192.521 237.504 192.212C236.477 191.327 235.431 190.462 234.369 189.618C232.851 188.47 231.487 187.132 230.31 185.637C229.55 184.69 229.054 183.56 228.87 182.361C228.687 181.161 228.824 179.934 229.268 178.804C229.533 178.074 229.932 177.385 230.244 176.681L230.556 175.978ZM202.367 153.847C202.12 153.619 201.823 153.451 201.501 153.356C201.179 153.26 200.839 153.24 200.507 153.296C197.99 153.343 195.486 153.409 192.975 153.462C192.311 153.462 191.646 153.462 190.936 153.462C190.705 153.511 190.481 153.592 190.272 153.701C190.432 153.904 190.633 154.073 190.861 154.195C191.09 154.317 191.341 154.39 191.6 154.411C192.735 154.615 193.882 154.742 195.034 154.789C196.967 154.789 198.893 154.696 200.826 154.57C201.123 154.591 201.421 154.535 201.691 154.409C201.96 154.282 202.193 154.089 202.367 153.847Z" fill="black"/>
<path d="M299.987 74.199C300.121 78.5045 298.889 82.7421 296.467 86.3061C294.75 88.8692 292.883 91.3281 290.874 93.6699C288.769 96.1908 286.55 98.6322 284.232 100.967C281.914 103.303 279.582 105.532 277.118 107.668C274.023 110.361 270.828 112.935 267.64 115.516C266.906 116.06 266.131 116.548 265.322 116.975C265.071 117.122 264.783 117.191 264.493 117.173C264.203 117.155 263.925 117.052 263.694 116.876C262.528 116.126 261.459 115.235 260.513 114.222C259.025 112.643 257.378 111.217 255.824 109.704C254.853 108.805 253.933 107.852 253.067 106.852C251.686 105.142 250.162 103.553 248.511 102.102C246.651 100.476 244.957 98.6521 243.243 96.8675C241.826 95.3992 240.454 93.8932 239.125 92.3497C237.71 90.7045 236.362 89.0327 235.007 87.3079C234.141 86.1341 233.48 84.8218 233.054 83.427C232.165 80.9068 231.528 78.3045 231.155 75.6585C231.002 74.5826 231.002 73.4905 231.155 72.4145C231.407 70.7825 231.819 69.1771 232.191 67.5584C232.617 65.6027 233.515 63.7808 234.808 62.2512C236.971 59.4721 239.922 57.4078 243.276 56.327C245.479 55.7317 247.781 55.5962 250.038 55.9289C253.624 56.3686 257.067 57.5966 260.121 59.5246C261.449 60.3605 262.858 61.1499 264.226 61.9725C265.189 62.5497 265.614 62.5232 266.551 61.873C267.779 60.9708 269.015 60.1084 270.257 59.3521C272.366 58.1899 274.613 57.2983 276.946 56.6985C277.57 56.5194 278.194 56.3734 278.812 56.1877C282.439 55.0798 285.939 55.6636 289.353 57.0302C292.767 58.3968 295.563 60.8779 297.855 63.7903C298.445 64.5751 298.922 65.4395 299.27 66.3576C299.544 67.1171 299.703 67.9131 299.741 68.7193C299.868 70.5437 299.914 72.3747 299.987 74.199ZM298.041 73.6949C298.041 69.5552 297.822 69.4424 295.856 65.4421C295.49 64.7915 295.028 64.199 294.487 63.6841C293.883 63.0207 293.159 62.5165 292.548 61.8863C291.556 60.8523 290.363 60.0304 289.044 59.4705C287.724 58.9106 286.304 58.6243 284.87 58.629C283.614 58.629 282.352 58.629 281.097 58.629C278.009 58.6216 275.014 59.6836 272.621 61.6342C270.489 63.2463 268.118 64.5333 265.853 65.9729C265.589 66.1604 265.269 66.2539 264.945 66.2383C264.621 66.2226 264.312 66.0988 264.066 65.8866C262.705 64.9247 261.323 63.9959 259.935 63.0738C258.547 62.1517 257.119 61.1367 255.657 60.3074C253.2 58.8214 250.417 58.3172 247.654 58.085C245.751 57.8522 243.82 58.1071 242.044 58.8255C240.267 59.5439 238.702 60.7023 237.498 62.1915C237.192 62.5497 236.834 62.888 236.521 63.233C234.934 64.7849 233.833 66.7651 233.353 68.9316C232.824 71.3947 232.888 73.948 233.539 76.3816C234.044 78.4249 234.761 80.4151 235.412 82.412C235.842 83.8071 236.569 85.0926 237.544 86.1801C238.149 86.8435 238.7 87.5069 239.265 88.1703C240.762 90.0618 242.365 91.8669 244.067 93.577C245.429 94.9038 246.671 96.35 247.979 97.7299C248.796 98.5857 249.64 99.4216 250.47 100.277L254.143 104.092C255.279 105.26 256.375 106.46 257.55 107.588C258.879 108.915 260.32 110.102 261.702 111.356C262.399 112.02 263.063 112.683 263.801 113.293C264.751 114.063 265.382 114.109 266.398 113.413C267.6 112.59 268.749 111.688 269.892 110.759C271.187 109.718 272.455 108.636 273.731 107.568C275.006 106.5 276.215 105.578 277.391 104.477C278.912 103.077 280.406 101.637 281.841 100.138C284.445 97.4049 287.042 94.6716 289.532 91.8455C290.967 90.2202 292.189 88.3959 293.518 86.6644C296.443 82.9724 298.037 78.4031 298.041 73.6949V73.6949Z" fill="black"/>
<path d="M135.666 107.409C135.202 107.541 134.714 107.562 134.241 107.47C133.767 107.378 133.323 107.175 132.943 106.878C132.772 106.695 132.554 106.561 132.314 106.49C132.073 106.419 131.818 106.413 131.575 106.473C131.174 106.484 130.775 106.409 130.406 106.254C130.257 106.224 130.125 106.139 130.037 106.016C129.948 105.893 129.909 105.741 129.927 105.591C129.961 104.636 129.927 103.68 130.034 102.738C130.305 101.304 130.374 99.8397 130.239 98.3865C130.24 98.2039 130.258 98.0218 130.293 97.8425H132.285C132.099 97.5573 132.026 97.3317 131.873 97.2322C131.52 97.0281 131.157 96.8421 130.784 96.675C130.454 96.5372 130.159 96.3285 129.919 96.0636C129.679 95.7987 129.5 95.4842 129.396 95.1425C129.363 95.0165 129.336 94.844 129.243 94.771C127.915 93.7494 127.882 92.1904 127.549 90.7906C127.217 89.3908 126.925 88.0905 126.653 86.7306C126.53 86.1008 126.464 85.4614 126.453 84.82C126.434 84.683 126.443 84.5434 126.479 84.41C126.516 84.2765 126.579 84.1519 126.666 84.0438C126.752 83.9356 126.86 83.8463 126.982 83.7813C127.104 83.7163 127.239 83.6769 127.377 83.6656C127.802 83.5374 128.252 83.5096 128.69 83.5844C129.128 83.6593 129.542 83.8347 129.901 84.0969C131.715 85.4759 133.235 87.2037 134.371 89.1785C134.442 89.368 134.536 89.5484 134.65 89.7159C134.876 89.9481 135.168 90.293 135.4 90.2731C135.633 90.2532 135.925 89.8685 136.025 89.6097C136.29 88.88 136.45 88.1104 136.689 87.3674C136.931 86.3794 137.226 85.405 137.572 84.4485C137.85 83.7226 138.25 83.0495 138.755 82.4582C139.134 82.0876 139.404 81.6196 139.534 81.1057C139.664 80.5919 139.649 80.0521 139.492 79.5459C139.055 78.0774 138.88 76.5439 138.974 75.0149C139.039 74.2111 139.239 73.424 139.565 72.6863C139.662 72.4473 139.81 72.2325 140 72.0572C140.189 71.8819 140.415 71.7503 140.661 71.6718C140.907 71.5933 141.167 71.5698 141.423 71.603C141.679 71.6361 141.924 71.7252 142.142 71.8637C142.704 72.1759 143.243 72.5261 143.756 72.9119C146.526 74.7993 149.816 75.7757 153.168 75.7048C154.385 75.6273 155.591 75.4273 156.768 75.1077C158.588 74.6832 160.382 74.1591 162.182 73.6881C162.798 73.5639 163.436 73.6234 164.019 73.8594C164.601 74.0953 165.101 74.4972 165.456 75.0149C166.427 76.3724 166.967 77.9906 167.004 79.6587C167.044 80.6803 167.004 81.702 167.004 82.717C166.946 83.0378 166.995 83.3687 167.144 83.6588C167.293 83.9489 167.533 84.1821 167.827 84.3224C167.59 84.9672 167.294 85.5889 166.944 86.1799C166.402 86.8998 166.017 87.725 165.813 88.6024C165.609 89.4799 165.592 90.3902 165.762 91.2749C165.897 92.4169 165.827 93.5738 165.556 94.6914C165.084 97.471 163.809 99.9522 162.706 102.5C162.125 103.726 161.799 105.058 161.75 106.414C161.646 107.896 161.446 109.369 161.152 110.825C161.059 111.489 160.946 112.092 160.813 112.723C160.674 113.565 160.28 114.345 159.684 114.958C159.476 115.182 159.219 115.354 158.934 115.463C157.027 116.04 155.187 116.829 153.221 117.234C152.717 117.327 152.196 117.223 151.767 116.942C150.13 116.044 148.586 114.986 147.157 113.784C146.493 113.233 145.829 112.782 145.111 112.285C142.694 110.533 140.262 108.802 137.865 107.024C136.835 106.254 136.483 105.034 136.111 103.886C135.795 102.887 135.418 101.907 134.982 100.954C134.71 100.357 134.623 100.377 133.933 100.091C133.534 100.317 133.627 100.649 133.76 100.974C133.992 101.578 134.271 102.161 134.484 102.772C134.896 103.952 135.294 105.14 135.653 106.341C135.707 106.694 135.711 107.054 135.666 107.409V107.409Z" fill="white"/>
<path d="M146.215 135.451H141.127C141.091 135.454 141.056 135.454 141.02 135.451C138.922 135.345 138.583 134.535 139.247 132.97C139.417 132.493 139.532 131.999 139.592 131.497C139.832 130.25 140.257 129.799 141.492 129.58C142.528 129.394 143.578 129.268 144.614 129.102C146.524 128.778 148.37 128.148 150.08 127.238C154.59 124.949 159.324 123.133 164.208 121.818C165.481 121.461 166.784 121.219 168.1 121.095C169.163 120.989 170.286 121.002 171.07 122.017C171.27 122.187 171.524 122.281 171.787 122.282C173.58 122.481 174.968 123.569 176.483 124.372C176.61 124.422 176.718 124.513 176.788 124.631C177.2 125.52 177.991 125.593 178.834 125.666C180.314 125.885 181.727 126.429 182.972 127.258C183.842 127.762 183.769 128.452 182.906 128.963C182.761 129.052 182.608 129.125 182.448 129.182C178.94 130.356 175.467 131.61 171.926 132.671C167.703 133.826 163.367 134.518 158.994 134.734C156.158 134.94 153.328 135.245 150.492 135.398C149.071 135.491 147.643 135.398 146.215 135.398V135.451Z" fill="white"/>
<path d="M104.323 115.953C105.718 115.932 107.099 116.239 108.354 116.849C108.897 117.127 109.453 117.377 110.021 117.598C110.24 117.683 110.476 117.711 110.709 117.68C110.941 117.648 111.162 117.559 111.35 117.419C112.606 116.591 114.129 116.266 115.614 116.51C116.026 116.583 116.438 116.67 116.697 116.225C117.361 115.058 118.543 114.792 119.739 114.666C120.516 114.587 121.3 114.587 122.077 114.666C122.617 114.71 123.14 114.871 123.611 115.137C124.974 115.905 126.117 117.008 126.932 118.341C128.135 120.391 129.403 122.395 130.659 124.405C130.984 124.922 131.403 125.373 131.708 125.898C131.825 126.046 131.91 126.218 131.957 126.401C132.005 126.584 132.014 126.775 131.984 126.962C131.954 127.149 131.886 127.328 131.783 127.487C131.681 127.646 131.547 127.783 131.389 127.888C130.42 128.737 129.45 129.573 128.453 130.395C128.228 130.605 127.949 130.75 127.647 130.813C127.345 130.876 127.031 130.856 126.74 130.754C126.228 130.575 125.71 130.422 125.205 130.223C122.057 128.962 118.809 127.928 115.906 126.176C113.989 125.026 112.1 123.828 110.241 122.581C108.106 121.133 105.848 119.877 103.492 118.826C103.051 118.643 102.626 118.421 102.224 118.162C101.393 117.612 101.433 116.729 102.356 116.371C102.998 116.174 103.656 116.034 104.323 115.953Z" fill="white"/>
<path d="M136.77 167.613C136.889 167.412 137.069 167.254 137.284 167.163C137.499 167.071 137.737 167.05 137.965 167.102C139.626 167.19 141.286 167.299 142.947 167.427C145.178 167.599 147.41 167.852 149.649 167.964C151.651 168.084 153.658 168.084 155.66 167.964C157.759 167.815 159.845 167.523 161.903 167.089C164.578 166.576 167.193 165.792 169.708 164.747C171.993 163.803 173.933 162.182 175.267 160.103C176.536 158.113 177.772 156.063 179.053 154.059C179.488 153.415 179.97 152.803 180.495 152.228C180.641 152.063 180.96 152.056 181.199 151.97C181.309 152.202 181.379 152.451 181.405 152.706C181.376 153.114 181.282 153.515 181.126 153.894C179.85 156.971 178.216 159.888 176.257 162.584C174.853 164.44 172.967 165.876 170.804 166.737C165.74 168.95 160.295 170.164 154.77 170.313C151.608 170.434 148.443 170.245 145.318 169.749C142.747 169.265 140.21 168.608 137.666 168.011C137.357 167.904 137.057 167.771 136.77 167.613Z" fill="white"/>
<path d="M120.111 166.18C119.638 166.604 119.026 166.84 118.391 166.843C113.92 167.274 109.437 167.712 104.96 167.075C101.013 166.55 97.4311 164.493 94.9903 161.35C93.5505 159.555 92.795 157.307 92.8582 155.008C92.9005 152.657 93.3919 150.335 94.3061 148.168C94.4855 147.737 94.7379 147.339 94.9704 146.928L95.1763 146.961C95.1929 147.162 95.1929 147.364 95.1763 147.565C94.9504 148.765 94.6715 149.959 94.5121 151.167C94.3945 152.142 94.3302 153.123 94.3194 154.106C94.2065 157.356 95.6877 159.851 98.0855 161.887C101.015 164.382 104.495 165.39 108.268 165.49C110.925 165.556 113.641 165.49 116.325 165.49C117.208 165.49 118.092 165.49 118.982 165.569C119.208 165.556 119.434 165.606 119.634 165.713C119.833 165.821 119.998 165.983 120.111 166.18V166.18Z" fill="white"/>
<path d="M194.828 164.521C194.828 164.833 194.828 165.145 194.755 165.45C194.589 166.777 194.383 168.07 194.231 169.384C193.885 172.402 195.021 174.903 196.994 177.093C198.894 179.254 201.431 180.759 204.24 181.391C205.535 181.69 206.844 181.922 208.133 182.234C208.788 182.393 209.426 182.615 210.039 182.897C210.157 182.977 210.256 183.082 210.328 183.205C210.4 183.328 210.444 183.465 210.457 183.607C210.457 183.76 210.092 184.038 209.873 184.058C208.865 184.172 207.85 184.203 206.837 184.151C205.616 184.045 204.405 183.839 203.217 183.534C200.969 183.025 198.879 181.973 197.133 180.469C195.387 178.965 194.036 177.056 193.201 174.91C192.427 172.893 192.327 170.68 192.915 168.601C193.234 167.458 193.616 166.333 194.058 165.231C194.196 164.945 194.365 164.676 194.563 164.428L194.828 164.521Z" fill="white"/>
<path d="M70.4141 158.179C70.6832 158.085 70.9584 158.01 71.2377 157.953C72.6525 157.734 74.0606 157.476 75.4754 157.336C77.1488 157.217 78.7611 156.659 80.149 155.718C81.537 154.776 82.6514 153.486 83.3795 151.976C84.2762 150.298 85.0932 148.579 85.9633 146.888C86.3685 146.105 86.787 145.329 87.2586 144.586C87.3914 144.373 87.7501 144.3 88.0025 144.161C88.1287 144.42 88.3545 144.665 88.3612 144.924C88.3742 145.398 88.3091 145.871 88.1685 146.324C87.3203 149.087 86.1051 151.724 84.5552 154.165C83.7151 155.533 82.5459 156.67 81.1538 157.472C79.7618 158.274 78.1911 158.715 76.5846 158.756C74.9573 158.816 73.33 158.756 71.7026 158.756C71.2777 158.715 70.8575 158.635 70.4473 158.517L70.4141 158.179Z" fill="white"/>
<path d="M133.926 128.917C135.006 129.038 136.041 129.413 136.948 130.011C137.295 130.236 137.555 130.572 137.686 130.963C137.818 131.355 137.813 131.779 137.672 132.167C137.415 133.017 136.903 133.768 136.204 134.317C135.572 134.91 134.815 135.354 133.989 135.618C133.163 135.882 132.288 135.959 131.429 135.842C130.173 135.663 129.762 134.927 130.2 133.746C130.408 133.242 130.436 132.682 130.28 132.161C130.188 131.851 130.178 131.523 130.25 131.208C130.322 130.893 130.474 130.602 130.691 130.363C131.101 129.912 131.6 129.55 132.157 129.301C132.714 129.052 133.316 128.921 133.926 128.917V128.917Z" fill="white"/>
<path d="M132.412 139.312C132.534 139.551 132.593 139.816 132.585 140.084C132.577 140.352 132.501 140.613 132.366 140.844C132.06 141.707 131.701 142.556 131.403 143.418C130.56 145.789 130.092 148.275 130.014 150.789C129.921 152.58 129.868 154.378 129.769 156.176C129.716 156.843 129.627 157.508 129.503 158.166C129.454 158.434 129.36 158.692 129.224 158.929C128.965 159.36 128.56 159.347 128.394 158.889C128.25 158.544 128.159 158.18 128.121 157.808C127.712 153.957 127.88 150.066 128.62 146.264C129.108 144.076 130.01 142 131.276 140.148C131.555 139.783 131.781 139.332 132.412 139.312Z" fill="white"/>
<path d="M230.556 175.978L230.244 176.688C229.918 177.391 229.533 178.081 229.267 178.811C228.824 179.941 228.687 181.167 228.87 182.367C229.053 183.567 229.55 184.697 230.31 185.644C231.487 187.139 232.851 188.476 234.369 189.624C235.431 190.469 236.476 191.334 237.504 192.218C237.793 192.528 238.053 192.863 238.281 193.22C237.989 193.32 237.685 193.38 237.378 193.399C237.075 193.359 236.783 193.264 236.514 193.12C233.559 191.7 230.978 189.61 228.975 187.017C226.75 184.078 226.617 180.967 228.424 177.776C228.892 176.975 229.54 176.293 230.317 175.786L230.556 175.978Z" fill="white"/>
<path d="M202.367 153.847C202.193 154.094 201.958 154.292 201.684 154.421C201.411 154.55 201.108 154.606 200.806 154.583C198.873 154.709 196.947 154.816 195.014 154.802C193.862 154.755 192.715 154.629 191.58 154.424C191.322 154.404 191.07 154.33 190.842 154.208C190.613 154.086 190.412 153.918 190.252 153.714C190.462 153.605 190.685 153.525 190.916 153.476C191.58 153.476 192.245 153.476 192.955 153.476C195.466 153.422 197.97 153.356 200.487 153.31C200.821 153.248 201.164 153.265 201.49 153.358C201.817 153.451 202.117 153.619 202.367 153.847Z" fill="white"/>
<path d="M298.04 73.6948C298.037 78.4199 296.434 83.0049 293.49 86.7041C292.162 88.4356 290.966 90.26 289.505 91.8853C287.014 94.7114 284.417 97.4446 281.813 100.178C280.379 101.677 278.884 103.117 277.363 104.516C276.188 105.598 274.926 106.586 273.703 107.608C272.481 108.63 271.159 109.757 269.864 110.799C268.722 111.708 267.573 112.61 266.37 113.453C265.354 114.116 264.723 114.116 263.773 113.333C263.036 112.716 262.372 112.053 261.708 111.389C260.326 110.135 258.905 108.915 257.556 107.621C256.381 106.493 255.285 105.293 254.149 104.125L250.476 100.317C249.646 99.4614 248.802 98.6255 247.985 97.7697C246.657 96.3898 245.434 94.937 244.073 93.6168C242.368 91.894 240.762 90.0755 239.264 88.1702C238.699 87.5068 238.148 86.797 237.544 86.18C236.565 85.0848 235.838 83.7899 235.411 82.3854C234.747 80.3952 234.043 78.405 233.538 76.3551C232.891 73.9298 232.828 71.3861 233.352 68.9316C233.837 66.7745 234.937 64.8042 236.521 63.2595C236.853 62.9145 237.185 62.5961 237.497 62.218C238.702 60.7288 240.266 59.5704 242.043 58.852C243.82 58.1336 245.75 57.8787 247.653 58.1115C250.416 58.3171 253.199 58.8213 255.657 60.3074C257.118 61.1698 258.519 62.1317 259.934 63.0737C261.349 64.0158 262.704 64.9246 264.066 65.8866C264.311 66.0987 264.62 66.2226 264.944 66.2382C265.268 66.2538 265.588 66.1604 265.852 65.9728C268.117 64.5332 270.502 63.2462 272.621 61.6342C275.017 59.6955 278.012 58.6453 281.096 58.6621C282.351 58.6621 283.613 58.6621 284.869 58.6621C286.303 58.6574 287.723 58.9437 289.043 59.5036C290.363 60.0635 291.555 60.8854 292.547 61.9194C293.165 62.5497 293.876 63.0804 294.487 63.7172C295.028 64.2321 295.489 64.8246 295.855 65.4753C297.821 69.4424 298.027 69.5552 298.04 73.6948Z" fill="white"/>
</g>
<defs>
<clipPath id="clip0_219_35">
<rect width="298" height="168" fill="white" transform="translate(2 55)"/>
</clipPath>
</defs>
</svg>
