<svg width="300" height="300" viewBox="0 0 300 300" fill="none" xmlns="http://www.w3.org/2000/svg">
<g clip-path="url(#clip0_219_35)">
<path d="M67.2813 205.835C62.7428 204.936 58.3901 203.274 54.4083 200.922C52.4371 199.808 50.7351 198.275 49.4228 196.433C49.1446 196.025 48.7349 195.726 48.262 195.584C45.5879 195.005 42.9656 195.067 40.789 197.012C38.735 198.786 36.7735 200.664 34.9122 202.639C31.6532 206.194 27.9259 209.291 23.8323 211.845C22.437 212.627 20.9307 213.192 19.3651 213.521C17.7378 213.945 17.1056 213.314 17.1367 211.607C17.2611 206.435 19.7901 202.546 23.6768 199.391C24.5371 198.698 25.4388 198.046 26.3302 197.394C28.2689 196.008 29.6125 193.944 30.0926 191.612C30.1652 191.281 30.1548 190.661 29.989 190.578C29.8091 190.493 29.6126 190.449 29.4137 190.449C29.2148 190.449 29.0184 190.493 28.8385 190.578C27.2099 191.693 25.6553 192.913 24.1847 194.229C19.5517 198.677 15.0534 203.249 10.41 207.676C7.84988 210.138 6.03605 209.569 5.39344 206.094C4.61608 202.101 4.81301 198.222 7.52857 194.891C8.93818 193.174 10.524 191.612 11.9232 189.905C13.3225 188.199 14.4004 186.626 15.6442 184.992C16.1923 184.238 16.7914 183.523 17.4373 182.851C17.8508 182.378 18.417 182.064 19.0379 181.964C19.6588 181.864 20.2952 181.984 20.8369 182.303C21.587 182.711 22.457 182.845 23.2957 182.681C24.1344 182.517 24.889 182.064 25.4285 181.403C26.1854 180.596 26.8398 179.7 27.377 178.734C27.916 177.824 27.6362 177.431 26.5997 177.275C25.6501 177.176 24.7083 177.014 23.7805 176.789C22.9743 176.619 22.2186 176.265 21.5728 175.755C20.6728 174.814 19.5219 174.15 18.2561 173.841C16.9159 173.565 15.6889 172.895 14.7324 171.919C13.7759 170.942 13.1333 169.702 12.8871 168.359C12.5033 166.804 12.2571 165.219 12.1512 163.621C12.1992 162.792 12.3631 161.974 12.6384 161.19C12.7006 160.932 12.9182 160.694 12.9286 160.446C12.9908 156.649 15.0637 153.546 16.6184 150.319C20.0906 143.078 23.8116 135.972 27.4289 128.814C27.5809 128.503 27.7467 128.203 27.9264 127.914C28.9629 126.31 29.8853 125.845 31.6784 126.414C33.8757 127.076 36.0523 127.81 38.1771 128.648C38.602 128.885 39.0943 128.973 39.5754 128.898C40.0564 128.823 40.4983 128.589 40.8305 128.234C44.1738 125.374 47.9123 123.008 51.9311 121.211C54.6428 119.794 57.5826 118.862 60.6168 118.459C61.5659 118.33 62.5283 118.33 63.4774 118.459C66.192 118.835 68.951 118.214 71.2406 116.711C72.8136 115.783 74.477 115.017 76.2053 114.425C78.7902 113.612 81.5816 113.751 84.0722 114.818L85.5751 115.387C87.4537 116.289 89.6037 116.451 91.597 115.842C94.4473 114.808 97.1525 115.604 99.8888 116.608C102.268 117.638 104.758 118.391 107.31 118.852C109.632 119.132 112.078 118.552 114.451 118.211C115.685 118.035 116.866 117.352 118.089 117.27C119.417 117.209 120.745 117.373 122.017 117.756C124.298 118.397 126.537 119.173 128.744 120.021C130.278 120.611 131.688 120.104 133.128 119.845C134.745 119.556 136.331 119.121 137.948 118.873C139.565 118.625 142.021 116.101 142.446 114.559C143.369 111.187 143.98 107.588 145.659 104.598C147.339 101.609 147.909 98.6296 149.173 95.7023C150.845 91.7948 153.357 88.3022 156.532 85.472C158.036 84.1486 159.969 83.4136 161.974 83.4032C163.394 83.3412 164.813 83.3101 166.223 83.1963C169.57 82.9078 172.941 83.3312 176.112 84.4385C179.284 85.5457 182.183 87.3118 184.62 89.62C187.54 92.1 189.997 95.0769 191.876 98.4124C192.441 99.45 193.074 100.449 193.773 101.402C196.986 105.943 197.027 110.577 194.177 115.253C192.933 117.321 191.399 119.183 190.135 121.221C189.166 122.766 188.327 124.389 187.626 126.072C187.055 127.551 185.979 128.782 184.589 129.548C183.388 130.258 182.46 131.351 181.957 132.651C181.418 133.779 180.651 134.792 180.008 135.879C179.853 136.147 179.635 136.561 179.739 136.768C179.846 136.891 179.981 136.987 180.132 137.048C180.283 137.109 180.447 137.134 180.609 137.12C181.546 137.033 182.46 136.788 183.315 136.396C185.489 135.098 187.924 134.296 190.445 134.048C194.343 133.624 196.934 135.651 197.421 139.437C197.496 139.873 197.724 140.269 198.064 140.554C199.204 141.506 200.447 142.344 201.598 143.285C202.069 143.707 202.654 143.983 203.28 144.078C203.906 144.174 204.546 144.085 205.122 143.823C208.553 142.467 212.268 141.983 215.932 142.416C219.037 142.89 222.048 143.846 224.856 145.25C225.447 145.559 226.136 145.622 226.774 145.426C231.181 142.96 236.303 142.076 241.285 142.923C243.658 143.295 246.042 143.637 248.426 143.957C251.307 144.288 254.189 144.588 257.091 144.754C257.835 144.688 258.533 144.362 259.06 143.833C259.719 143.144 260.299 142.384 260.791 141.568C262.407 139.274 264.832 137.674 267.58 137.089C269.135 136.685 270.472 135.434 271.881 134.544C272.979 133.716 274.136 132.969 275.343 132.31C276.432 131.776 277.645 131.546 278.854 131.642C280.064 131.738 281.225 132.159 282.215 132.858C282.923 133.46 283.471 134.228 283.811 135.092C283.933 135.516 284.192 135.888 284.549 136.148C284.906 136.408 285.339 136.543 285.78 136.53C288.517 136.53 289.667 137.792 289.657 140.668C289.657 141.123 289.657 141.588 289.605 142.044C289.528 142.398 289.584 142.768 289.764 143.083C289.944 143.398 290.234 143.636 290.579 143.75C291.241 144.061 291.793 144.564 292.162 145.194C292.532 145.823 292.703 146.55 292.652 147.278C292.541 148.527 292.847 149.778 293.523 150.836C294.321 152.015 293.989 153.432 293.523 154.715C292.254 158.125 290.509 161.339 288.34 164.263C287.817 165.114 287.048 165.789 286.135 166.198C285.222 166.608 284.206 166.734 283.22 166.559C281.147 166.238 279.074 166.083 277.001 165.649C274.763 165.162 272.565 164.511 270.389 163.818C266.657 162.649 263.299 163.756 260.211 165.638C256.438 167.945 252.872 170.583 249.151 172.983C246.711 174.628 244.17 176.121 241.544 177.451C239.523 178.343 237.409 179.009 235.242 179.437C230.547 180.472 225.758 180.472 220.98 180.565C217.705 180.637 214.44 181.165 211.175 181.516C209.506 181.692 207.838 181.93 206.169 182.127C201.505 182.685 196.841 183.161 192.176 183.844C190.531 184.201 188.946 184.793 187.471 185.602C184.558 187.019 181.708 188.592 178.816 190.05C177.78 190.588 176.64 190.992 175.551 191.447L175.199 190.94C178.464 187.485 181.884 184.144 184.527 180.172L184.299 179.913C183.955 180.146 183.629 180.405 183.325 180.689C181.252 182.861 179.217 185.04 177.22 187.226C174.111 190.609 170.131 192.884 166.337 195.388C162.363 198.12 158.094 200.396 153.609 202.173C147.755 204.533 141.725 206.432 135.575 207.852C131.429 208.701 127.283 209.352 123.137 210.138C121.735 210.4 120.351 210.745 118.991 211.173C116.379 212.011 113.809 212.88 111.197 213.831C110.31 214.268 109.454 214.766 108.637 215.321C105.848 216.821 102.739 217.11 99.6918 217.679C93.473 218.827 87.8242 216.996 82.248 214.576C79.3458 213.384 76.6081 211.826 74.1013 209.942C73.0648 209.166 71.904 208.701 70.8468 208.018C70.1759 207.554 69.529 207.057 68.9086 206.528L69.064 206.166C69.6755 206.249 70.2871 206.342 70.8986 206.414C73.2825 206.725 75.656 207.066 78.0399 207.294C78.6495 207.267 79.2511 207.145 79.8226 206.932V206.497C79.4374 206.347 79.0325 206.253 78.6203 206.218C75.0087 206.344 71.4125 205.688 68.0794 204.294C65.7961 203.325 63.6127 202.137 61.56 200.746C58.7718 198.956 56.0563 197.032 53.4133 195.036C52.4593 194.207 51.5943 193.282 50.8325 192.274C48.6559 189.781 45.7848 188.84 42.6132 188.478C41.9029 188.452 41.2182 188.206 40.6543 187.775C39.3441 186.487 38.1315 185.104 37.0266 183.637C36.5266 182.871 36.175 182.019 35.9901 181.123C35.9558 180.655 36.0122 180.184 36.156 179.737C36.5807 179.838 36.989 179.998 37.3687 180.213C39.4416 181.816 41.5146 183.451 43.5875 185.095C45.6604 186.74 47.4121 188.261 49.3607 189.802C50.4904 190.692 50.6666 190.619 51.3403 189.409L66.5039 162.204C66.9393 161.439 67.4057 160.704 67.8617 159.949C67.9537 159.825 68.0188 159.683 68.0531 159.532C68.0873 159.382 68.0899 159.226 68.0607 159.074C68.0315 158.923 67.9711 158.779 67.8833 158.651C67.7955 158.524 67.6823 158.417 67.5508 158.335L56.8855 149.998C56.2325 149.491 55.7246 149.74 55.1545 150.205C53.8693 151.239 52.5323 152.274 51.2367 153.308C48.5626 155.48 45.1318 155.884 42.1053 157.208C39.8977 158.17 37.6692 159.091 35.4304 159.99C35.2299 160.03 35.0421 160.118 34.8836 160.246C34.7252 160.375 34.601 160.541 34.5221 160.729C34.4432 160.918 34.412 161.122 34.4312 161.325C34.4505 161.528 34.5195 161.724 34.6324 161.894C35.6688 164.025 35.2542 166.031 34.4458 168.183C33.6218 170.36 32.9296 172.585 32.3728 174.844C32.3453 175.167 32.3938 175.491 32.5144 175.791C32.635 176.091 32.8244 176.358 33.0673 176.572C33.6938 176.952 34.2081 177.491 34.5577 178.135C34.9073 178.778 35.0797 179.502 35.0573 180.234C35.0772 181.385 35.3601 182.516 35.8846 183.542C36.4091 184.567 37.1613 185.459 38.0838 186.151C38.5894 186.6 38.9742 187.169 39.2032 187.806C39.5038 188.643 40.1568 188.571 40.7787 188.633C43.5053 188.778 46.1432 189.649 48.4175 191.157C49.3096 191.747 50.1006 192.477 50.7599 193.319C52.4812 195.717 54.6927 197.723 57.2482 199.205C60.1918 200.984 63.0525 202.898 65.9546 204.739C66.4314 205.039 66.9393 205.266 67.4264 205.535L67.2813 205.835ZM155.288 151.674L155.382 151.343C155.01 151.056 154.614 150.8 154.2 150.577C151.878 149.543 149.94 148.167 149.152 145.602C149.057 145.393 148.938 145.196 148.8 145.012C147.314 142.786 146.26 140.302 145.691 137.689C145.49 135.914 145.051 134.174 144.385 132.517C142.892 129.413 144.499 126.61 144.799 123.683C144.799 123.435 145.317 123.052 145.597 123.042C145.774 123.074 145.941 123.146 146.086 123.252C146.232 123.357 146.351 123.494 146.437 123.652C146.635 124.067 146.717 124.528 146.675 124.986C146.561 126.021 146.385 127.055 146.167 128.089C145.779 129.446 145.812 130.889 146.261 132.227C146.748 133.386 147.173 134.575 147.712 135.713C148.904 138.278 150.458 140.72 151.287 143.388C152.593 147.526 155.143 149.729 159.486 150.184C160.323 150.354 161.191 150.285 161.99 149.985C162.79 149.685 163.488 149.166 164.005 148.488C165.778 146.051 167.803 143.808 170.048 141.795C172.421 139.902 173.945 137.089 176.816 135.785C177.046 135.649 177.239 135.457 177.376 135.227C178.222 134.148 178.974 132.999 179.625 131.793C180.474 129.807 182.028 128.205 183.988 127.293C184.613 127.011 185.127 126.531 185.45 125.928C186.548 123.535 187.52 121.087 188.362 118.594C189.16 116.121 187.968 114.456 185.47 113.846C182.931 113.283 180.436 112.533 178.008 111.601C173.758 109.822 170.939 106.512 168.959 102.416C167.923 100.295 166.244 100.078 164.927 102.033C163.988 103.553 163.213 105.169 162.616 106.853C162.429 107.45 162.115 108 161.697 108.466C161.279 108.931 160.765 109.302 160.191 109.553C159.214 109.984 158.307 110.556 157.496 111.249C156.242 112.284 155.143 113.535 153.889 114.601C153.681 114.77 153.44 114.894 153.181 114.963C152.922 115.033 152.651 115.047 152.386 115.004C152.054 114.901 151.806 114.187 151.733 113.711C151.588 112.77 151.733 111.777 151.516 110.867C151.199 109.116 150.659 107.412 149.909 105.798C149.028 104.174 147.515 104.422 146.903 106.16C146.033 108.442 145.313 110.778 144.747 113.153C144.478 114.094 144.406 115.08 144.536 116.05C144.666 117.02 144.996 117.953 145.504 118.79C145.742 119.132 145.659 119.68 145.722 120.135C145.3 120.213 144.868 120.213 144.447 120.135C143.566 119.742 143.11 120.073 142.685 120.818C142.073 121.914 141.254 122.886 140.747 124.055C139.973 125.578 139.402 127.195 139.047 128.865C138.388 133.93 139.171 139.078 141.306 143.719C142.902 147.547 146.395 149.584 150.137 151.095C150.32 151.14 150.508 151.165 150.697 151.167C151.733 151.333 152.77 151.529 153.806 151.653C154.299 151.692 154.794 151.698 155.288 151.674V151.674ZM53.4236 192.564C55.2582 193.06 56.9373 193.536 58.606 193.971L67.1569 196.143L77.9362 198.853C78.3613 198.994 78.8244 198.965 79.2283 198.772C79.6323 198.579 79.9456 198.237 80.1025 197.819C85.1812 188.93 90.2737 180.034 95.3801 171.131C96.2922 169.528 96.1575 169.331 94.4784 168.679C87.0296 165.797 79.5946 162.883 72.1734 159.939C70.598 159.318 69.9658 159.577 69.1884 161.149C65.5607 168.555 61.9089 175.951 58.2329 183.337C56.7196 186.357 55.1131 189.336 53.4236 192.564ZM91.1513 117.135V117.58C91.5424 117.864 91.9508 118.123 92.3743 118.356C98.7653 121.413 103.784 126.739 106.45 133.293C108.015 136.965 108.885 140.916 110.067 144.754C111.86 150.577 113.829 156.442 117.975 161.015C122.753 166.187 128.06 170.914 133.16 175.806C133.377 176.013 133.885 175.931 134.196 175.982C134.196 175.6 134.352 175.113 134.196 174.844C133.331 173.359 132.336 171.954 131.221 170.645C128.869 168.193 126.329 165.918 123.883 163.559C121.917 161.567 120.373 159.199 119.343 156.598C119.072 155.829 118.847 155.045 118.67 154.25L118.981 154.146C120.148 157.231 121.932 160.047 124.225 162.421C126.08 164.294 128.029 166.073 130.029 167.79C131.838 169.278 133.37 171.07 134.559 173.086C134.79 173.65 135.105 174.177 135.492 174.648C135.957 174.905 136.467 175.07 136.995 175.134C137.088 174.7 137.368 174.203 137.254 173.841C136.062 169.972 134.901 166.083 133.564 162.266C131.408 156.153 129.003 150.112 126.951 143.968C125.352 139.388 125.076 134.452 126.153 129.724C126.516 128.203 127.189 126.755 127.614 125.266C128.402 122.824 127.801 121.573 125.541 120.869C123.648 120.29 121.745 119.742 119.831 119.225C119.278 119.07 118.702 119.018 118.131 119.069C115.636 119.338 113.142 119.656 110.647 120.021C110.205 120.164 109.789 120.377 109.414 120.652C109.663 121.014 109.87 121.407 110.15 121.738C111.452 123.115 112.661 124.576 113.767 126.114C116.586 130.675 117.156 135.868 117.581 141.061C117.82 143.916 117.965 146.771 118.151 149.626C118.151 149.864 118.151 150.091 118.151 150.329L117.83 150.391C117.642 149.886 117.493 149.367 117.384 148.84C116.915 144.592 116.465 140.34 116.037 136.085C115.655 132.303 114.425 128.655 112.44 125.41C111.207 123.342 109.87 121.407 107.476 120.528C104.252 119.349 101.06 118.025 97.7744 117.001C96.2147 116.648 94.6142 116.509 93.0169 116.587C92.371 116.675 91.7421 116.86 91.1513 117.135V117.135ZM179.417 147.195L179.034 146.967C179.448 146.316 179.853 145.664 180.288 145.023C181.252 143.606 182.309 142.25 183.18 140.771C184.05 139.292 183.553 138.578 181.967 138.371C181.604 138.252 181.228 138.176 180.848 138.144C179.811 138.247 178.402 138.082 177.738 138.671C175.126 140.875 172.421 143.047 171.001 146.347C170.504 147.485 169.675 148.478 169.073 149.584C168.472 150.691 168.13 151.56 167.695 152.563C167.303 153.789 166.8 154.977 166.192 156.111C162.88 161.149 158.933 165.742 154.449 169.776C153.008 171.038 151.723 172.455 150.375 173.81C150.207 174.082 150.064 174.37 149.95 174.669C151.267 174.481 152.566 174.19 153.837 173.8C157.112 172.507 160.398 171.224 163.528 169.662C166.658 168.1 169.799 166.052 172.908 164.149C178.257 160.849 182.807 156.804 185.595 151.001C186.769 148.368 188.595 146.076 190.902 144.34C192.176 143.44 193.379 142.426 194.612 141.475C195.135 141.17 195.539 140.697 195.757 140.133C195.976 139.569 195.996 138.948 195.814 138.371C195.348 137.006 194.498 135.651 192.943 135.568C190.972 135.489 188.997 135.628 187.056 135.982C186.31 136.106 185.74 137.016 184.983 137.451C184.227 137.885 183.947 138.237 184.372 139.064C184.532 139.449 184.554 139.876 184.434 140.275C183.466 143.016 181.724 145.42 179.417 147.195V147.195ZM35.4615 133.686C35.2201 133.234 34.9242 132.814 34.5805 132.434C33.6063 131.524 32.5594 130.686 31.5333 129.827C30.1755 128.669 29.9579 128.731 29.1494 130.344C26.154 136.354 23.169 142.375 20.1114 148.353C18.6188 151.27 17.0019 154.115 15.4265 157.011C15.3019 157.343 15.2319 157.692 15.2192 158.046C15.5627 158.099 15.9122 158.099 16.2557 158.046C16.7889 157.84 17.2912 157.561 17.7482 157.218C19.4816 156.011 21.1525 154.716 22.7544 153.339C24.3909 151.971 25.8343 150.388 27.0454 148.633C29.8749 144.03 32.4143 139.292 35.0573 134.617C35.2084 134.314 35.3433 134.003 35.4615 133.686ZM92.9444 164.883L93.0999 164.604C92.8434 164.263 92.5665 163.939 92.2707 163.632C89.0922 160.715 85.9136 157.811 82.7351 154.922C82.3868 154.519 81.9406 154.213 81.4395 154.032C77.8844 153.319 74.3293 152.667 70.7638 151.963C70.1316 151.85 69.489 151.777 68.8464 151.653C65.8764 151.04 63.1183 149.664 60.8448 147.66C60.4219 147.338 59.9393 147.103 59.4248 146.967C59.2072 146.895 58.8962 147.112 58.6267 147.195C58.6947 147.435 58.7885 147.668 58.9066 147.888C59.0562 148.062 59.235 148.209 59.4352 148.322C62.3477 150.557 65.2913 152.75 68.1727 155.015C70.4197 156.929 73.0325 158.368 75.8529 159.246C81.1804 160.746 86.3628 162.763 91.6073 164.552C92.0634 164.718 92.4883 164.78 92.9444 164.883ZM143.669 180.234C143.552 179.684 143.364 179.152 143.11 178.651C142.3 177.611 141.18 176.855 139.911 176.492C138.642 176.129 137.29 176.179 136.051 176.634C134.611 177.162 134.227 178.517 133.315 179.448C132.734 180.116 132.377 180.948 132.291 181.828C132.206 182.709 132.397 183.594 132.838 184.361C133.234 185.26 133.899 186.016 134.741 186.525C135.583 187.034 136.562 187.272 137.544 187.206C140.218 186.823 143.524 182.996 143.669 180.234ZM166.596 170.303L166.368 169.962L164.803 170.583C161.922 171.741 159.082 172.983 156.169 174.017C153.257 175.051 150.241 175.755 147.318 176.768C144.955 177.586 144.416 177.524 144.851 180.151C144.866 180.302 144.866 180.455 144.851 180.606C144.727 182.892 144.913 183.016 147.09 182.085H147.193C152.438 179.489 157.765 177.058 162.44 173.479C163.808 172.393 165.207 171.369 166.596 170.324V170.303ZM273.871 139.323C274.295 139.702 274.665 140.137 274.97 140.616C276.11 142.975 277.167 145.374 278.256 147.753C278.815 148.953 278.463 149.822 277.084 150.67C276.867 150.845 276.615 150.971 276.345 151.039C276.075 151.107 275.793 151.115 275.519 151.064C275.246 151.013 274.986 150.903 274.759 150.743C274.532 150.582 274.342 150.374 274.203 150.133C273.695 149.419 273.249 148.653 272.69 147.981C272.493 147.753 272.047 147.733 271.705 147.619C271.705 148.002 271.498 148.467 271.653 148.746C272.221 149.783 272.877 150.769 273.612 151.695C274.013 152.148 274.558 152.452 275.156 152.553C275.959 152.628 276.766 152.487 277.495 152.145C278.224 151.803 278.848 151.273 279.302 150.608C279.697 150.083 279.914 149.447 279.923 148.791C279.933 148.135 279.733 147.493 279.354 146.957C279.157 146.631 279.078 146.248 279.131 145.871C279.184 145.494 279.365 145.147 279.644 144.888C280.25 143.976 280.79 143.022 281.261 142.033L280.93 141.847C280.37 142.499 279.893 143.192 279.261 143.812C278.421 144.692 277.872 144.619 277.343 143.543C276.815 142.468 276.431 141.475 275.975 140.44C275.519 139.406 274.856 139.013 273.871 139.344V139.323ZM227.841 149.719C227.541 150.049 227.257 150.395 226.992 150.753C224.142 155.096 222.889 160.291 223.447 165.452C223.67 166.802 224.017 168.128 224.483 169.414C224.545 169.621 224.898 169.735 225.116 169.89C225.213 169.66 225.286 169.421 225.333 169.176C225.305 168.988 225.245 168.806 225.157 168.638C223.892 164.663 223.942 160.387 225.302 156.442C226.069 154.25 226.96 152.077 227.841 149.719ZM288.423 153.774L288.123 153.65C287.034 155.48 285.894 157.27 284.889 159.142C284.634 159.786 284.162 160.32 283.555 160.654C282.948 160.988 282.243 161.101 281.562 160.973C281.251 160.973 280.888 161.252 280.525 161.397C280.816 161.656 281.075 162.039 281.417 162.142C282.139 162.352 282.912 162.314 283.609 162.032C284.307 161.751 284.889 161.243 285.262 160.59C286.247 158.78 287.117 156.908 288.009 155.046C288.188 154.635 288.33 154.21 288.434 153.774H288.423ZM277.872 154.881C280.059 155.625 281.914 155.036 282.806 153.37C283.49 152.098 283.987 150.733 284.547 149.398C284.578 149.213 284.578 149.024 284.547 148.84C283.673 150.098 282.88 151.411 282.173 152.77C281.324 154.374 279.603 154.374 277.882 154.881H277.872ZM71.904 133.272C72.5051 137.12 74.9408 139.954 77.2936 142.84C76.4334 141.257 75.3969 139.737 74.4848 138.216C73.5727 136.696 72.7642 134.927 71.904 133.272ZM34.7256 129.062L34.5702 129.382C35.1316 130.245 36.0035 130.86 37.0059 131.1C37.2546 131.162 37.6278 130.8 37.8869 130.562C37.861 130.331 37.7457 130.119 37.5656 129.972C36.6328 129.631 35.6688 129.351 34.7256 129.062ZM56.305 142.809L56.5849 142.406L54.4497 141.175L54.2217 141.557C54.5638 142.55 55.4862 142.602 56.305 142.809ZM66.3588 135.568L65.9857 135.92L69.5097 138.951L66.3588 135.568Z" fill="black"/>
<path d="M272.939 139.023C273.913 138.692 274.566 139.023 275.012 140.058C275.457 141.092 275.862 142.127 276.359 143.161C276.857 144.195 277.396 144.289 278.256 143.43C278.836 142.809 279.355 142.137 279.904 141.485L280.236 141.671C279.769 142.654 279.232 143.601 278.629 144.506C278.351 144.766 278.172 145.114 278.121 145.491C278.07 145.867 278.151 146.25 278.349 146.575C278.717 147.105 278.909 147.737 278.9 148.383C278.89 149.028 278.68 149.654 278.297 150.174C277.845 150.838 277.22 151.367 276.49 151.705C275.76 152.042 274.951 152.174 274.151 152.088C273.558 151.996 273.018 151.695 272.628 151.24C271.9 150.33 271.255 149.357 270.7 148.333C270.544 148.064 270.7 147.599 270.7 147.226C271.032 147.34 271.477 147.361 271.664 147.588C272.213 148.25 272.7 148.995 273.156 149.657C273.292 149.896 273.478 150.102 273.702 150.261C273.926 150.421 274.182 150.53 274.452 150.581C274.722 150.633 275 150.625 275.267 150.558C275.533 150.491 275.782 150.367 275.996 150.195C277.354 149.378 277.696 148.509 277.157 147.319C276.121 144.971 275.032 142.613 273.913 140.275C273.643 139.818 273.315 139.398 272.939 139.023V139.023Z" fill="white"/>
<path d="M287.294 153.236C287.202 153.666 287.078 154.088 286.921 154.498C286.04 156.329 285.179 158.17 284.216 159.96C283.846 160.601 283.271 161.101 282.584 161.379C281.896 161.656 281.135 161.695 280.422 161.491C280.08 161.387 279.831 161.004 279.541 160.756C279.873 160.611 280.225 160.301 280.526 160.342C281.201 160.466 281.899 160.351 282.498 160.017C283.098 159.682 283.562 159.15 283.811 158.511C284.796 156.67 285.884 154.901 286.993 153.102L287.294 153.236Z" fill="white"/>
<path d="M276.898 154.374C278.598 153.825 280.288 153.846 281.148 152.305C281.847 150.966 282.626 149.671 283.48 148.426C283.511 148.611 283.511 148.799 283.48 148.984C282.92 150.298 282.444 151.643 281.759 152.894C280.878 154.487 279.054 155.067 276.898 154.374Z" fill="white"/>
</g>
<defs>
<clipPath id="clip0_219_35">
<rect width="289" height="135" fill="white" transform="translate(5 83)"/>
</clipPath>
</defs>
</svg>
