<svg width="300" height="300" viewBox="0 0 300 300" fill="none" xmlns="http://www.w3.org/2000/svg">
<g clip-path="url(#clip0_219_35)">
<path d="M189.44 102.692C189.063 100.24 189.353 97.7316 190.28 95.4306C190.472 95.6557 190.652 95.8911 190.82 96.1357C191.045 96.4808 191.225 96.8558 191.435 97.2158C191.78 96.9158 192.26 96.6908 192.455 96.3157C193.829 93.7505 194.443 90.8466 194.225 87.9447C194.213 87.638 194.126 87.3389 193.97 87.0746C193.663 86.6752 193.327 86.2991 192.965 85.9494C192.567 86.2986 192.21 86.6911 191.9 87.1196C191.555 87.7197 191.42 88.4548 191.075 89.0548C190.58 89.9399 189.86 89.8949 189.425 88.9798C189.11 88.3197 189.035 87.4796 188.659 86.8946C187.849 85.5294 186.889 84.2542 186.049 82.8891C185.468 82.0521 185.018 81.1314 184.714 80.1587C184.249 78.1635 184.114 76.0782 183.634 74.083C183.424 72.9005 182.769 71.8433 181.804 71.129C180.838 70.4146 179.636 70.0974 178.444 70.2425C176.902 70.3405 175.384 70.6744 173.944 71.2326C168.677 73.3955 162.851 73.7955 157.338 72.3728C156.629 72.1345 155.877 72.0488 155.133 72.1212C154.388 72.1936 153.667 72.4225 153.017 72.7928C151.983 73.3268 151.196 74.2408 150.821 75.3429C150.446 76.4451 150.513 77.6496 151.007 78.7036C151.495 79.686 151.761 80.7634 151.787 81.8598C151.813 82.9562 151.598 84.045 151.157 85.0493C150.403 87.3321 149.802 89.6625 149.357 92.0252C149.222 92.4753 148.877 93.1053 148.517 93.1803C148.157 93.2554 147.662 92.7753 147.332 92.4303C147.002 92.0852 146.867 91.5601 146.552 91.2301C146.235 90.9769 145.887 90.7652 145.517 90.6C145.352 90.9901 144.992 91.4251 145.082 91.7552C145.742 94.2305 146.357 96.7358 147.257 99.1211C147.348 99.418 147.503 99.6915 147.711 99.9222C147.919 100.153 148.175 100.336 148.46 100.457C148.746 100.578 149.055 100.636 149.366 100.625C149.676 100.615 149.98 100.537 150.257 100.396C151.142 100.036 151.412 100.816 151.577 101.431C152.007 102.771 152.343 104.14 152.582 105.527C153.218 109.048 154.95 112.277 157.533 114.753C159.708 117.033 162.033 119.149 164.343 121.309C165.993 122.884 168.003 123.064 170.223 123.334C176.659 124.069 179.704 119.734 182.809 115.488C185.119 112.308 187.114 108.917 189.47 105.647C189.227 106.842 188.86 108.009 188.374 109.127C187.099 111.333 187.714 113.628 187.684 115.953C187.684 116.253 188.239 116.748 188.629 116.853C191.889 117.933 194.906 119.64 197.51 121.879C199.556 123.303 201.737 124.524 204.02 125.524C205.313 125.943 206.418 126.803 207.141 127.955C207.606 128.93 208.476 128.69 209.316 128.6C215.451 127.865 221.601 128.255 226.597 131.99C231.892 135.951 236.902 140.481 239.512 146.992C240.209 149.032 241.358 150.889 242.873 152.423C243.237 152.803 243.683 153.095 244.177 153.277C244.67 153.459 245.199 153.526 245.723 153.473C248.354 153.026 251.02 152.815 253.688 152.843C267.099 153.923 278.335 162.429 279.715 176.651C280.04 180.277 280.125 183.92 279.97 187.557C279.85 191.022 277.54 193.258 274.869 195.058C273.089 196.201 271.053 196.886 268.944 197.053C266.734 197.334 264.541 197.735 262.374 198.253C260.217 198.789 257.97 198.855 255.785 198.446C253.601 198.037 251.53 197.163 249.713 195.883C249.189 195.642 248.633 195.475 248.063 195.388C247.91 195.954 247.799 196.531 247.733 197.113C247.733 197.908 247.823 198.703 247.808 199.484C247.854 200.766 247.529 202.034 246.872 203.136C246.214 204.237 245.253 205.126 244.103 205.694C240.436 207.595 236.438 208.771 232.327 209.16C230.227 209.385 229.987 209.61 230.182 211.695C230.675 220.413 230.484 229.155 229.612 237.843C229.357 241.459 228.892 245.074 228.427 248.69C228.187 250.64 227.632 251.15 225.652 251.03C220.401 250.7 215.156 250.305 209.916 249.845C203.63 249.305 197.315 248.87 191.075 248.014C185.839 247.279 180.664 246.034 175.474 245.014C172.527 244.293 169.507 243.911 166.473 243.874C164.298 243.874 162.108 243.559 159.918 243.454C157.398 243.349 157.083 243.094 156.243 240.739C154.155 234.449 151.202 228.481 147.467 223.006C144.345 218.714 140.769 214.771 136.802 211.245C131.941 206.849 127.201 202.244 123.901 196.468C122.536 194.083 121.411 191.548 120.136 189.102C119.811 188.626 119.434 188.188 119.01 187.797C118.719 188.268 118.482 188.772 118.305 189.297C113.805 207.66 102.795 220.411 84.8235 226.397C68.4126 231.873 52.9317 229.112 38.9659 218.896C29.9233 212.3 23.475 202.746 20.7399 191.893C19.8265 188.154 19.2789 184.336 19.1048 180.491C18.1297 165.384 23.695 152.798 34.3006 142.341C42.3384 134.312 52.9763 129.413 64.3024 128.525C71.2688 127.797 78.3103 128.567 84.9545 130.785C91.5986 133.002 97.6916 136.615 102.825 141.381C105.135 143.452 107.055 145.882 109.185 148.192C109.558 148.522 109.972 148.804 110.415 149.032C110.626 148.579 110.777 148.1 110.865 147.607C110.985 145.027 110.865 142.431 111.15 139.866C111.311 138.61 111.676 137.389 112.23 136.251C114 132.335 115.785 128.375 119.731 126.034C121.225 125.122 122.784 124.32 124.396 123.634C126.282 122.915 127.955 121.728 129.256 120.184C130.689 118.263 132.696 116.85 134.986 116.148C136.544 115.723 138.16 115.556 139.772 115.653C140.668 115.727 141.565 115.53 142.349 115.089C143.132 114.648 143.765 113.982 144.167 113.178C144.648 112.317 145.346 111.598 146.192 111.093C146.958 110.511 147.545 109.726 147.887 108.827C148.571 107.362 149.172 105.86 149.687 104.327C149.761 104.165 149.797 103.988 149.792 103.81C149.787 103.632 149.741 103.458 149.659 103.3C149.576 103.143 149.459 103.006 149.316 102.9C149.173 102.795 149.007 102.723 148.832 102.692C147.774 102.365 146.823 101.762 146.077 100.944C145.33 100.127 144.816 99.1242 144.587 98.041C144.017 95.7022 143.656 93.3176 143.507 90.9151C143.507 90.09 144.347 89.2199 144.782 88.3647C145.217 87.5096 145.682 87.0146 145.652 86.3695C145.442 82.694 144.962 79.0336 144.812 75.3581C144.692 72.1177 144.812 68.8773 144.992 65.6369C145.232 62.0815 147.647 60.2063 150.677 58.9461C151.344 58.7291 151.995 58.4685 152.627 58.166C153.572 57.641 153.933 56.9659 153.182 55.9157C152.432 54.8656 152.732 54.2355 154.053 54.0105C156.033 53.6655 158.028 53.4104 160.053 53.2154C162.078 53.0204 162.303 52.7353 162.018 50.7551C162.018 50.215 162.018 49.3599 162.348 49.1199C162.678 48.8799 163.488 49.1199 164.013 49.2699C165.288 49.75 166.503 50.365 167.748 50.8901C168.573 51.2202 169.248 51.1151 169.398 50.065C169.548 49.0149 170.283 48.9699 171.018 49.4949C174.469 52.0153 178.519 53.2454 182.404 54.8356C183.546 55.4013 184.593 56.1401 185.509 57.0259C186.499 57.881 187.234 59.0211 188.224 59.8762C190.692 62.0458 192.233 65.0797 192.53 68.3523C192.997 71.5172 193.053 74.7293 192.695 77.9085C192.617 79.653 192.748 81.4006 193.085 83.1141C193.133 83.4608 193.31 83.7767 193.58 83.9992C194.609 84.7423 195.391 85.7776 195.824 86.9707C196.258 88.1638 196.322 89.4597 196.01 90.69C195.609 92.9712 194.939 95.197 194.015 97.3209C193.595 98.311 192.29 98.9111 191.45 99.7362C191.013 100.18 190.644 100.685 190.355 101.236C190.153 101.719 190.002 102.222 189.905 102.737L189.44 102.692ZM68.6826 130.685C62.4976 130.687 56.3761 131.931 50.6816 134.345C32.0055 142.296 20.4998 159.894 21.0549 181.541C21.2994 187.692 22.8326 193.723 25.5551 199.243C30.6497 209.944 39.522 218.381 50.464 222.931C61.4061 227.482 73.6445 227.824 84.8235 223.892C101.009 218.071 111.24 206.534 115.65 189.912C116.88 186.232 117.097 182.289 116.28 178.496C115.437 175.309 115.153 171.999 115.44 168.715C115.521 167.594 115.409 166.467 115.11 165.384C112.244 155.311 106.147 146.459 97.7587 140.19C89.3702 133.92 79.1543 130.581 68.6826 130.685V130.685ZM220.191 172.765L220.371 172.24C221.379 172.323 222.381 172.468 223.371 172.675C228.934 174.119 233.753 177.599 236.872 182.426C240.591 187.865 245.581 192.314 251.408 195.388C251.947 195.678 252.522 195.894 253.118 196.033C253.282 196.059 253.45 196.05 253.611 196.006C253.771 195.962 253.92 195.884 254.048 195.778C254.091 195.622 254.097 195.458 254.065 195.299C254.034 195.141 253.967 194.991 253.868 194.863C253.302 194.252 252.69 193.685 252.038 193.168C250.043 191.668 247.973 190.167 246.038 188.667C242.626 185.726 239.602 182.364 237.037 178.661C233.182 173.47 227.722 171.325 221.421 171.04C220.819 170.986 220.218 171.163 219.741 171.535C219.622 171.696 219.471 171.831 219.299 171.933C219.126 172.034 218.935 172.1 218.736 172.127C218.538 172.154 218.336 172.14 218.143 172.087C217.949 172.035 217.769 171.944 217.611 171.82C215.394 170.607 213.268 169.233 211.251 167.71C207.921 164.874 204.845 161.709 201.605 158.708C200.105 157.373 200.105 157.013 201.98 156.458C206.901 154.958 211.806 153.458 216.786 152.363C218.977 151.767 221.264 151.608 223.516 151.897C225.768 152.185 227.942 152.914 229.912 154.043C231.142 154.778 232.522 155.288 233.812 155.918C237.189 157.754 241.044 158.523 244.868 158.123C245.427 158.011 246.003 158.011 246.563 158.123C249.207 158.645 251.684 159.806 253.776 161.506C255.868 163.206 257.512 165.393 258.564 167.875C260.739 172.975 259.419 177.836 256.718 182.306C255.377 184.09 253.871 185.742 252.218 187.242C251.468 188.082 250.718 188.997 250.058 189.867L250.463 190.422C251.335 190.159 252.183 189.823 252.998 189.417C256.396 187.391 259.032 184.301 260.499 180.626C264.549 171.025 260.499 162.789 253.223 158.693C251.978 157.988 250.433 157.808 249.233 157.043C247.6 156 245.676 155.506 243.743 155.633C240.925 155.705 238.13 155.114 235.582 153.908C234.082 153.203 232.507 152.603 231.082 151.763C226.432 149.062 221.466 148.972 216.411 150.022C210.847 151.067 205.455 152.88 200.39 155.408C199.703 155.769 198.949 155.985 198.174 156.041C197.4 156.098 196.623 155.995 195.89 155.738C192.974 154.954 190.007 154.377 187.009 154.013C184.009 153.593 180.889 153.503 177.829 153.308C176.734 153.308 175.924 152.828 175.804 151.673C175.429 148.087 173.404 145.342 171.304 142.671C170.999 142.317 170.662 141.99 170.298 141.696L170.043 141.936C170.613 143.107 171.258 144.262 171.724 145.477C172.556 147.343 173.199 149.288 173.644 151.283C174.259 154.898 174.649 155.453 178.324 155.783L179.119 155.858C182.824 156.263 186.544 156.533 190.205 157.163C194.823 157.756 199.113 159.867 202.4 163.164C204.395 165.249 206.616 167.124 208.656 169.165C211.717 172.154 215.551 174.232 219.726 175.165C220.574 175.251 221.429 175.251 222.276 175.165C221.706 174.49 221.421 174.115 221.091 173.785C220.761 173.455 220.491 173.08 220.146 172.765H220.191ZM118.8 130.07L119.086 130.445L120.586 129.665C126.07 126.903 132.117 125.445 138.257 125.404C142.949 125.549 147.589 126.445 151.997 128.06C154.83 128.696 157.504 129.9 159.858 131.6C163.638 134.826 168.168 136.176 172.879 137.151C173.378 137.197 173.88 137.197 174.379 137.151C174.376 136.948 174.346 136.746 174.289 136.551C174.117 136.301 173.932 136.06 173.734 135.831C170.618 131.894 166.695 128.671 162.228 126.379C161.67 126.028 161.164 125.599 160.728 125.104C160.297 124.611 159.831 124.15 159.333 123.724C153.636 119.921 147.017 117.728 140.177 117.378C138.451 117.204 136.711 117.488 135.131 118.202C133.55 118.916 132.186 120.034 131.176 121.444C129.628 123.468 127.552 125.025 125.176 125.944C123.529 126.658 121.944 127.506 120.436 128.48C119.832 128.946 119.283 129.479 118.8 130.07V130.07ZM131.716 177.386L131.596 177.671C131.956 177.896 132.286 178.166 132.646 178.346C134.146 179.051 135.646 179.846 137.147 180.431C140.534 181.791 143.641 183.764 146.312 186.252C151.882 191.387 158.552 195.179 165.813 197.338C172.46 199.185 179.349 200.01 186.244 199.784C190.147 199.708 194.035 200.281 197.75 201.479C202.753 203.132 207.978 204.012 213.246 204.089C214.746 204.089 216.141 204.089 217.581 203.924C218.136 203.797 218.671 203.595 219.171 203.324V202.769C218.163 202.476 217.136 202.255 216.096 202.109C210.096 201.599 203.96 201.104 198.095 199.108C194.652 197.894 191.02 197.305 187.369 197.368C184.624 197.368 181.849 197.248 179.089 197.128C168.11 196.874 157.539 192.92 149.087 185.907C144.416 182.055 138.981 179.237 133.141 177.641C132.673 177.52 132.197 177.435 131.716 177.386ZM204.515 134.48C204.515 133.13 204.515 131.765 204.515 130.415C204.562 129.93 204.438 129.444 204.164 129.041C203.89 128.638 203.484 128.344 203.015 128.21C199.559 126.807 196.395 124.772 193.685 122.209C192.275 121.035 190.735 120.028 189.095 119.209C187.744 118.473 187.294 118.774 187.039 120.244C186.889 121.069 186.829 121.894 186.709 122.719C186.61 123.172 186.667 123.646 186.872 124.063C187.076 124.48 187.415 124.815 187.834 125.014C188.93 125.659 189.98 126.379 191.09 126.995C193.062 128.018 194.797 129.446 196.18 131.186C197.563 132.926 198.563 134.938 199.115 137.091C199.264 137.856 199.609 138.569 200.117 139.161C200.624 139.753 201.277 140.203 202.01 140.466C203.405 141.066 203.93 140.886 204.11 139.341C204.29 137.796 204.41 136.101 204.515 134.48ZM191.675 140.481C190.625 140.766 189.05 141.096 187.564 141.651C186.439 142.056 186.244 142.881 186.949 143.842C187.471 144.61 188.103 145.297 188.825 145.882C191.805 148.065 195.329 149.383 199.01 149.692C200.395 149.825 201.791 149.635 203.09 149.137C204.965 148.432 205.28 147.052 204.035 145.492C202.79 143.932 201.29 142.266 198.89 142.311C198.671 142.316 198.457 142.253 198.275 142.131C196.475 140.691 194.3 140.916 191.675 140.496V140.481ZM199.835 179.606V179.006C199.353 178.813 198.849 178.677 198.335 178.601C195.005 178.601 191.675 178.601 188.359 178.766C186.483 178.899 184.622 179.19 182.794 179.636C182.064 179.738 181.394 180.096 180.903 180.645C180.411 181.194 180.13 181.9 180.109 182.636C180.082 184.083 180.382 185.518 180.987 186.832C181.593 188.147 182.487 189.307 183.604 190.227C183.604 190.227 183.754 190.227 183.934 190.107C183.784 189.762 183.634 189.417 183.499 189.057C182.912 187.731 182.411 186.368 181.999 184.977C181.459 182.696 182.104 181.751 184.429 181.466C187.894 181.031 191.39 180.791 194.93 180.401C196.535 180.236 198.185 179.906 199.835 179.621V179.606ZM199.01 207.84C198.56 208.035 198.305 208.065 198.2 208.2C197.314 209.224 196.525 210.329 195.845 211.5C192.32 218.851 192.515 226.667 193.22 234.513C193.317 234.888 193.48 235.244 193.7 235.563H194.075C194.273 234.825 194.413 234.072 194.495 233.313C194.63 230.822 194.66 228.317 194.75 225.812C194.975 220.006 195.5 214.275 198.68 209.16C198.843 208.735 198.954 208.291 199.01 207.84V207.84ZM170.508 168.835C163.458 170.59 157.398 174.28 150.272 175.856C153.332 177.386 168.918 171.895 170.598 168.835H170.508ZM178.384 124.999C179.338 125.214 180.327 125.228 181.287 125.042C182.247 124.857 183.159 124.474 183.964 123.919C184.833 122.044 185.055 119.933 184.594 117.918C182.195 119.942 180.129 122.332 178.474 124.999H178.384ZM166.593 149.167C167.553 154.058 168.483 158.843 169.458 163.809C170.718 161.919 168.573 151.508 166.593 149.167ZM163.953 122.884L164.238 122.524L160.998 119.689C160.971 120.095 161.028 120.502 161.164 120.886C161.3 121.27 161.513 121.622 161.789 121.921C162.066 122.22 162.4 122.46 162.772 122.625C163.144 122.791 163.546 122.879 163.953 122.884V122.884Z" fill="black"/>
<path d="M112.201 178.886C112.241 190.342 107.735 201.345 99.6718 209.481C91.6089 217.618 80.6475 222.223 69.1932 222.287C46.8419 222.287 25.6007 205.44 25.6907 177.836C25.7957 154.178 45.4018 135.711 68.6532 135.666C74.359 135.612 80.0188 136.691 85.3049 138.84C90.5909 140.989 95.3982 144.166 99.4484 148.185C103.499 152.205 106.711 156.988 108.9 162.258C111.089 167.528 112.211 173.18 112.201 178.886V178.886ZM69.1032 220.201C79.7714 219.761 89.8541 215.204 97.2341 207.487C104.614 199.771 108.718 189.494 108.683 178.816C108.648 168.138 104.477 157.889 97.0467 150.221C89.6164 142.553 79.5041 138.062 68.8332 137.691C47.1419 137.751 27.1308 154.523 27.5358 180.537C27.8658 202.739 46.8419 220.501 69.1032 220.201Z" fill="black"/>
<path d="M66.7178 179.816C66.7178 177.881 67.3028 176.816 68.6529 176.261C69.1213 176.081 69.5393 175.791 69.871 175.415C70.2028 175.039 70.4385 174.588 70.558 174.101C73.3482 166.29 76.1633 158.454 79.0035 150.593C79.2735 149.843 79.3785 148.477 80.5036 148.822C81.6286 149.168 81.0286 150.413 80.7436 151.208C78.0434 158.979 75.3083 166.745 72.5381 174.506C72.3132 175.061 72.2215 175.662 72.2702 176.259C72.319 176.857 72.5069 177.434 72.8188 177.946C73.1308 178.458 73.5583 178.889 74.067 179.206C74.5756 179.523 75.1514 179.717 75.7483 179.771C83.3537 181.016 91.0042 182.367 98.5046 183.672C99.5097 183.837 100.5 184.002 101.505 184.242C102.51 184.482 103.095 184.827 102.855 185.832C102.615 186.837 101.82 186.822 101.04 186.672C92.2392 184.922 83.4337 183.142 74.6232 181.331C74.1916 181.204 73.7375 181.172 73.2921 181.237C72.8467 181.301 72.4207 181.462 72.0431 181.707C71.4683 182.201 70.7396 182.48 69.9816 182.497C69.2236 182.513 68.4835 182.266 67.8878 181.797C67.3983 181.201 67.0037 180.533 66.7178 179.816V179.816Z" fill="black"/>
</g>
<defs>
<clipPath id="clip0_219_35">
<rect width="261" height="202" fill="white" transform="translate(19 49)"/>
</clipPath>
</defs>
</svg>
