<svg width="300" height="300" viewBox="0 0 300 300" fill="none" xmlns="http://www.w3.org/2000/svg">
<g clip-path="url(#clip0_219_35)">
<path d="M200.422 244.323C195.08 243.464 189.049 242.556 183.034 241.499C179.203 240.821 175.402 239.847 171.557 239.17C170.637 239.043 169.704 239.203 168.863 239.632C166.409 240.904 163.985 242.292 161.606 243.729C156.869 246.703 151.776 248.928 146.478 250.336C141.719 251.525 136.976 252.764 132.217 253.986C126.232 255.506 120.127 255.539 114.036 255.803C110.759 255.952 107.467 255.803 104.19 255.919C102.613 256.058 101.053 256.38 99.5365 256.877C95.0474 258.231 90.4535 258.71 86.0692 256.431C84.0715 255.491 82.2764 254.095 80.8013 252.336C79.3263 250.577 78.2046 248.494 77.5099 246.223C75.3233 239.309 72.4898 232.667 69.0554 226.402C66.8113 221.713 65.5002 216.549 65.2098 211.255C64.5916 203.869 65.4392 196.423 67.6937 189.435C69.3399 184.484 70.2298 179.265 70.3274 173.992C70.3274 167.252 70.896 160.464 73.4248 154.17C75.0108 149.857 77.5253 146.036 80.7506 143.037C83.9759 140.038 87.8148 137.952 91.9349 136.959C92.7738 136.672 93.5856 136.296 94.3591 135.836C94.9548 135.426 95.5865 135.083 96.2445 134.812C98.9379 134.168 101.048 132.334 103.352 130.848C104.897 130.019 106.486 129.296 108.111 128.684C109.682 127.941 111.268 127.214 112.779 126.305C114.367 125.402 115.871 124.328 117.268 123.101C118.359 122.091 119.267 120.864 119.947 119.484C121.914 114.673 123.07 109.506 123.359 104.238C123.347 103.897 123.255 103.566 123.093 103.277C122.93 102.987 122.702 102.749 122.431 102.586C121.215 102.079 120.142 101.227 119.32 100.117C118.498 99.006 117.955 97.6758 117.747 96.2599C117.266 94 116.99 91.6926 116.924 89.3721C116.924 88.3645 117.807 87.3735 118.271 86.3494C118.6 85.6226 119.169 84.8463 119.139 84.1195C118.944 80.1388 118.466 76.1746 118.331 72.1938C118.206 68.2676 118.261 64.3369 118.495 60.4168C118.72 56.7499 121.099 54.7678 123.882 53.3143C124.526 52.9839 125.229 52.8518 125.873 52.5214C127.369 51.7616 127.489 51.1835 126.74 49.6474C126.157 48.4581 126.621 47.8139 127.638 47.6157C129.733 47.3845 131.768 46.9715 133.833 46.7733C135.898 46.5751 136.183 46.2613 135.898 44.081C135.904 43.3945 135.99 42.7117 136.153 42.0493C136.73 42.0854 137.302 42.1906 137.859 42.3631C139.13 42.8917 140.342 43.5524 141.599 44.1305C142.512 44.5435 143.29 44.5765 143.44 43.1725C143.59 41.7685 144.263 41.9998 144.936 42.5448C148.785 45.2357 152.941 47.3466 157.296 48.8215C157.574 48.8889 157.835 49.0244 158.059 49.2179C161.366 52.9013 165.721 55.858 166.753 61.4244C167.251 65.1494 167.516 68.9077 167.546 72.6728C167.681 75.1835 167.636 77.7107 167.741 80.2214C167.758 80.478 167.821 80.7284 167.927 80.9581C168.032 81.1877 168.177 81.392 168.355 81.5593C169.342 82.3337 170.098 83.4147 170.527 84.6647C170.956 85.9147 171.038 87.2773 170.764 88.5793C170.385 91.2224 169.737 93.8099 168.833 96.2929C168.399 97.4822 167.008 98.209 166.155 99.2496C165.631 99.8773 164.928 100.687 164.913 101.43C164.823 105.394 164.913 109.375 164.913 113.356C164.979 113.814 165.009 114.279 165.003 114.743C164.479 117.898 166.125 119.517 168.444 120.458C170.683 121.351 172.966 122.101 175.283 122.705C177.926 123.302 180.375 124.671 182.376 126.669C183.047 127.339 183.845 127.835 184.713 128.121C185.58 128.406 186.494 128.475 187.388 128.32C191.084 128.04 194.78 127.974 198.476 128.007C200.566 128.116 202.552 129.047 204.073 130.633C204.631 131.174 205.29 131.575 206.003 131.806C215.774 134.498 221.715 141.716 224.992 151.775C226.848 157.49 226.623 163.519 226.683 169.466C226.736 174.813 227.844 180.083 229.93 184.91C230.798 186.802 231.514 188.776 232.07 190.806C232.69 193.458 233.159 196.15 233.477 198.867C233.746 201.014 233.686 203.195 233.896 205.358C234.389 210.561 232.953 215.368 231.606 220.224C230.484 224.62 228.615 228.74 226.099 232.365C225.71 232.91 225.815 233.884 225.68 234.66C225.665 235.459 225.502 236.246 225.202 236.973C224.404 238.226 223.376 239.28 222.185 240.065C220.994 240.851 219.666 241.351 218.288 241.532C214.907 241.994 211.54 242.638 208.158 243.184C205.839 243.58 203.519 243.943 200.422 244.323ZM165.856 96.9371C166.469 96.0782 167.098 95.5827 167.262 94.9385C167.906 92.3122 168.459 89.6529 168.923 86.9936C168.988 86.2121 168.847 85.4267 168.519 84.7307C168.416 84.4887 168.266 84.2747 168.08 84.1035C167.894 83.9323 167.676 83.8081 167.442 83.7396C167.202 83.7396 166.753 84.3177 166.544 84.7307C166.334 85.1436 166.26 85.8373 165.99 86.3824C165.624 86.9248 165.224 87.4381 164.793 87.9185C164.419 87.39 163.865 86.9275 163.701 86.2668C163.268 84.0836 162.245 82.0967 160.768 80.5682C160.198 80.0336 159.738 79.3712 159.418 78.625C159.098 77.8789 158.926 77.066 158.912 76.2406C158.748 74.2365 158.448 72.2489 158.015 70.2943C157.785 68.977 157.117 67.8021 156.143 67.0012C155.168 66.2002 153.956 65.8312 152.747 65.9667C151.262 66.1697 149.795 66.5123 148.363 66.9908C146.014 67.668 143.709 68.6426 141.33 69.0885C137.692 69.6014 133.997 69.3321 130.451 68.2957C129.56 68.025 128.616 68.0389 127.731 68.3359C126.846 68.6328 126.055 69.2007 125.451 69.9735C124.846 70.7464 124.452 71.6926 124.315 72.7025C124.178 73.7123 124.303 74.7444 124.675 75.679C125.011 76.4751 125.306 77.2912 125.558 78.1236C125.723 78.8502 125.723 79.6104 125.558 80.337C124.795 83.3597 123.942 86.3824 123.089 89.3721C122.835 90.264 122.446 91.0238 122.117 91.9488L120.366 90.0328C120.366 90.0328 120.366 89.9337 120.291 89.9007L119.094 88.9757C118.914 89.4547 118.51 90.0163 118.6 90.4127C119.304 93.2372 119.977 96.0947 120.92 98.8201C121.022 99.1149 121.179 99.3833 121.379 99.6089C121.579 99.8344 121.819 100.012 122.084 100.131C122.349 100.251 122.634 100.309 122.92 100.302C123.206 100.295 123.488 100.224 123.748 100.092C124.092 99.9598 124.795 100.422 125.109 100.835C125.424 101.248 125.394 101.892 125.543 102.487C126.396 105.493 126.785 108.797 128.222 111.406C130.267 114.67 132.571 117.726 135.105 120.541C135.509 121.053 136.347 121.135 137.006 121.4C138.203 121.895 139.43 122.292 140.582 122.886C141.465 123.349 142.228 124.075 143.081 124.538C144.665 125.348 146.424 125.648 148.155 125.402C149.887 125.157 151.52 124.376 152.867 123.15C155.995 120.095 157.85 116.048 160.229 112.414C161.691 110.318 162.612 107.823 162.893 105.196C163.147 102.124 163.746 99.0844 164.24 96.0452C164.455 95.4545 164.742 94.8989 165.092 94.3934L165.856 96.9371ZM214.832 199.974L215.146 199.362C214.777 198.763 214.356 198.204 213.889 197.694C209.998 193.994 205.674 191.302 200.422 191.219C197.848 191.219 195.259 191.418 192.685 191.583C191.608 191.583 190.92 191.384 190.576 190.113C190.287 189.131 189.868 188.201 189.334 187.354C187.9 184.902 187.213 182.009 187.373 179.095C187.552 175.058 188.273 171.072 189.513 167.269C191.446 161.644 194.124 156.368 197.459 151.61C197.662 151.279 197.842 150.931 197.998 150.57L197.668 150.272C197.184 150.632 196.724 151.029 196.292 151.462C190.356 157.966 186.362 166.316 184.845 175.395C184.036 180.665 184.066 185.851 187.703 190.162C189.034 191.715 188.825 192.26 186.88 192.689C180.759 194.027 174.639 195.382 168.519 196.654C162.609 198.013 156.479 197.637 150.742 195.563C144.606 193.19 138.075 192.322 131.604 193.02C126.86 193.581 122.177 194.671 117.463 195.613C115.622 195.96 115.383 195.877 115.189 193.813C114.696 187.464 112.183 181.513 108.096 177.014C106.689 175.025 105.503 172.857 104.564 170.556C104.28 170.011 104.085 169.416 103.831 168.904L103.412 169.02C103.38 169.91 103.466 170.8 103.666 171.663C104.463 174.236 105.549 176.688 106.899 178.963C109.854 183.145 111.671 188.17 112.136 193.449C112.859 198.516 112.153 203.705 110.116 208.315C109.82 209.135 109.317 209.845 108.668 210.36C108.018 210.875 107.248 211.174 106.45 211.222C101.243 211.891 96.3017 214.119 92.1594 217.664C91.7227 218.097 91.3221 218.572 90.9623 219.084L91.2765 219.481C92.6831 218.721 94.0897 217.829 95.5262 217.201C100.933 214.345 106.953 213.201 112.914 213.898C114.844 214.146 115.069 214.641 114.036 216.392C112.869 218.391 111.657 220.373 110.61 222.437C108.515 226.55 106.689 230.878 107.512 235.652C108.303 239.481 109.302 243.253 110.505 246.95C110.835 247.748 111.263 248.493 111.777 249.163L112.36 248.948C112.322 247.923 112.222 246.903 112.061 245.892C111.612 243.877 111.014 241.912 110.565 239.897C109.742 236.312 108.994 232.612 110.25 229.044C111.867 224.535 113.782 220.158 115.637 215.83C115.843 215.353 116.201 214.976 116.643 214.772C117.085 214.568 117.579 214.551 118.032 214.724C121.492 215.396 124.907 216.328 128.252 217.515C132.651 219.382 136.796 221.975 141.091 224.122C144.966 226.071 148.902 227.888 152.837 229.722C153.458 229.892 154.098 229.969 154.738 229.953L154.977 229.276C153.794 228.25 152.555 227.307 151.266 226.451C146.388 223.577 141.45 220.786 136.542 217.978C131.915 215.204 126.928 213.238 121.758 212.147C118.989 211.618 116.191 211.272 113.393 210.875C112.286 210.727 111.897 210.082 112.525 209.091C114.428 205.914 115.429 202.181 115.398 198.371C115.398 197.265 115.937 196.72 117.014 196.72C119.633 196.588 122.251 196.422 124.855 196.059C133.264 194.868 141.807 195.713 149.889 198.537C152.119 199.329 154.393 199.958 156.698 200.42C161.89 201.411 166.978 200.139 172.066 199.247C174.131 198.883 174.49 199.082 175.537 201.097C177.376 204.887 177.867 209.299 176.914 213.468C176.27 217.119 175.298 220.703 174.579 224.337C174.313 225.977 174.124 227.631 174.011 229.292L174.564 229.474C174.989 228.899 175.369 228.285 175.702 227.64C177.984 222.514 179.433 216.985 179.981 211.305C180.476 207.406 179.562 203.449 177.437 200.287C176.51 198.916 176.719 198.322 178.246 197.958C181.238 197.215 184.231 196.488 187.328 195.811C195.678 193.912 203.893 193.053 211.48 198.834C212.54 199.41 213.668 199.816 214.832 200.04V199.974ZM166.948 143.335L166.394 142.938C166.482 142.17 166.653 141.416 166.903 140.692C169.237 135.968 170.898 130.699 175.372 127.61C175.639 127.393 175.854 127.109 175.999 126.781C176.145 126.454 176.218 126.092 176.21 125.727C176.076 125.182 175.238 124.703 174.624 124.505C173.502 124.175 172.305 124.158 171.183 123.844C169.237 123.299 168.938 123.629 168.699 125.76C168.599 128.755 168.094 131.717 167.202 134.548C165.481 138.557 163.406 142.369 161.007 145.928C158.912 149.232 158.643 149.017 161.112 152.023C161.397 152.335 161.736 152.581 162.109 152.746C162.482 152.91 162.88 152.99 163.282 152.981C166.735 152.589 170.088 151.468 173.158 149.678C177.505 146.863 181.59 143.582 185.353 139.883C187.617 138.011 190.02 136.353 192.536 134.927C194.481 133.738 196.606 132.896 198.626 131.855C198.955 131.69 199.359 131.228 199.359 130.897C199.33 130.681 199.252 130.477 199.131 130.303C199.011 130.13 198.852 129.993 198.671 129.906C197.87 129.649 197.036 129.538 196.202 129.576C194.331 129.724 192.476 130.137 190.606 130.237C186.91 130.333 183.39 131.995 180.774 134.878C179.532 136.282 178.425 137.818 177.228 139.288C176.375 140.329 175.477 141.32 174.609 142.344L174.235 141.98C174.532 141.195 174.888 140.438 175.298 139.718C177.393 136.546 179.547 133.424 181.642 130.27C181.942 129.824 182.271 129.047 182.106 128.618C181.942 128.188 181.238 127.908 180.729 127.808C180.22 127.786 179.711 127.876 179.233 128.073C177.819 128.577 176.513 129.396 175.396 130.478C174.28 131.56 173.375 132.883 172.739 134.366C171.587 136.612 170.449 138.892 169.178 141.056C168.527 141.921 167.794 142.707 166.993 143.401L166.948 143.335ZM149.291 148.175C144.128 148.307 141.45 150.14 139.235 155.079C138.322 156.79 138.028 158.818 138.414 160.758C138.8 162.697 139.836 164.404 141.315 165.535C146.807 169.713 156.458 167.087 159.571 160.579C159.957 159.831 160.18 158.993 160.222 158.133C160.264 157.273 160.123 156.414 159.81 155.624C158.883 153.419 157.405 151.553 155.549 150.245C153.693 148.937 151.538 148.241 149.336 148.241L149.291 148.175ZM133.13 151.957L137.185 151.66C138.023 151.66 138.831 151.445 138.996 150.338C139.16 149.232 138.248 149 137.574 148.786C133.306 147.362 129.442 144.751 126.351 141.204C125.73 140.445 124.941 139.876 124.062 139.552C120.247 138.466 116.663 136.564 113.513 133.953C109.966 131.31 106.031 130.55 102.065 133.953C101.676 134.283 101.287 135.39 101.467 135.605C102.277 136.761 103.246 137.77 104.34 138.594C107.767 140.923 111.448 142.839 114.814 145.367C120.173 149.608 126.582 151.932 133.175 152.023L133.13 151.957ZM125.154 111.803C122.521 114.66 123.164 121.102 126.755 123.134C131.035 125.546 135.569 127.412 140.043 129.345C143.245 130.749 146.642 129.89 149.949 129.923C150.838 129.92 151.715 129.688 152.508 129.245C155.725 127.495 158.897 125.612 162.1 123.828C162.555 123.618 162.932 123.244 163.168 122.767C163.405 122.289 163.487 121.737 163.402 121.201C163.269 119.66 163.309 118.107 163.521 116.576C163.689 114.707 163.447 112.821 162.818 111.076C161.457 111.786 160.388 113.037 159.825 114.578C158.634 117.893 156.888 120.93 154.678 123.53C154.289 124.092 154.064 124.802 153.675 125.364C153.301 126.082 152.791 126.702 152.179 127.181C148.752 128.833 145.161 128.502 141.584 127.825C141.184 127.695 140.823 127.45 140.537 127.115C139.145 125.793 137.814 124.422 136.422 123.117C132.442 119.451 128.297 116.197 125.154 111.803ZM121.533 134.927C121.428 134.399 121.413 134.3 121.383 134.201C120.254 131.75 119.67 129.038 119.678 126.289C119.678 125.43 119.049 124.835 118.331 125.265C116.596 126.267 114.93 127.41 113.348 128.684C112.36 129.526 112.66 130.567 113.797 131.261C114.934 131.954 116.326 132.912 117.598 133.606C118.481 134.185 119.395 134.704 120.336 135.159C120.65 135.175 121.129 134.927 121.533 134.795V134.927ZM151.191 188.263H151.79C152.098 187.306 152.309 186.314 152.418 185.306C152.493 182.564 152.493 179.822 152.418 177.047C152.286 175.045 152.041 173.053 151.685 171.084C151.595 170.605 151.012 170.225 150.652 169.796C150.413 170.292 149.964 170.787 149.979 171.283C150.099 175.974 150.283 180.659 150.533 185.339C150.656 186.337 150.877 187.317 151.191 188.263V188.263ZM213.141 176.106C213.784 179.409 214.413 182.713 215.101 186.231C217.031 183.588 215.43 176.75 213.141 176.106ZM84.3034 189.683C82.1038 191.93 81.7596 197.942 83.645 200.304L84.3034 189.683Z" fill="black"/>
</g>
<defs>
<clipPath id="clip0_219_35">
<rect width="169" height="216" fill="white" transform="translate(65 42)"/>
</clipPath>
</defs>
</svg>
