<svg width="300" height="300" viewBox="0 0 300 300" fill="none" xmlns="http://www.w3.org/2000/svg">
<g clip-path="url(#clip0_219_35)">
<path d="M171.284 218.615C170.89 217.588 170.576 216.532 170.344 215.456C170.156 213.93 170.053 212.393 170.036 210.855C170.036 209.602 169.438 209.138 168.326 209.516C159.776 212.126 150.902 211.439 142.113 211.233C139.804 211.233 137.496 211.113 135.273 210.872C132.28 210.58 129.305 210.1 126.313 209.722C124.038 209.447 121.764 209.241 119.473 208.949C118.761 208.856 118.065 208.665 117.404 208.383C116.156 207.834 115.591 208.383 115.403 209.533C115.314 210.492 115.137 211.44 114.873 212.366C114.702 212.898 114.104 213.276 113.693 213.722C113.488 213.19 113.078 212.658 113.112 212.126C113.3 209.156 113.693 206.203 113.83 203.232C114.236 198.9 113.542 194.535 111.812 190.545C110.124 187.192 107.753 184.232 104.853 181.858C102.254 179.643 99.7229 177.325 97.1922 174.99C96.6108 174.475 96.6279 174.046 97.1922 173.583C97.4451 173.357 97.7269 173.167 98.0301 173.016C103.297 170.475 106.751 166.046 110 161.462C113.069 157.309 115.077 152.463 115.848 147.349C115.915 146.835 115.838 146.311 115.625 145.839C115.318 146.955 115.044 148.105 114.702 149.272C112.863 154.649 109.994 159.613 106.255 163.883C103.683 167.059 100.553 169.735 97.0212 171.78C95.5899 172.718 94.2853 173.837 93.1396 175.111C92.2504 175.986 91.6691 175.986 90.7286 175.111C89.1383 173.754 87.3087 172.587 85.7184 171.334L85.3764 171.694C85.779 172.291 86.2496 172.838 86.7786 173.325C89.942 175.66 91.4981 179.197 93.6184 182.356C95.4491 184.888 96.6243 187.838 97.0383 190.94C97.4145 195.438 97.4145 199.953 97.8933 204.434C98.4747 209.877 99.227 215.302 100.253 220.675C100.825 222.533 101.716 224.277 102.886 225.826C103.258 226.431 103.803 226.909 104.45 227.197C105.097 227.485 105.816 227.57 106.511 227.44C109.076 227.131 111.641 226.942 114.189 226.427C115.497 226.126 116.858 226.15 118.154 226.497C119.45 226.844 120.643 227.504 121.627 228.418C123.047 229.655 124.654 230.667 125.954 232.007C127.169 233.209 128.175 234.608 128.929 236.144C129.242 237.263 129.283 238.44 129.049 239.578C128.929 241.449 128.672 243.303 128.484 245.158C128.296 247.012 128.228 248.711 127.937 250.463C127.486 252.861 126.117 254.988 124.124 256.386C121.05 258.752 117.574 260.538 113.864 261.656C113.163 261.921 112.4 261.972 111.671 261.805C110.941 261.637 110.276 261.257 109.76 260.712L98.0643 248.814C97.5755 248.196 96.9994 247.652 96.3543 247.201C94.1827 246.085 93.1396 244.024 91.7717 242.17C90.2901 240.334 88.6724 238.612 86.9325 237.02C79.4258 229.689 72.7057 221.74 68.7386 211.885C67.6101 209.671 66.2592 207.456 65.4042 205.052C64.6348 203.026 63.9679 200.949 63.0445 199.009C61.8989 196.64 60.4796 194.425 59.2484 192.142C58.238 190.442 57.3687 188.662 56.6493 186.819C56.0317 184.88 55.8648 182.823 56.1612 180.809C56.4576 178.794 57.2095 176.874 58.3593 175.196C61.4142 169.916 63.9237 164.336 65.8488 158.543C67.3746 153.821 68.1141 148.879 68.0376 143.916C67.9941 141.578 68.4266 139.256 69.3087 137.092C70.1908 134.928 71.5039 132.968 73.1674 131.331C74.1471 130.388 74.9055 129.238 75.3875 127.964C75.8696 126.69 76.0633 125.324 75.9546 123.966C75.9261 120.607 76.1893 117.253 76.7412 113.94C77.562 109.39 80.315 105.853 83.3587 102.523C85.4809 100.027 88.08 97.9838 91.0022 96.5138C93.6551 95.1603 96.0237 93.3068 97.9788 91.0543C101.399 87.4146 105.537 85.1999 110.667 85.9038C116.566 86.642 120.311 82.4701 121.935 77.5943C123.618 72.4275 124.28 66.9805 123.884 61.559C123.652 58.732 123.987 55.887 124.868 53.1919C125.749 50.4968 127.159 48.0062 129.014 45.8671C131.613 42.794 134.657 40.4934 138.881 40.4591C140.507 40.3526 142.105 39.9875 143.617 39.3775C145.884 38.7929 148.276 38.937 150.457 39.7895C154.475 40.9226 158.374 42.5365 162.324 43.9786C162.971 44.2866 163.594 44.6424 164.188 45.043C165.898 46.0731 167.146 47.687 169.318 48.0647C169.9 48.1761 170.45 48.4175 170.926 48.7712C171.403 49.1248 171.794 49.5816 172.071 50.1077C172.397 51.0725 172.466 52.1063 172.271 53.1063C172.076 54.1063 171.624 55.0376 170.959 55.8076C170.002 56.9407 168.822 57.885 167.864 59.0009C167.42 59.5207 167.156 60.1715 167.112 60.8551C167.112 63.6536 167.112 66.4348 167.112 69.2333C167.195 69.8331 167.071 70.4434 166.759 70.9622C166.448 71.4809 165.969 71.8767 165.402 72.0832C164.897 72.2582 164.465 72.5991 164.177 73.0508C163.888 73.5025 163.76 74.0386 163.812 74.5726C163.812 76.444 163.812 78.3325 164.034 80.1867C164.256 82.4358 163.641 83.3285 161.418 83.1568C160.101 83.1568 159.708 83.586 159.383 84.7707C159.066 85.5287 158.621 86.2257 158.066 86.8309C157.861 87.1227 157.673 87.4318 157.485 87.7408C157.297 88.0498 156.852 88.6507 156.562 89.1143C155.915 89.8846 155.406 90.7617 155.057 91.7067C155.05 92.2546 154.936 92.7957 154.721 93.2993C154.506 93.8029 154.194 94.2591 153.804 94.6417C153.413 95.0243 152.951 95.3259 152.444 95.5293C151.938 95.7327 151.396 95.8339 150.85 95.8271C150.497 95.9104 150.153 96.0313 149.824 96.1876C150.867 97.0632 151.74 97.7671 152.56 98.5054C154.408 100.009 156.166 101.62 157.827 103.33C161.168 106.719 165.059 109.512 169.335 111.588C173.659 113.755 177.389 116.951 180.2 120.899C183.01 124.846 184.816 129.424 185.46 134.233C185.804 136.502 185.678 138.819 185.089 141.038C184.501 143.256 183.463 145.329 182.04 147.126C181.421 147.812 180.998 148.652 180.815 149.558C180.631 150.464 180.694 151.403 180.997 152.277C181.476 153.788 181.749 155.35 182.194 156.878C183.108 160.445 182.782 164.218 181.27 167.574C179.56 172.106 177.85 176.673 176.346 181.308C176.151 182.455 176.227 183.631 176.568 184.742C176.858 185.848 177.224 186.932 177.662 187.987C177.695 188.171 177.765 188.346 177.868 188.502C182.315 194.52 187.375 200.055 192.966 205.018C193.286 205.412 193.74 205.671 194.241 205.744C194.741 205.817 195.25 205.699 195.668 205.413C197.625 204.228 199.832 203.523 202.111 203.356C204.39 203.189 206.676 203.564 208.783 204.451C210.531 205.013 212.244 205.678 213.913 206.443C214.395 206.604 214.841 206.859 215.224 207.193C215.608 207.527 215.922 207.933 216.149 208.389C216.377 208.845 216.512 209.342 216.548 209.85C216.584 210.359 216.519 210.869 216.359 211.353C216.284 211.569 216.253 211.798 216.268 212.027C216.283 212.255 216.343 212.479 216.445 212.683C216.547 212.888 216.688 213.07 216.862 213.219C217.035 213.368 217.236 213.481 217.453 213.551C218.45 213.924 219.269 214.663 219.745 215.619C220.221 216.575 220.319 217.676 220.018 218.701C219.867 220.711 219.517 222.701 218.975 224.641C218.354 226.03 217.297 227.176 215.965 227.903C213.024 229.483 209.861 230.65 206.817 232.024C206.024 232.346 205.262 232.743 204.543 233.208C203.834 233.748 202.999 234.093 202.117 234.211C201.236 234.328 200.339 234.213 199.516 233.878C194.676 231.972 190.384 229.466 187.751 224.693C186.988 223.268 185.915 222.033 184.613 221.079C183.311 220.125 181.812 219.477 180.227 219.182C177.84 218.841 175.595 217.836 173.747 216.28C173.028 215.611 172.55 215.937 172.379 216.847C172.276 217.431 172.139 218.014 172.02 218.564L171.284 218.615ZM145.977 94.0931V93.6295C147.208 93.7514 148.431 93.9521 149.636 94.2304C152.201 94.9858 153.056 94.5223 153.774 91.9127C154.034 90.3956 154.821 89.0204 155.997 88.0326C156.98 87.1499 157.726 86.0344 158.169 84.7878C158.819 83.071 159.554 82.0752 161.589 82.2641C162.803 82.3843 163.299 81.5258 163.196 80.4442C162.957 78.7274 162.837 77.0106 162.615 75.2937C162.478 74.4072 162.63 73.5001 163.05 72.7079C163.469 71.9157 164.132 71.2809 164.94 70.8986C165.199 70.7218 165.415 70.4903 165.575 70.2204C165.734 69.9504 165.833 69.6487 165.864 69.3363C165.864 66.8812 165.864 64.4261 165.864 61.9882C165.911 61.3906 165.802 60.7908 165.547 60.2486C165.292 59.7065 164.9 59.2408 164.41 58.8979C162.803 57.7133 161.144 56.563 159.503 55.4642C159.343 55.3611 159.161 55.2964 158.973 55.2754C157.641 55.0747 156.279 55.298 155.08 55.9138C153.881 56.5297 152.904 57.5072 152.287 58.7091C151.554 59.6828 150.636 60.4999 149.585 61.1126C148.897 61.4443 148.189 61.7311 147.465 61.9711C146.568 62.3249 145.78 62.9094 145.18 63.6658C144.58 64.4222 144.188 65.3239 144.045 66.2803C143.792 67.7406 143.397 69.1725 142.865 70.5552C142.523 71.6025 141.753 71.6025 140.916 71.0875C140.47 70.8007 140.112 70.3952 139.883 69.9162C139.653 69.4372 139.561 68.9035 139.616 68.3749C139.713 67.0945 139.376 65.8188 138.658 64.7557C137.941 63.6925 136.886 62.9047 135.666 62.5204C134.195 62.0054 133.58 62.2114 132.879 63.6021C132.287 64.8713 132.019 66.2679 132.096 67.667C132.174 69.0662 132.595 70.4242 133.323 71.6197C133.576 72.2945 134.057 72.8585 134.683 73.2131C135.308 73.5678 136.037 73.6905 136.743 73.5597C136.931 73.5597 137.137 73.7314 137.342 73.8172V74.2464C136.864 74.4796 136.349 74.625 135.82 74.6757C132.52 74.2808 132.058 71.3622 130.981 68.7354C130.736 69.1519 130.443 69.538 130.109 69.8857C129.021 70.9968 127.763 71.9243 126.381 72.6326C125.815 72.7622 125.298 73.0504 124.889 73.4638C124.481 73.8772 124.197 74.3987 124.073 74.9675C123.84 76.0897 123.519 77.1918 123.115 78.2638C122.004 80.8391 121.2 83.6375 118.515 85.1312C118.34 85.3218 118.216 85.5546 118.156 85.8073C118.096 86.0599 118.102 86.3237 118.173 86.5733C118.632 87.2472 119.212 87.8294 119.883 88.2902C121.405 89.5091 123.047 90.6079 124.517 91.8784C127.852 94.7626 131.083 97.7671 134.435 100.634C137.927 103.495 142.347 104.962 146.849 104.755C148.337 104.755 148.662 104.343 148.32 102.9C147.937 101.619 147.835 100.27 148.021 98.9449C148.207 97.6202 148.677 96.3516 149.397 95.2262L145.977 94.0931ZM122.585 102.368L122.38 102.9C121.234 102.643 120.037 102.454 118.96 102.094C114.446 100.669 109.931 99.1921 105.434 97.7156C102.142 96.5179 98.573 96.3137 95.1668 97.1282C91.7606 97.9428 88.6664 99.7404 86.2656 102.3C84.0366 104.538 82.0636 107.02 80.3834 109.699C78.075 113.236 78.0066 117.425 77.7159 121.511C77.6304 122.593 78.246 123.005 79.1009 122.284C79.6632 121.809 80.0687 121.175 80.2637 120.464C81.6146 114.644 84.0769 109.682 89.5829 106.609C95.8527 102.824 103.275 101.446 110.478 102.729C116.19 103.958 121.821 105.541 127.339 107.467C131.585 108.839 136.067 109.318 140.505 108.875C141.669 108.671 142.813 108.366 143.925 107.965V107.364C143.361 107.21 142.797 107.055 142.215 106.849C139.81 106.194 137.469 105.321 135.221 104.24C131.603 102.148 128.341 99.4873 125.56 96.3593C122.762 93.3265 119.643 90.6092 116.258 88.2558C115.878 87.9736 115.429 87.8014 114.959 87.758C113.061 87.6549 111.145 87.6206 109.23 87.6378C108.647 87.7221 108.074 87.866 107.52 88.067L107.435 88.6164C112.89 89.492 116.72 92.7711 120.02 96.9087C119.432 97.0351 118.818 96.9241 118.31 96.5997C116.874 95.6554 115.574 94.4193 114.138 93.475C112.569 92.3799 110.903 91.4316 109.162 90.6422C107.313 89.7506 105.209 89.5459 103.224 90.0645C101.24 90.5832 99.502 91.7916 98.3208 93.475C98.118 93.8741 97.9795 94.3029 97.9104 94.7455C98.291 94.896 98.6865 95.0053 99.0902 95.0717C100.044 95.0514 100.997 95.0915 101.946 95.1919C108.692 96.4152 115.251 98.516 121.456 101.441C121.867 101.706 122.245 102.017 122.585 102.368V102.368ZM125.338 139.761L125.081 140.19C126.791 141.546 128.501 142.851 130.023 144.259C132.225 146.132 134.83 147.466 137.632 148.156C144.534 149.994 151.665 150.815 158.802 150.594C161.945 150.377 165.067 149.912 168.138 149.204C168.907 149.049 169.557 148.294 170.258 147.796C169.472 146.714 168.548 147.401 167.659 147.624C164.289 148.565 160.792 148.965 157.297 148.809C153.227 148.568 149.158 148.482 145.122 147.95C139.377 147.161 133.683 146.027 129.083 142.01C127.915 141.133 126.66 140.379 125.338 139.761V139.761ZM159.417 115.519C160.836 115.519 161.384 114.798 160.836 113.511C160.633 113.026 160.35 112.579 159.999 112.189C158.076 110.01 155.513 108.501 152.68 107.879C152.218 107.776 151.432 107.879 151.244 108.085C151.137 108.335 151.083 108.604 151.083 108.875C151.083 109.147 151.137 109.415 151.244 109.665C152.08 111.195 153.249 112.516 154.664 113.53C156.079 114.543 157.704 115.223 159.417 115.519V115.519ZM69.2345 207.13C76.0743 198.545 85.3251 195.421 95.7216 194.425C94.4734 192.897 89.9078 193.12 85.4619 194.631C76.7412 197.515 69.4568 203.009 69.2345 207.13ZM153.467 198.46L154.014 198.545C156.237 187.077 157.126 175.111 165.47 165.771C164.912 165.987 164.413 166.334 164.017 166.784C161.158 169.774 158.931 173.313 157.468 177.188C154.869 183.609 154.253 190.476 153.347 197.275C153.337 197.673 153.377 198.071 153.467 198.46V198.46ZM107.298 138.868C107.298 138.868 107.298 138.868 107.418 138.868C107.65 138.902 107.886 138.902 108.119 138.868C114.266 137.491 120.078 134.899 125.218 131.245C125.564 130.888 125.857 130.483 126.09 130.044L125.8 129.803L107.298 138.868ZM80.2808 124.842L79.9388 125.013C79.9396 125.784 80.0373 126.551 80.2295 127.297C81.2384 129.975 82.2472 132.67 83.4442 135.263C84.7905 138.241 87.2461 140.571 90.284 141.752C90.764 141.886 91.2571 141.967 91.7546 141.993L92.2333 141.392C85.0687 138.096 82.5721 131.572 80.2808 124.842ZM174.584 141.821L175.046 141.649C174.67 135.229 170.908 130.387 167.163 125.511L174.584 141.821ZM67.0629 168.484C66.0848 168.995 65.2368 169.726 64.5846 170.619C63.9323 171.512 63.4932 172.544 63.301 173.634C63.0214 175.249 63.11 176.907 63.5602 178.483C64.0103 180.059 64.8104 181.512 65.9001 182.733C65.6411 181.34 65.2576 179.972 64.7545 178.647C64.0563 177.084 63.846 175.345 64.1512 173.66C64.4564 171.974 65.2629 170.421 66.4644 169.205C66.6782 168.977 66.878 168.736 67.0629 168.484V168.484ZM169.933 197.945L176.004 189.069C173.456 189.807 169.728 194.837 169.933 197.945Z" fill="black"/>
<path d="M204.851 103.33C203.971 103.065 203.202 102.519 202.659 101.776C202.116 101.032 201.829 100.131 201.841 99.2095C201.818 98.1961 201.558 97.2024 201.083 96.308C200.608 95.4136 199.931 94.6433 199.106 94.059C196.763 92.3421 196.541 91.1404 197.618 88.3934C197.968 87.6076 198.15 86.7564 198.15 85.8954C198.15 85.0345 197.968 84.1832 197.618 83.3974C197.17 82.5034 197.06 81.4768 197.309 80.5077C197.557 79.5386 198.147 78.6927 198.969 78.1267C199.703 77.5457 200.313 76.8221 200.762 75.9991C201.212 75.1761 201.492 74.2707 201.585 73.3368C201.61 72.3302 202.013 71.3705 202.714 70.6506C203.416 69.9307 204.362 69.5041 205.364 69.4567C206.267 69.3736 207.141 69.0922 207.925 68.6323C208.708 68.1725 209.38 67.5455 209.895 66.7956C211.468 64.6496 212.751 64.3234 215.282 65.2676C216.092 65.6403 216.978 65.8173 217.869 65.7845C218.76 65.7517 219.63 65.51 220.412 65.0788C220.827 64.7772 221.299 64.5637 221.799 64.4512C222.3 64.3386 222.817 64.3295 223.321 64.4242C223.825 64.519 224.305 64.7157 224.73 65.0023C225.156 65.289 225.519 65.6596 225.798 66.0917C227.17 67.715 229.074 68.7927 231.167 69.1305C232.408 69.2219 233.569 69.7835 234.413 70.7015C235.258 71.6195 235.723 72.8254 235.716 74.075C235.755 74.8457 235.989 75.5935 236.396 76.2483C236.803 76.903 237.369 77.4431 238.041 77.8177C238.552 78.0451 239.01 78.375 239.389 78.7873C239.767 79.1995 240.058 79.6853 240.242 80.2146C240.426 80.7439 240.5 81.3055 240.46 81.8647C240.42 82.424 240.266 82.969 240.008 83.4661C239.409 85.0063 239.409 86.7159 240.008 88.2561C240.469 89.1988 240.576 90.2771 240.309 91.2927C240.042 92.3084 239.419 93.1931 238.554 93.7843C237.643 94.4567 236.908 95.3402 236.411 96.3596C235.913 97.379 235.669 98.504 235.698 99.6387C235.609 100.536 235.265 101.388 234.707 102.094C234.447 102.354 234.287 102.699 234.255 103.067C234.224 103.434 234.323 103.801 234.536 104.102C237.289 109.116 239.956 114.163 242.607 119.228C243.41 120.756 243.103 121.271 241.427 121.271C240.283 121.287 239.14 121.219 238.007 121.065C237.777 121 237.536 120.981 237.299 121.01C237.061 121.038 236.832 121.114 236.623 121.232C236.415 121.35 236.232 121.508 236.085 121.698C235.938 121.887 235.83 122.104 235.767 122.335C235.339 123.451 234.843 124.55 234.313 125.632C233.783 126.713 233.065 126.851 232.45 125.769C229.303 120.275 226.208 114.764 223.113 109.236C221.753 107.855 219.917 107.05 217.983 106.987C216.564 107.176 215.145 107.485 213.743 107.811C213.577 107.861 213.423 107.945 213.291 108.057C213.158 108.169 213.05 108.307 212.973 108.463C211.964 111.193 211.144 113.991 209.998 116.653C208.852 119.314 207.262 122.112 205.877 124.842C205.483 125.41 205.011 125.918 204.475 126.353C203.996 125.872 203.5 125.408 203.056 124.911C202.904 124.722 202.778 124.514 202.679 124.292C199.943 119.897 200.593 120.395 195.156 120.945C194.814 120.945 194.489 121.151 194.164 121.151C193.839 121.151 193.309 121.151 193.155 120.859C193.108 120.684 193.096 120.501 193.119 120.321C193.143 120.142 193.201 119.968 193.292 119.812C194.808 116.824 196.347 113.837 197.909 110.85C198.935 108.875 200.012 106.952 200.986 104.978C201.636 103.656 202.457 102.866 204.03 103.381C204.305 103.399 204.581 103.381 204.851 103.33V103.33ZM238.964 82.0583C239.052 81.4461 238.943 80.822 238.654 80.2758C238.365 79.7296 237.911 79.2897 237.357 79.0195C236.49 78.5498 235.758 77.8641 235.231 77.0283C234.704 76.1924 234.4 75.2346 234.348 74.2467C234.04 71.8259 233.39 71.019 230.928 70.5555C228.552 70.1881 226.389 68.9682 224.84 67.1218C223.558 65.5767 222.652 65.405 220.924 66.4007C219.997 66.9503 218.945 67.2543 217.869 67.2844C216.792 67.3144 215.725 67.0694 214.769 66.5724C214.435 66.3432 214.053 66.1928 213.653 66.1325C213.253 66.0721 212.844 66.1034 212.458 66.2239C212.071 66.3444 211.717 66.5511 211.421 66.8285C211.126 67.1059 210.896 67.4468 210.75 67.8257C210.3 68.5647 209.689 69.1924 208.964 69.662C208.239 70.1316 207.417 70.4311 206.561 70.5383C203.569 71.0877 202.936 71.6543 202.337 74.7446C202.073 76.3208 201.224 77.738 199.961 78.7105C199.55 78.9371 199.191 79.2459 198.905 79.6177C198.618 79.9894 198.411 80.4163 198.296 80.8718C198.18 81.3272 198.159 81.8016 198.234 82.2656C198.308 82.7296 198.477 83.1732 198.729 83.5691C199.101 84.3493 199.302 85.2001 199.32 86.0646C199.337 86.9291 199.171 87.7874 198.832 88.5823C197.652 91.3807 197.943 92.2563 200.542 94.0075C201.181 94.4315 201.713 95.0005 202.093 95.6685C202.473 96.3365 202.691 97.0848 202.731 97.8532C202.788 98.5584 202.896 99.2585 203.056 99.9477C203.106 100.418 203.328 100.854 203.678 101.17C204.028 101.487 204.482 101.663 204.954 101.665C206.136 101.684 207.292 102.01 208.311 102.612C209.33 103.214 210.176 104.07 210.767 105.098C211.194 105.779 211.846 106.288 212.608 106.536C213.371 106.784 214.196 106.755 214.94 106.455C215.996 106.066 217.118 105.89 218.241 105.937C219.365 105.984 220.469 106.253 221.489 106.729C223.78 107.828 225.199 107.313 226.619 105.115C227.056 104.423 227.631 103.83 228.308 103.372C228.985 102.914 229.749 102.602 230.552 102.454L232.09 102.111C232.441 102.074 232.781 101.965 233.087 101.79C233.394 101.615 233.661 101.378 233.871 101.094C234.082 100.81 234.231 100.485 234.31 100.14C234.389 99.795 234.396 99.4372 234.33 99.0893C234.278 97.9171 234.517 96.7503 235.028 95.6948C235.539 94.6394 236.304 93.7289 237.255 93.0461C237.987 92.569 238.521 91.8405 238.757 90.9969C238.993 90.1532 238.915 89.2521 238.537 88.4621C237.887 86.8072 237.887 84.9664 238.537 83.3116C238.703 82.9022 238.846 82.4838 238.964 82.0583V82.0583ZM211.879 107.811C209.81 106.746 209.263 103.862 206.629 103.484C208.818 104.326 208.767 107.897 211.828 107.777L211.879 107.811Z" fill="black"/>
<path d="M146.781 91.0544C144.129 90.0508 141.696 88.5407 139.616 86.6078L137.256 84.3073C136.609 83.6545 136.127 82.8556 135.851 81.9775C135.574 81.0994 135.511 80.1675 135.666 79.2598C136.983 84.8567 141.651 87.0714 145.789 89.784L147.037 90.6252L146.781 91.0544Z" fill="black"/>
<path d="M221.215 86.7454C221.215 89.252 221.215 91.7414 221.215 94.248C221.233 94.6307 221.147 95.0112 220.964 95.348C220.782 95.6848 220.511 95.9649 220.182 96.1579C219.852 96.3509 219.476 96.4493 219.094 96.4425C218.713 96.4357 218.34 96.3239 218.017 96.1193C217.806 95.915 217.637 95.6697 217.523 95.3982C217.408 95.1267 217.349 94.8347 217.35 94.5398C217.35 91.7929 217.35 89.0459 217.35 86.3162C217.35 84.3933 217.197 84.359 215.435 84.9427C214.837 85.1315 213.52 84.9427 213.452 84.7367C213.202 83.9601 213.264 83.1166 213.623 82.3846C214.803 80.6968 216.149 79.1323 217.641 77.7148C218.466 77.1952 219.452 76.9996 220.411 77.1654C220.805 77.1654 221.318 78.3157 221.352 78.9681C221.454 81.5605 221.352 84.1186 221.352 86.7454H221.215Z" fill="black"/>
</g>
<defs>
<clipPath id="clip0_219_35">
<rect width="187" height="223" fill="white" transform="translate(56 39)"/>
</clipPath>
</defs>
</svg>
