<svg width="200" height="200" viewBox="0 0 200 200" fill="none" xmlns="http://www.w3.org/2000/svg">
<g clip-path="url(#clip0_209_59)">
<path d="M91.402 166.967C89.3571 167.887 87.2515 168.664 85.1002 169.293C81.9493 170.027 78.7102 170.406 75.5088 170.924C75.0914 170.991 74.666 170.991 74.2485 170.924C72.1563 170.621 70.0641 170.305 67.9467 169.9C67.5686 169.824 67.1905 169.357 66.951 168.99C66.1696 167.726 65.4638 166.386 64.7328 165.084H64.3546C64.2412 166.019 64.09 166.955 64.027 167.903C63.9387 169.167 63.8001 169.268 62.6027 168.788C56.251 166.204 50.4342 162.457 45.4492 157.739C44.8399 157.202 44.3973 156.5 44.1738 155.718C43.9504 154.936 43.9556 154.106 44.1889 153.327C44.9141 148.976 46.5368 144.826 48.953 141.14C49.1115 140.903 49.2885 140.679 49.4824 140.47C51.6789 137.982 53.2822 135.025 54.1709 131.823C54.9271 129.674 55.7086 127.525 56.3135 125.338C57.1076 122.468 57.826 119.586 58.3931 116.666C59.1125 112.77 60.4666 109.02 62.4011 105.566C62.8903 104.814 63.1507 103.936 63.1507 103.038C63.1507 102.14 62.8903 101.261 62.4011 100.509C60.3924 97.4433 59.0167 94.0044 58.3553 90.396C58.0024 88.0573 57.9772 85.6806 57.7377 83.3166C57.6188 82.0413 57.4209 80.7747 57.1454 79.5241C57.0134 79.0985 56.9835 78.6478 57.0579 78.2084C57.1324 77.7691 57.3092 77.3536 57.5739 76.9957C58.0163 76.35 58.317 75.6175 58.4562 74.8466C59.0045 72.0105 60.1851 69.3353 61.9095 67.0213C64.1431 63.9952 66.6768 61.2039 69.4717 58.6904C70.699 57.4638 71.8363 56.1499 72.8747 54.7588C74.009 53.2544 73.9208 52.7361 72.8747 51.1938L62.1994 35.6065C61.9221 35.1893 61.6197 34.7848 61.3172 34.3423C61.2177 34.224 61.1455 34.0851 61.1058 33.9356C61.0662 33.7861 61.06 33.6296 61.0877 33.4773C61.1154 33.3251 61.1763 33.1809 61.2661 33.0551C61.3559 32.9292 61.4723 32.8249 61.6071 32.7495C64.0996 30.9691 66.7843 29.4763 69.6104 28.2995C70.8707 27.718 71.9798 27.0354 73.1394 26.2895C73.3327 26.1307 73.4842 25.9267 73.5805 25.6953C74.009 24.8231 74.5888 24.7598 75.1433 25.5816C75.6979 26.4033 76.1642 27.2629 76.6936 28.1099C84.2557 39.6898 91.7843 51.2697 99.2792 62.8496C108.522 77.0336 117.718 91.2262 126.869 105.427C133.918 116.307 140.951 127.196 147.967 138.093C148.975 139.661 149.921 141.267 150.954 142.822C151.309 143.243 151.688 143.644 152.088 144.022C152.343 144.285 152.53 144.606 152.63 144.958C153.248 148.611 153.891 152.252 154.382 155.906C154.66 157.726 154.849 159.547 155.025 161.38C155.025 161.772 155.025 162.467 154.76 162.543C154.546 162.599 154.323 162.607 154.105 162.568C153.888 162.529 153.681 162.442 153.5 162.315C151.71 160.874 149.984 159.344 148.206 157.891C147.198 157.069 146.152 156.31 145.106 155.564C142.762 153.87 140.367 152.328 138.804 149.661C137.241 146.993 135.426 144.604 133.763 142.076C133.585 141.743 133.291 141.488 132.938 141.36C132.584 141.232 132.196 141.239 131.847 141.38C131.061 141.615 130.247 141.738 129.427 141.747C126.163 141.608 123.818 143.289 121.701 145.539C120.439 147.03 119.047 148.405 117.542 149.648C115.539 150.986 113.464 152.214 111.328 153.327C110.421 153.858 109.539 154.414 108.631 154.894C107.915 155.35 107.133 155.692 106.312 155.906C105.64 155.916 104.979 155.732 104.409 155.375C103.754 155.021 103.224 154.439 102.594 154.022C102.38 153.883 102.027 154.022 101.737 153.934C101.705 154.198 101.705 154.466 101.737 154.73C101.976 155.312 102.292 155.868 102.544 156.437C102.652 156.728 102.737 157.029 102.796 157.334L102.418 157.473C102.031 156.62 101.702 155.742 101.434 154.844C101.338 154.349 101.113 153.889 100.78 153.512C100.448 153.134 100.021 152.852 99.5439 152.695C98.2836 152.189 97.1114 151.431 95.9015 150.887L95.0822 150.495L94.7672 150.659L97.2123 159.003L96.9476 159.079C96.0779 156.171 94.8428 153.377 94.5277 150.305C94.4377 149.988 94.242 149.712 93.9731 149.522C92.8136 148.548 91.591 147.638 90.4693 146.627C89.1763 145.404 88.2284 143.86 87.7217 142.151C87.5013 141.698 87.2262 141.273 86.9025 140.887L86.4236 141.039C86.3994 141.758 86.4458 142.478 86.5622 143.188C87.5957 147.208 88.6922 151.203 89.7635 155.198C89.9155 155.658 89.9544 156.148 89.877 156.626C89.4988 155.362 89.0955 154.098 88.7552 152.758C87.7974 149.117 86.8773 145.464 85.8942 141.835C85.8121 141.652 85.6904 141.488 85.5378 141.357C85.3853 141.226 85.2057 141.13 85.012 141.077C84.3549 140.918 83.6695 140.917 83.0122 141.076C82.3549 141.234 81.7444 141.546 81.2309 141.987C79.5824 143.088 78.0532 144.359 76.6684 145.78C76.1516 146.374 76.0634 146.791 76.6054 147.398C78.7228 149.699 80.9536 151.898 82.9072 154.363C85.7304 158.042 88.7552 161.582 90.8348 165.741C90.9483 166.12 91.1121 166.411 91.402 166.967ZM147.11 146.361L146.807 146.576C146.366 145.982 145.887 145.413 145.547 144.806C137.54 132.687 129.566 120.564 121.625 108.436C114.5 97.5386 107.4 86.6203 100.325 75.681L77.2481 40.1702C75.471 37.2752 73.5049 34.4814 71.6899 31.6496C70.9967 30.5877 70.2657 29.9303 68.9928 30.7521C68.839 30.7844 68.6802 30.7844 68.5264 30.7521C66.5729 30.8785 66.3838 31.2704 67.4299 32.9012C67.5812 33.1413 67.7324 33.3815 67.8963 33.6217C74.3745 43.5498 80.857 53.4525 87.3436 63.3299L110.32 98.3224C116.336 107.424 122.34 116.548 128.331 125.692C133.233 133.214 138.073 140.786 142.926 148.333C143.316 148.965 143.694 149.206 144.186 148.485C144.446 148.107 144.804 147.807 145.222 147.618C145.639 147.428 146.1 147.357 146.555 147.41C147.055 147.429 147.544 147.262 147.929 146.943C148.278 146.554 148.717 146.257 149.207 146.078C149.697 145.9 150.224 145.845 150.74 145.919C151.332 145.995 151.609 145.641 151.458 145.122C151.295 144.518 151.04 143.942 150.702 143.416C148.408 139.964 146.064 136.564 143.783 133.1C137.96 124.251 132.154 115.401 126.364 106.552C118.584 94.6689 110.803 82.7899 103.023 70.915C95.2419 59.0402 87.5159 47.2117 79.8445 35.4295L75.2946 28.426C74.9165 27.8444 74.5762 27.6169 73.9712 28.2111C73.5912 28.5032 73.1652 28.7297 72.7108 28.8811C72.1563 29.1339 71.9294 29.4499 72.3075 30.0568C72.6856 30.6636 73.1016 31.5738 73.5679 32.2817C78.9454 40.6169 84.344 48.9478 89.7635 57.2745L117.63 100.257C123.117 108.684 128.578 117.154 134.015 125.667C138.224 132.202 142.371 138.776 146.543 145.35C146.753 145.675 146.942 146.012 147.11 146.361V146.361ZM107.056 102.355L107.27 102.178C106.816 101.483 106.388 100.762 105.909 100.067C97.9181 88.268 89.9358 76.469 81.9619 64.67C81.2016 63.3964 80.0714 62.3863 78.7228 61.775C78.2711 61.5503 77.7708 61.4418 77.2669 61.4595C76.763 61.4772 76.2715 61.6203 75.8365 61.8761C75.3431 62.1668 74.9142 62.5556 74.576 63.0187C74.2379 63.4817 73.9978 64.0093 73.8704 64.5688C73.4292 66.364 73.0889 68.197 72.7991 70.0301C72.5974 71.2943 72.547 72.4826 72.4336 73.7088C72.3579 74.3789 72.0555 74.6317 71.337 74.48C69.9537 74.2796 68.6718 73.6367 67.682 72.6469C66.2956 71.1299 65.0604 69.4991 63.7497 67.9316C63.484 67.6378 63.2021 67.3592 62.9052 67.0972L62.6532 67.2995C62.7376 67.6207 62.8603 67.9305 63.0187 68.2223C63.7368 69.3843 64.5282 70.4991 65.3881 71.5597C66.9762 73.4054 68.7155 75.0489 71.4127 75.011C72.0681 75.011 72.1815 75.5293 71.942 76.0349C71.3497 77.2991 70.7573 78.5633 70.0767 79.7263C69.749 80.2826 69.5599 80.7377 69.9885 81.2813C71.8553 83.5391 72.9626 86.3312 73.152 89.2583C73.215 90.2822 73.8704 90.6615 74.8661 90.5224C75.6561 90.2924 76.502 90.3518 77.2524 90.6899C78.0029 91.0281 78.6089 91.6229 78.9622 92.3681C80.5122 94.8447 81.3818 97.6883 81.483 100.611C81.51 101.624 81.7794 102.615 82.2686 103.502C82.7577 104.388 83.4522 105.144 84.2936 105.705C85.4153 106.578 86.6252 107.336 87.81 108.107C87.9355 108.206 88.0808 108.275 88.2359 108.312C88.391 108.348 88.5521 108.35 88.7081 108.317C88.864 108.285 89.011 108.219 89.1389 108.123C89.2667 108.028 89.3724 107.906 89.4484 107.766C89.9778 106.982 90.4441 106.148 90.9609 105.351C91.6062 104.225 92.3262 103.144 93.1161 102.115C94.1933 100.782 95.6749 99.8388 97.3356 99.4281C98.9963 99.0174 100.745 99.1618 102.317 99.8394C102.518 99.9314 102.73 99.9993 102.947 100.042C104.323 100.289 105.587 100.961 106.564 101.963C106.715 102.115 106.892 102.229 107.056 102.355ZM108.039 113.353L106.778 110.686C106.644 110.358 106.443 110.062 106.187 109.818C105.931 109.573 105.627 109.385 105.295 109.266C104.962 109.147 104.608 109.099 104.255 109.126C103.903 109.153 103.56 109.254 103.249 109.422C102.775 109.719 102.22 109.86 101.661 109.826C100.864 109.613 100.019 109.657 99.2479 109.952C98.4765 110.247 97.8172 110.778 97.3635 111.47C97.1492 111.748 96.6325 111.773 96.267 111.912C96.1303 111.465 96.054 111.002 96.0401 110.534C96.16 110.104 96.3074 109.682 96.4812 109.27C96.6703 108.537 96.0653 107.146 95.473 106.995C94.5781 106.78 94.1118 107.424 93.6706 108.069C93.2313 108.591 92.9679 109.239 92.9181 109.92C92.8683 110.602 93.0346 111.281 93.3934 111.862C93.0782 111.632 92.8373 111.314 92.7006 110.947C92.5639 110.581 92.5375 110.182 92.6245 109.801C92.6876 109.055 92.5489 108.815 91.6793 108.992C90.5403 109.159 89.3894 109.231 88.2385 109.207C87.8478 109.207 87.3688 109.03 87.1042 109.207C86.761 109.486 86.514 109.866 86.3984 110.294C85.4027 113.139 85.2262 115.907 87.0411 118.549C88.1602 120.024 89.7952 121.018 91.6163 121.33C92.5595 121.44 93.4584 121.793 94.2252 122.354C94.373 122.519 94.5537 122.651 94.7556 122.742C94.9576 122.832 95.1762 122.879 95.3973 122.879C95.6185 122.879 95.8371 122.832 96.0391 122.742C96.241 122.651 96.4217 122.519 96.5695 122.354C96.8139 122.159 97.0804 121.994 97.3635 121.861C98.2079 121.444 99.065 121.052 99.8842 120.673C100.187 120.547 100.527 120.483 100.855 120.382C99.5943 121.153 98.334 121.647 97.1618 122.354C95.5738 123.416 95.6242 123.745 96.4686 125.452C96.9048 126.396 97.6405 127.17 98.5608 127.651C99.4188 128.102 100.151 128.76 100.693 129.565C101.234 130.371 101.567 131.299 101.661 132.266C101.844 133.661 102.122 135.042 102.493 136.399C102.688 136.979 103.075 137.474 103.59 137.803C105.14 138.595 106.49 139.732 107.535 141.128C108.026 141.924 108.455 141.886 109.085 141.304C110.608 139.904 112.512 138.989 114.555 138.675C115.677 138.485 116.798 138.346 117.92 138.195C119.508 137.992 120.214 137.449 120.441 135.856C120.592 134.888 120.592 133.903 120.441 132.936C120.21 131.963 120.243 130.946 120.535 129.991C120.828 129.035 121.37 128.175 122.104 127.5C122.374 127.275 122.566 126.971 122.654 126.631C122.742 126.291 122.722 125.931 122.596 125.603C122.437 125.058 122.208 124.535 121.915 124.048C119.201 119.894 116.475 115.751 113.736 111.622C113.433 111.166 113.08 110.737 112.601 110.105C112.021 112.848 109.828 112.81 108.039 113.353ZM65.3881 32.5851L65.1361 32.7747C65.4764 33.3436 65.8041 33.9504 66.1696 34.5067L90.5954 71.585C98.9978 84.269 107.371 96.974 115.714 109.7C122.621 120.21 129.511 130.744 136.384 141.304C138.161 144.022 139.875 146.791 141.615 149.547C141.942 150.091 142.358 150.457 142.976 150.217C143.037 149.782 142.957 149.339 142.749 148.953C141.892 147.689 140.896 146.424 140.039 145.16C133.25 135.005 126.461 124.82 119.672 114.605C111.673 102.545 103.691 90.4676 95.725 78.3737C90.1122 69.8531 84.491 61.3325 78.8614 52.812C74.7106 46.5332 70.5598 40.2587 66.409 33.9883C66.0939 33.5206 65.7158 33.0908 65.3881 32.5851ZM79.731 98.3224H79.479C79.4237 98.3923 79.3772 98.4688 79.3403 98.55C78.3447 102.153 77.3238 105.73 76.3659 109.333C75.6858 111.981 75.634 114.752 76.2146 117.424C76.3785 118.195 76.681 118.372 77.3742 117.892C77.76 117.584 78.2232 117.389 78.7126 117.329C79.2019 117.269 79.6984 117.345 80.147 117.551C80.9536 117.917 81.0922 117.551 81.2057 116.843C81.4577 115.288 81.8232 113.745 82.1005 112.19C82.3778 110.636 82.6803 108.84 82.9072 107.134C83.008 106.35 82.5795 105.87 81.735 105.566C81.2813 107.601 81.735 109.713 80.6385 111.571C80.4045 110.795 80.2731 109.992 80.2478 109.182C80.147 106.021 80.084 102.861 79.9831 99.7004C79.9328 99.2355 79.8485 98.7749 79.731 98.3224ZM93.2043 127.045V126.589H95.0949C95.8511 126.589 96.1157 126.261 95.6368 125.692C94.7402 124.647 93.767 123.671 92.7254 122.772C92.4481 122.531 91.8935 122.582 91.465 122.519C90.5919 122.466 89.724 122.348 88.8687 122.165C86.9781 121.558 85.0876 120.812 83.2727 120.117C82.3022 119.75 82.0123 119.889 81.9367 120.939C81.8516 121.402 81.7969 121.871 81.7728 122.342C81.7451 122.73 81.8568 123.116 82.0879 123.429C84.6522 126.049 88.0315 127.713 91.6667 128.144C94.1233 128.379 96.5006 129.142 98.6365 130.382C98.9474 130.543 99.2672 130.687 99.5943 130.812L99.7708 130.572C99.1642 129.421 98.1328 128.554 96.8972 128.157C95.7376 127.702 94.4521 127.399 93.2043 127.045ZM148.156 148.725C147.916 148.485 147.62 148.309 147.296 148.21C146.972 148.112 146.628 148.095 146.296 148.161C145.963 148.227 145.652 148.375 145.39 148.59C145.127 148.805 144.922 149.082 144.791 149.395C144.577 149.774 144.476 150.217 144.262 150.659C144.108 151.004 143.875 151.308 143.581 151.544C142.938 151.999 142.774 152.48 143.367 153.011C145.005 154.477 146.719 155.855 148.408 157.271C148.46 157.313 148.52 157.343 148.585 157.36C148.673 157.428 148.776 157.474 148.886 157.492C148.996 157.511 149.108 157.503 149.214 157.468C149.32 157.433 149.415 157.373 149.492 157.292C149.569 157.211 149.626 157.113 149.656 157.006C149.867 156.582 150.203 156.234 150.617 156.008C151.032 155.782 151.506 155.689 151.975 155.741C152.908 155.741 153.059 155.438 152.983 154.642C152.819 152.821 152.731 150.988 152.567 149.168C152.527 148.606 152.395 148.055 152.177 147.537C152.091 147.374 151.973 147.23 151.83 147.115C151.687 147 151.522 146.915 151.345 146.867C150.676 146.69 149.965 146.786 149.367 147.134C148.769 147.483 148.334 148.055 148.156 148.725V148.725ZM63.5732 33.0908C63.3707 33.4023 63.2176 33.7435 63.1195 34.1021C63.1195 34.3423 63.3464 34.6078 63.4976 34.8353C69.2617 43.3643 75.0299 51.8849 80.8024 60.397C81.0886 60.6794 81.4212 60.9103 81.7854 61.0797C81.7496 60.6834 81.6518 60.2951 81.4956 59.9293C77.8825 54.4175 74.2485 48.9099 70.5934 43.4065C68.539 40.2966 66.4973 37.1867 64.4303 34.0768C64.2286 33.8493 63.9639 33.5459 63.5732 33.0908ZM104.346 95.0355L104.485 94.9344C104.157 94.4035 103.842 93.8725 103.501 93.3542C96.9476 83.384 90.3811 73.4097 83.802 63.4311C83.4997 63.0862 83.1521 62.7842 82.7685 62.5335C82.882 62.9633 82.9828 63.4058 83.1088 63.7977C83.1639 63.9133 83.2361 64.0199 83.3231 64.1137L102.607 92.4945C103.199 93.3668 103.766 94.2012 104.346 95.0355V95.0355ZM69.9002 99.2453L69.5725 99.0936C68.3122 101.382 66.9636 103.632 65.7915 105.958C64.2875 108.611 63.8374 111.735 64.5311 114.706C65.3123 117.203 66.2296 119.655 67.2787 122.051C67.4047 122.248 67.5574 122.427 67.7324 122.582C67.8064 122.159 67.7717 121.724 67.6316 121.318C67.1905 120.054 66.6989 118.903 66.2578 117.677C65.1732 115.265 64.8648 112.574 65.3755 109.978C65.929 108.102 66.6155 106.269 67.4299 104.492C68.1861 102.671 69.0684 100.977 69.9002 99.2453ZM94.5781 135.818C92.0148 135.23 89.3523 135.23 86.7891 135.818C84.7152 136.302 82.5377 136.038 80.6385 135.072C78.9748 134.187 77.4246 133.1 75.8239 132.101L74.3871 131.191L74.2107 131.444C74.3845 131.687 74.583 131.912 74.803 132.114C75.8869 132.961 76.9583 133.858 78.1178 134.642C79.4159 135.573 80.8951 136.218 82.4588 136.536C84.0225 136.854 85.6355 136.838 87.1924 136.488C88.7052 136.174 90.2383 135.967 91.7801 135.869C92.7002 135.755 93.6454 135.818 94.5781 135.818ZM77.5002 120.863C77.4741 121.112 77.4995 121.364 77.575 121.603C77.6505 121.842 77.7743 122.063 77.9388 122.251C78.1032 122.44 78.3048 122.593 78.5308 122.7C78.7568 122.806 79.0023 122.865 79.2521 122.873C79.7738 122.821 80.255 122.568 80.5938 122.167C80.9326 121.766 81.1023 121.248 81.067 120.724C80.9676 120.264 80.7332 119.845 80.3939 119.521C80.0547 119.196 79.6262 118.981 79.1639 118.903C78.1934 118.878 77.5128 119.7 77.5002 120.863ZM115.235 150.154C114.114 148.89 112.979 147.701 111.895 146.361C110.855 144.929 110.404 143.15 110.635 141.393C108.631 144.478 112.362 149.218 115.235 150.154ZM101.485 146.551C101.485 146.551 101.485 146.412 101.397 146.412C98.3544 145.568 95.7264 143.634 94.0109 140.976C93.7689 140.685 93.5079 140.41 93.2295 140.154C93.6202 143.074 98.6869 146.854 101.485 146.551ZM63.8505 86.4391C62.6658 89.2709 63.7623 94.5299 65.9553 96.3503C64.6067 93.1898 63.0817 90.0547 63.8505 86.4391ZM123.629 130.293C124.234 130.799 124.65 131.419 125.003 131.381C125.356 131.343 125.911 130.799 126.352 130.458C125.935 129.98 125.46 129.556 124.94 129.194C124.802 129.055 124.222 129.763 123.629 130.293ZM132.187 137.044L132.414 136.893L130.788 134.465L130.612 134.579L132.187 137.044Z" fill="black"/>
<path d="M107.61 114.592C107.131 115.389 106.665 116.21 106.148 116.982C106.06 117.107 105.948 117.212 105.818 117.293C105.688 117.373 105.543 117.426 105.392 117.449C104.981 117.463 104.583 117.601 104.25 117.844C103.917 118.088 103.665 118.426 103.527 118.815C103.275 119.346 103.035 119.902 102.733 120.408C102.547 120.711 102.268 120.946 101.939 121.078L103.199 118.549C103.351 118.133 103.622 117.772 103.979 117.511C104.336 117.25 104.762 117.101 105.203 117.083C105.588 117.003 105.927 116.777 106.148 116.451C106.615 115.831 106.98 115.186 107.409 114.479L107.61 114.592Z" fill="black"/>
</g>
<defs>
<clipPath id="clip0_209_59">
<rect width="111" height="146" fill="white" transform="translate(44 25)"/>
</clipPath>
</defs>
</svg>
