<svg width="200" height="200" viewBox="0 0 200 200" fill="none" xmlns="http://www.w3.org/2000/svg">
<g clip-path="url(#clip0_209_65)">
<path d="M104.199 112.102C103.927 112.61 103.705 112.983 103.518 113.356C101.84 116.373 99.3585 118.872 96.3458 120.576C94.181 121.963 92.3817 123.847 91.0988 126.068C90.7435 126.682 90.3145 127.251 89.8211 127.763C89.4258 128.19 88.9081 128.485 88.3383 128.609C87.7685 128.734 87.174 128.681 86.6354 128.458C85.8355 128.212 85.0142 128.042 84.1823 127.949C81.7462 127.593 79.3101 127.356 76.908 126.881C75.7278 126.549 74.5859 126.095 73.5009 125.525L72.4276 125.034C72.632 125.898 72.8024 126.525 72.9216 127.153C72.9216 127.508 73.075 128.119 72.9216 128.203C72.5524 128.37 72.1356 128.4 71.7462 128.288C69.8382 127.814 67.9472 127.237 66.0221 126.797C63.8245 126.288 61.6099 125.881 59.4123 125.441C58.7366 125.319 58.0538 125.239 57.368 125.203C57.2345 125.219 57.1065 125.266 56.9942 125.339C56.8818 125.413 56.7882 125.511 56.7206 125.627C56.0051 127.322 55.3748 129.136 54.6252 130.864C54.2451 131.608 53.8183 132.327 53.3475 133.017C53.1942 133.305 53.092 133.627 52.9046 134.085C52.2904 134.036 51.681 133.939 51.0818 133.797C44.4549 131.729 37.8109 129.729 31.3714 127.119C29.5486 126.39 27.6235 125.932 25.7325 125.322C25.4724 125.183 25.227 125.018 25 124.831C25.2215 124.576 25.3918 124.22 25.6644 124.068C27.0199 123.35 28.1114 122.222 28.7819 120.847C30.5664 117.391 31.5446 113.579 31.644 109.695C31.7973 106.305 31.8484 102.915 32.2572 99.5254C32.7122 96.5248 33.3206 93.5492 34.0801 90.6102C34.3867 89.2881 34.9489 89.0509 36.4651 89.4068L49.9404 92.6949C52.9727 93.4576 56.0051 94.2542 59.0545 94.9661C60.1402 95.1597 61.2396 95.2674 62.3424 95.2881C62.7544 95.2421 63.16 95.1512 63.552 95.017C63.6531 95.1197 63.734 95.2405 63.7905 95.3729C65.494 100.678 67.3169 105.966 69.0545 111.288C69.2589 111.898 69.5826 112.203 70.1618 112C71.0535 111.702 71.9057 111.298 72.7002 110.797C75.117 109.076 77.831 107.812 80.707 107.068C81.9153 106.792 83.1381 106.582 84.3697 106.441C85.0145 106.376 85.6285 106.134 86.143 105.742C86.6575 105.35 87.0521 104.823 87.2828 104.22C88.35 102.085 89.5329 100.008 90.8262 98C91.6375 96.8645 92.5938 95.839 93.6712 94.9492C94.2629 94.4144 94.6585 93.6987 94.7956 92.9153C95.2166 90.5832 95.8029 88.2836 96.5503 86.0339C97.6077 83.537 99.6081 81.5529 102.121 80.5085C102.853 80.1582 103.54 79.7199 104.165 79.2034C105.585 77.8885 107.439 77.1351 109.378 77.0848C111.673 77.1383 113.941 76.5887 115.954 75.4915C117.192 74.878 118.52 74.466 119.889 74.2712C120.693 74.1618 121.512 74.2491 122.274 74.5254C123.235 74.7167 124.23 74.646 125.154 74.3207C126.077 73.9955 126.895 73.4279 127.521 72.678C127.624 72.428 127.624 72.1482 127.521 71.8983C126.58 69.9719 126.174 67.83 126.346 65.6949C126.346 65.2034 126.039 64.6441 125.903 64.1186C125.671 63.5009 125.555 62.8459 125.562 62.1864C125.75 60.5703 125.75 58.9381 125.562 57.322C125.494 55.8725 125.562 54.4198 125.767 52.9831C125.852 52.4084 126.068 51.8608 126.399 51.3819C126.73 50.9031 127.166 50.5058 127.675 50.2203C129.858 48.7068 132.259 47.5297 134.796 46.7288C135.988 46.4576 137.181 46.2542 138.373 46.0848C141.299 45.8005 144.224 46.6235 146.567 48.3898C146.676 48.4836 146.796 48.5634 146.925 48.6271C150.128 49.9831 150.707 52.8305 150.792 55.7797C150.72 57.4028 150.52 59.0178 150.196 60.6102C150.196 61.2373 150.196 61.8814 150.06 62.5085C150.094 62.9259 150.094 63.3453 150.06 63.7627C149.838 64.9831 149.566 66.1864 149.276 67.3898C149.222 67.7825 149.069 68.1555 148.833 68.4746C147.572 69.7458 147.981 71.2712 148.083 72.7627C148.237 75.2542 148.407 77.7458 148.578 80.2373C148.574 80.4614 148.626 80.6828 148.731 80.8814C149.668 82.2034 150.605 83.5424 151.61 84.8136C152.359 85.7797 153.228 86.661 154.063 87.5763C154.593 88.2416 155.266 88.7804 156.032 89.1529C156.799 89.5254 157.639 89.7222 158.492 89.7288C159.65 89.8435 160.772 90.193 161.788 90.7556C162.805 91.3182 163.695 92.082 164.404 93C165.443 94.1186 166.414 95.2712 167.453 96.3898C168.492 97.5085 168.339 97.5763 167.845 98.7119C167.845 98.8983 167.845 99.2373 168.015 99.4576C168.877 100.806 169.667 102.197 170.383 103.627C171.97 107.264 172.323 111.316 171.388 115.169C171.286 115.644 171.235 116.119 171.133 116.576C171.014 117.114 171.024 117.673 171.163 118.206C171.302 118.739 171.566 119.232 171.934 119.644C173.498 121.808 174.52 124.313 174.915 126.949C175.094 127.798 175.087 128.675 174.893 129.521C174.699 130.367 174.323 131.16 173.79 131.847C171.356 135.325 168.577 138.55 165.494 141.475C163.79 143.169 163.79 143.458 162.428 140.932C162.178 140.46 161.973 139.967 161.814 139.458C161.371 138.31 160.738 137.244 159.94 136.305C157.519 133.541 155.662 130.334 154.472 126.864C154.431 126.736 154.38 126.611 154.319 126.492C154.216 126.492 154.131 126.492 154.131 126.492C153.211 128.78 151.814 130.847 151.917 133.525C152.036 137.034 151.746 140.542 151.797 144.034C151.911 145.281 152.174 146.51 152.581 147.695C152.751 148.373 152.939 149.034 153.16 149.695C153.382 150.356 153.16 150.322 152.666 150.39C151.934 150.525 151.184 150.644 150.468 150.847C144.97 152.591 139.192 153.298 133.433 152.932C128.993 152.525 124.637 151.475 120.503 149.814C117.62 148.606 114.915 147.015 112.462 145.085C111.993 144.773 111.607 144.352 111.337 143.859C111.067 143.366 110.921 142.816 110.911 142.254C110.775 139.119 110.673 135.966 110.332 132.847C110.01 130.831 109.578 128.834 109.037 126.864C108.911 125.748 108.724 124.639 108.475 123.542C108.015 122.237 107.3 121 106.772 119.678C105.954 117.288 105.221 114.881 104.455 112.475C104.376 112.346 104.291 112.222 104.199 112.102V112.102ZM61.9676 96.2542C60.8092 96.1017 59.8552 96.0509 58.9353 95.8475C55.971 95.1695 53.0068 94.4407 50.0426 93.7119C45.6474 92.6102 41.2521 91.4746 36.8399 90.322C35.2215 90.0678 35.2215 90.0678 34.8296 91.5932C33.6993 96.0857 33.0878 100.692 33.0068 105.322C33.1273 108.893 32.7837 112.465 31.9847 115.949C31.3766 119.16 29.8092 122.113 27.4872 124.424C27.4872 124.424 27.402 124.61 27.368 124.746C27.4933 124.818 27.6244 124.881 27.7598 124.932C30.4174 125.864 33.075 126.814 35.7496 127.695L50.4514 132.441C52.4787 133.102 52.5639 133.102 53.4157 131.203C55.1471 127.657 56.2974 123.857 56.8228 119.949C57.2487 116.102 57.5383 112.237 57.8961 108.373C58.0544 105.023 58.95 101.748 60.5196 98.7797C60.9114 98 61.3884 97.2373 61.9676 96.2542ZM137.964 79.8983V80.1356L138.697 80.2373C140.026 80.2373 141.337 80.2373 142.666 80.2373C142.977 80.2744 143.291 80.2013 143.552 80.0307C143.814 79.8602 144.007 79.6032 144.097 79.3051C144.676 77.6102 145.239 75.9153 145.801 74.3051C145.903 74 146.022 73.6949 146.141 73.3898L146.397 73.4915C146.062 75.6987 145.438 77.8526 144.54 79.8983C145.372 79.7751 146.185 79.5473 146.959 79.2203C147.108 79.1143 147.232 78.9777 147.323 78.8198C147.414 78.6619 147.47 78.4864 147.487 78.3051C147.487 75.7627 147.317 73.2203 147.198 70.661C147.181 70.5176 147.134 70.3791 147.061 70.2542C146.893 70.3215 146.714 70.3616 146.533 70.3729C146.227 70.3729 145.937 70.2203 145.63 70.1525C145.852 69.9322 146.005 69.5932 146.278 69.5085C146.743 69.2831 147.15 68.9554 147.469 68.5501C147.788 68.1449 148.009 67.6727 148.118 67.1695C148.5 65.9634 148.779 64.7274 148.952 63.4746C148.952 63.1525 148.952 62.6102 148.782 62.5085C148.423 62.3858 148.033 62.3858 147.675 62.5085C147.4 62.5854 147.16 62.7527 146.993 62.9831C146.261 63.8644 145.579 64.7797 144.864 65.661C144.676 65.8814 144.387 66.1864 144.182 66.1525C143.978 66.1186 143.756 65.7797 143.603 65.5424C143.45 65.3051 143.518 65.1017 143.433 64.8983C143.112 63.7999 142.69 62.7333 142.172 61.7119C141.965 61.4229 141.819 61.0951 141.743 60.7485C141.667 60.4018 141.662 60.0434 141.729 59.6949C141.922 58.9942 142.008 58.2686 141.985 57.5424C141.965 56.912 141.717 56.3099 141.286 55.8475C141.065 55.661 140.281 56.1186 139.753 56.3051C139.604 56.3833 139.461 56.474 139.327 56.5763C137.518 57.7099 135.362 58.1665 133.245 57.8644C132.019 57.661 130.826 57.3051 129.634 56.9831C129.389 56.8734 129.122 56.8185 128.854 56.8221C128.585 56.8258 128.32 56.888 128.079 57.0043C127.837 57.1206 127.623 57.2883 127.453 57.4954C127.284 57.7026 127.161 57.9442 127.095 58.2034C126.768 59.0425 126.523 59.9109 126.363 60.7966C126.229 61.3282 126.209 61.8817 126.302 62.4217C126.396 62.9617 126.603 63.4762 126.908 63.9322C127.274 64.4947 127.436 65.1641 127.368 65.8305C127.243 67.6279 127.59 69.4266 128.373 71.0509C129.574 73.3369 130.337 75.8258 130.622 78.3898C130.625 78.5143 130.656 78.6365 130.711 78.7478C130.767 78.8591 130.847 78.9568 130.945 79.0339C132.184 79.7747 133.606 80.1563 135.051 80.1356C135.92 80.1356 136.363 79.5763 136.925 79.1525L137.76 78.5763L141.968 75.7797C142.4 75.5055 142.773 75.1486 143.066 74.7296C143.358 74.3105 143.564 73.8379 143.671 73.339C143.816 72.7394 144.058 72.167 144.387 71.6441C144.54 71.4237 144.983 71.3559 145.29 71.2373C145.339 71.5347 145.339 71.8382 145.29 72.1356C145.094 72.8994 144.826 73.6429 144.489 74.3559C144.165 75.0863 143.696 75.7436 143.109 76.2881C141.644 77.4237 140.043 78.3898 138.509 79.4237L137.964 79.8983ZM105.443 79.5593L105.596 79.8475C105.596 79.8475 105.596 79.9322 105.733 79.9322H106.499C108.666 79.8335 110.835 80.0853 112.922 80.678C116.193 81.7245 119.234 83.3811 121.882 85.5593C124.623 87.5941 127.466 89.4892 130.4 91.2373C132.311 92.3805 134.43 93.1352 136.635 93.4576C136.606 92.2982 137.027 91.1722 137.811 90.3136C138.594 89.455 139.681 88.9299 140.843 88.8475C140.707 88.6734 140.553 88.5143 140.383 88.3729C139.638 87.887 138.864 87.4456 138.066 87.0508C134.855 85.3446 131.795 83.3715 128.918 81.1525C127.543 80.2609 126.417 79.0361 125.647 77.5932C125.437 77.1588 125.161 76.7588 124.83 76.4068C124.573 76.1672 124.254 76.0029 123.91 75.9322C123.211 75.7458 122.479 75.6949 121.78 75.4915C120.718 75.2353 119.602 75.3244 118.595 75.7458C118.799 75.9322 118.867 76 118.935 76.017C121.706 77.1243 124.175 78.8664 126.141 81.1017C128.271 83.1186 129.974 85.5932 132.53 87.1864C132.671 87.3204 132.792 87.4746 132.888 87.6441C131.466 87.06 130.205 86.1479 129.208 84.9831C127.658 83.2881 126.158 81.5932 124.523 80.1356C122.948 78.5141 121.059 77.2282 118.969 76.3559C117.147 75.7119 115.954 76.7627 114.421 77.5593C115.535 77.8491 116.633 78.1999 117.709 78.6102C118.722 79.0893 119.691 79.6565 120.605 80.3051C121.508 80.9322 122.308 81.661 123.177 82.3729C124.046 83.0847 124.881 83.7627 125.664 84.4576L125.494 84.678C125.253 84.5449 125.019 84.3978 124.796 84.2373C123.637 83.339 122.547 82.3559 121.388 81.5254C120.004 80.5084 118.533 79.6124 116.993 78.8475C114.148 77.5424 111.116 78.0509 108.169 78.4407C107.211 78.6805 106.292 79.0573 105.443 79.5593V79.5593ZM153.671 93.5593C157.093 93.1549 160.561 93.3964 163.893 94.2712C163.671 93.8644 163.62 93.6441 163.484 93.5424C162.377 92.6056 161.179 91.7823 159.906 91.0847C158.714 90.5424 157.249 90.661 155.988 90.2373C154.254 89.7307 152.435 89.5751 150.639 89.7797C149.242 89.8814 147.828 89.9153 146.431 89.9831C146.14 89.9984 145.849 90.0324 145.562 90.0847C146.289 91.0246 146.738 92.1475 146.858 93.3272C146.979 94.507 146.766 95.6967 146.244 96.7627L166.397 97.5254V97.2034C165.443 95.8525 164.035 94.8848 162.428 94.4746C161.167 94.2712 159.889 94 158.595 93.8814C157.044 93.7119 155.358 93.661 153.671 93.5593V93.5593ZM137.743 93.4576C137.776 94.5596 138.214 95.6114 138.973 96.414C139.733 97.2167 140.762 97.7146 141.865 97.8136C142.397 97.8079 142.922 97.6942 143.408 97.4793C143.894 97.2645 144.331 96.953 144.691 96.5641C145.052 96.1752 145.329 95.7171 145.505 95.2178C145.681 94.7186 145.753 94.1888 145.716 93.661C145.739 93.1041 145.647 92.5483 145.444 92.0287C145.242 91.509 144.933 91.0368 144.537 90.6419C144.142 90.2469 143.669 89.9378 143.147 89.734C142.626 89.5301 142.068 89.436 141.508 89.4576C140.991 89.4564 140.48 89.5611 140.005 89.765C139.531 89.969 139.104 90.2678 138.751 90.643C138.398 91.0183 138.126 91.4618 137.953 91.946C137.779 92.4302 137.708 92.9448 137.743 93.4576V93.4576ZM111.882 91.7627C111.652 91.9255 111.441 92.1131 111.252 92.322C110.281 93.4735 109.686 94.8928 109.549 96.3898C109.526 97.9248 109.853 99.445 110.505 100.836C111.157 102.228 112.117 103.454 113.313 104.424C115.724 106.69 118.809 108.117 122.104 108.492C127.449 109.19 132.721 110.352 137.862 111.966C138.281 112.06 138.71 112.105 139.14 112.102C138.969 111.78 138.935 111.593 138.833 111.542C137.871 110.915 136.828 110.419 135.733 110.068C131.082 109.034 126.431 108.017 121.729 107.288C118.588 106.825 115.707 105.284 113.586 102.932C110.758 99.8305 109.566 96.3051 111.746 92.3051C111.746 92.1864 111.763 92.0509 111.882 91.7627ZM143.842 114.051L143.705 114.271C143.919 114.497 144.159 114.696 144.421 114.864C145.706 115.618 147.031 116.303 148.39 116.915C149.94 117.788 151.746 118.1 153.501 117.797C154.472 117.525 155.307 117.39 156.175 117.186C158.19 116.559 159.933 115.274 161.123 113.54C162.313 111.805 162.881 109.722 162.734 107.627C162.734 107.153 162.734 106.695 162.734 106.22H162.359C162.247 106.739 162.184 107.266 162.172 107.797C162.376 112.661 157.232 116.864 152.462 116.915C149.871 116.721 147.354 115.97 145.085 114.712L143.842 114.051ZM159.174 119.305H158.935C158.935 119.305 158.833 119.475 158.799 119.576C158.416 121.038 158.37 122.568 158.665 124.05C158.96 125.532 159.588 126.929 160.503 128.136C162.653 130.848 165.15 133.27 167.93 135.339C168.262 135.566 168.609 135.77 168.969 135.949L169.157 135.712C168.663 135.119 168.186 134.458 167.624 133.898C165.92 132.203 164.216 130.695 162.666 129.085C161.466 127.949 160.538 126.56 159.948 125.02C159.358 123.48 159.123 121.829 159.259 120.186C159.174 119.881 159.123 119.593 159.123 119.305H159.174ZM134.574 120.729L134.37 120.576C134.131 120.763 133.876 120.915 133.654 121.119C131.853 122.837 130.522 124.983 129.787 127.356C128.796 131.188 128.427 135.154 128.697 139.102C128.697 139.864 128.833 140.61 128.918 141.373H129.123C129.225 140.441 129.361 139.492 129.429 138.542C129.566 136.559 129.617 134.559 129.77 132.576C129.85 129.079 130.951 125.681 132.939 122.797C133.45 122.068 134.029 121.407 134.523 120.729H134.574ZM139.361 120.051C139.446 120.593 139.514 120.966 139.566 121.322C140.196 124.712 140.945 128.203 141.371 131.678C141.712 134.373 141.644 137.102 141.78 139.831C141.78 140.475 141.917 141.119 142.002 141.763C143.433 138.119 141.525 122.458 139.31 120.051H139.361ZM80.4003 108.186C82.0108 108.71 83.4516 109.652 84.5741 110.915C87.6405 114.305 87.2487 121.305 83.6882 124.085C83.1942 124.458 82.7513 124.881 82.2913 125.305C81.8313 125.729 81.8313 125.814 81.4906 126.186C84.8978 125.593 87.6235 121.102 87.4361 116.407C87.4485 114.408 86.7404 112.471 85.4401 110.947C84.1399 109.423 82.3337 108.414 80.3492 108.102L80.4003 108.186ZM103.739 100.576C103.092 108.458 99.5145 113.034 90.7751 112C94.1823 112.847 97.5894 112.915 100.247 110.305C101.633 109.112 102.681 107.578 103.285 105.855C103.889 104.133 104.028 102.284 103.688 100.492L103.739 100.576ZM148.032 137.864H148.237C148.083 136.508 147.964 135.136 147.777 133.78C147.543 130.953 146.906 128.174 145.886 125.525C145.488 124.731 145.032 123.966 144.523 123.237L144.165 123.407C146.755 127.678 146.397 132.932 147.913 137.695L148.032 137.864ZM98.6286 96.2034C100.707 98.017 108.271 96.7966 109.412 94.5085C105.75 95.4576 102.445 97.0339 98.5094 96.0339L98.6286 96.2034ZM141.695 111.678C143.254 108.571 143.847 105.071 143.399 101.627L141.695 111.678ZM164.046 114.864L163.91 115.051L169.02 118.576L169.191 118.322C167.708 116.763 165.915 115.528 163.927 114.695L164.046 114.864ZM116.465 113.441L112.104 110.051C112.534 110.861 113.136 111.569 113.869 112.125C114.601 112.682 115.446 113.072 116.346 113.271L116.465 113.441ZM150.077 123.254L150.213 123.508L153.348 121.814L153.211 121.559L150.077 123.254ZM111.099 112.627L110.98 112.831L113.927 114.068V113.864L111.099 112.627ZM112.308 116.017L112.428 115.831L109.94 115.034V115.22L112.308 116.017Z" fill="black"/>
<path d="M53.9608 112.203C53.5349 112.492 53.2964 112.78 53.0408 112.797C52.7853 112.814 52.649 112.475 52.4446 112.288C52.6831 112.085 52.8875 111.814 53.143 111.729C53.3986 111.644 53.5178 111.966 53.9608 112.203Z" fill="black"/>
<path d="M52.6491 122.83C52.4447 122.949 52.1892 123.22 52.0188 123.169C51.7341 123.019 51.4753 122.825 51.2522 122.593C51.4226 122.458 51.6099 122.203 51.7803 122.22C52.0896 122.293 52.3876 122.407 52.6662 122.559L52.6491 122.83Z" fill="black"/>
<path d="M54.5742 109.729C54.2165 109.966 53.978 110.186 53.9098 110.136C53.621 109.949 53.3527 109.733 53.1091 109.492C53.2454 109.356 53.4498 109.085 53.535 109.119C53.8986 109.292 54.2463 109.496 54.5742 109.729V109.729Z" fill="black"/>
<path d="M44.7956 106.864C44.3357 107.102 44.0631 107.339 43.8416 107.305C43.6201 107.271 43.4498 106.966 43.2454 106.78C43.4839 106.644 43.7053 106.407 43.9609 106.373C44.2164 106.339 44.3697 106.593 44.7956 106.864Z" fill="black"/>
<path d="M46.1072 110.542C45.9028 110.695 45.6984 110.932 45.4939 110.932C45.2895 110.932 45.0169 110.542 45.051 110.475C45.1812 110.237 45.3841 110.047 45.6302 109.932C45.8176 109.932 46.0732 110.085 46.3117 110.186L46.1072 110.542Z" fill="black"/>
<path d="M38.782 105.831C39.1227 105.593 39.2931 105.39 39.5145 105.356C39.736 105.322 39.8041 105.593 39.9404 105.746C39.773 105.947 39.578 106.124 39.3612 106.271C39.3612 106.271 39.0716 106.051 38.782 105.831Z" fill="black"/>
<path d="M48.1346 121.508C47.7768 121.746 47.5724 121.983 47.4191 121.966C47.2657 121.949 47.0272 121.678 46.8398 121.525C47.0272 121.373 47.1806 121.152 47.385 121.119C47.5894 121.085 47.7598 121.305 48.1346 121.508Z" fill="black"/>
<path d="M41.644 107.017C41.4396 106.661 41.184 106.424 41.2351 106.305C41.2862 106.186 41.5758 105.966 41.7632 105.797C41.8825 105.932 42.1551 106.102 42.121 106.237C42.0083 106.523 41.8469 106.786 41.644 107.017V107.017Z" fill="black"/>
<path d="M41.2351 116.271C40.9285 116.491 40.724 116.746 40.5707 116.729C40.4174 116.712 40.1959 116.441 40.0085 116.271C40.1448 116.119 40.2982 115.797 40.4344 115.814C40.5707 115.83 40.8774 116.051 41.2351 116.271Z" fill="black"/>
<path d="M43.1261 109.169L43.7734 109.881C43.5861 110 43.3646 110.237 43.2113 110.203C42.9825 110.104 42.7999 109.922 42.7002 109.695C42.7002 109.695 42.9046 109.441 43.1261 109.169Z" fill="black"/>
<path d="M51.3374 105.186C51.5588 105.491 51.7803 105.661 51.7973 105.864C51.8144 106.068 51.5248 106.305 51.4396 106.271C51.3276 106.25 51.2218 106.204 51.1303 106.137C51.0388 106.069 50.9639 105.982 50.9115 105.881C50.8774 105.729 51.1159 105.508 51.3374 105.186Z" fill="black"/>
<path d="M37.1125 111.492C36.839 111.666 36.5403 111.797 36.2266 111.881C36.1244 111.881 35.9881 111.61 35.8689 111.458C36.0563 111.339 36.2266 111.136 36.4311 111.102C36.6355 111.068 36.7548 111.271 37.1125 111.492Z" fill="black"/>
<path d="M51.184 111.61C50.8774 111.831 50.707 112.034 50.5196 112.051C50.3323 112.068 50.23 111.797 50.0938 111.661C50.2601 111.47 50.4488 111.299 50.6559 111.153C50.6559 111.153 50.9285 111.39 51.184 111.61Z" fill="black"/>
<path d="M35.8347 118.152C35.4599 118.356 35.2384 118.559 35.0681 118.525C34.8977 118.491 34.7614 118.254 34.5911 118.102C34.7955 117.983 34.9659 117.78 35.1703 117.763C35.3747 117.746 35.494 117.932 35.8347 118.152Z" fill="black"/>
<path d="M49.6167 122.746L49.0886 122.152C49.259 122 49.4293 121.78 49.6167 121.746C49.8041 121.712 50.0767 121.983 50.0597 122.102C50.0426 122.22 49.8382 122.458 49.6167 122.746Z" fill="black"/>
<path d="M53.041 120.305C52.8536 120 52.6151 119.78 52.6662 119.678C52.7149 119.577 52.7839 119.488 52.8689 119.415C52.9539 119.342 53.0531 119.287 53.1602 119.254C53.1602 119.254 53.5521 119.542 53.535 119.661C53.518 119.78 53.2795 120.017 53.041 120.305Z" fill="black"/>
<path d="M48.0665 118.051H48.8672L49.0035 118.254C48.8161 118.407 48.6287 118.661 48.4413 118.661C48.2539 118.661 48.0665 118.39 47.8792 118.237L48.0665 118.051Z" fill="black"/>
</g>
<defs>
<clipPath id="clip0_209_65">
<rect width="150" height="107" fill="white" transform="translate(25 46)"/>
</clipPath>
</defs>
</svg>
