<svg width="200" height="200" viewBox="0 0 200 200" fill="none" xmlns="http://www.w3.org/2000/svg">
<g clip-path="url(#clip0_209_55)">
<path d="M109.802 148.474C109.714 147.809 109.61 147.291 109.595 146.773C109.595 143.651 109.595 140.53 109.595 137.393C109.595 136.802 109.595 136.21 109.595 135.618C109.577 135.315 109.486 135.02 109.33 134.76C108.696 133.887 108.017 133.059 107.368 132.215C107.321 132.135 107.254 132.069 107.174 132.023C107.094 131.978 107.003 131.953 106.911 131.953C106.818 131.953 106.728 131.978 106.648 132.023C106.567 132.069 106.5 132.135 106.454 132.215C106.162 132.521 105.886 132.842 105.627 133.177C102.589 137.171 99.5599 141.161 96.5409 145.146C96.1906 145.649 95.9448 146.217 95.8181 146.817C95.1035 150.644 94.7039 154.524 94.6233 158.416C94.6233 159.141 94.5053 159.896 94.3725 160.606C94.3019 161.034 94.091 161.427 93.7732 161.722C93.4553 162.016 93.0485 162.196 92.6172 162.233C91.8734 162.481 91.1486 162.782 90.4488 163.136C87.499 164.17 84.4111 164.753 81.2884 164.867C76.287 165.08 71.2766 164.847 66.3162 164.172C62.4342 163.784 58.6937 162.503 55.3858 160.429C53.9761 159.455 52.6218 158.403 51.3293 157.277C50.9571 156.931 50.673 156.501 50.5011 156.022C50.3291 155.543 50.2742 155.03 50.341 154.525C50.4442 151.404 50.636 148.282 50.5622 145.16C50.4885 142.039 50.105 138.533 49.8984 135.219C49.7952 133.739 49.7952 132.112 49.7509 130.573C49.7509 130.277 49.7509 129.981 49.7509 129.685H49.4854C49.4854 129.996 49.3379 130.292 49.2937 130.617C49.0056 133.467 49.0949 136.343 49.5592 139.169C49.7509 140.9 50.0607 142.631 50.2377 144.362C50.2382 144.533 50.2015 144.703 50.1301 144.858C50.0588 145.014 49.9546 145.153 49.8247 145.264C48.2758 146.462 46.6532 147.557 45.0454 148.637C44.8964 148.758 44.7217 148.844 44.5347 148.887C44.3477 148.929 44.1534 148.929 43.9668 148.884C43.7801 148.84 43.6061 148.753 43.4581 148.631C43.3101 148.509 43.192 148.354 43.113 148.179L39.8383 143.148C39.3663 142.409 39.44 142.142 40.2808 141.861C42.5626 141.21 44.6103 139.916 46.1812 138.133C46.6237 137.571 47.0073 136.964 47.4203 136.373L47.199 136.165C47.0073 136.387 46.7712 136.594 46.5942 136.831C44.8448 138.986 42.467 140.538 39.7941 141.27C39.6696 141.337 39.5315 141.375 39.3902 141.381C39.2489 141.386 39.1082 141.36 38.9787 141.303C38.8493 141.245 38.7345 141.16 38.6432 141.051C38.5519 140.943 38.4864 140.815 38.4517 140.678C37.4782 138.34 36.4603 136.017 35.5015 133.665C35.2262 132.883 35.0575 132.067 35 131.239C35.015 130.754 35.163 130.283 35.4278 129.878C35.7523 129.33 36.2243 128.857 36.5931 128.398C37.6221 126.881 38.9165 125.562 40.4136 124.507C40.7238 124.311 40.9805 124.041 41.1608 123.721C41.341 123.4 41.4391 123.04 41.4462 122.673C41.4462 121.77 41.6084 120.868 41.7264 119.98C41.9838 117.575 42.7322 115.249 43.925 113.146C45.1177 111.044 46.7293 109.21 48.6594 107.76C49.4072 107.266 50.1802 106.812 50.9753 106.399C51.5022 106.143 51.9773 105.792 52.3766 105.363C53.7705 103.525 55.8235 102.305 58.1 101.96C58.8523 101.812 59.5751 101.664 60.3274 101.487C61.6195 101.185 62.8161 100.565 63.8086 99.6819C64.3175 99.1666 64.9485 98.7891 65.6424 98.5847C66.3363 98.3803 67.0706 98.3557 67.7766 98.5132C68.0152 98.5211 68.2526 98.4762 68.4718 98.3816C68.6911 98.287 68.8869 98.145 69.0452 97.9658C69.6396 97.3287 70.0908 96.5711 70.3682 95.7442C70.6455 94.9172 70.7427 94.0402 70.653 93.1723C70.6232 91.7108 70.3282 90.267 69.7827 88.9115C69.6149 88.4349 69.5155 87.9367 69.4877 87.432C70.6383 89.3257 71.6118 91.0419 72.7181 92.6545C73.4999 93.8085 74.4883 94.8293 75.3881 95.9093C75.4196 95.9559 75.4596 95.9961 75.5061 96.0277C77.4009 96.7822 79.5116 96.7822 81.4065 96.0277C83.5492 94.5161 85.3738 92.5956 86.7758 90.3761C87.4087 88.9937 87.9029 87.5515 88.2509 86.0709C88.4279 85.5235 88.4722 85.0057 89.313 85.3756C89.5342 85.4791 90.1095 85.198 90.3013 84.9169C91.136 83.6715 91.5732 82.201 91.5551 80.7005C91.5551 80.5821 91.4371 80.4638 91.2601 80.1827C90.9503 80.6265 90.729 80.9964 90.4635 81.3219C90.198 81.6473 90.0653 81.7361 89.8882 81.7065C89.7112 81.6769 89.5342 81.381 89.4752 81.1739C89.0032 79.6945 88.5459 78.0966 88.1476 76.5432C88.1062 76.1923 88.1518 75.8366 88.2804 75.5076C88.4813 74.8992 88.6342 74.2759 88.7377 73.6435C88.7519 73.3045 88.6899 72.9667 88.5564 72.6549C88.4229 72.3432 88.2212 72.0656 87.9663 71.8426C87.7113 71.6195 87.4097 71.4569 87.0836 71.3665C86.7576 71.2762 86.4154 71.2606 86.0825 71.3207C84.7992 71.4983 83.5306 71.7202 82.2473 71.8089C80.6382 71.8744 79.035 71.5761 77.5565 70.9361C76.849 70.6608 76.1111 70.472 75.3586 70.3739C75.0452 70.3076 74.7216 70.3056 74.4074 70.368C74.0932 70.4305 73.7949 70.556 73.5303 70.737C73.2657 70.9181 73.0404 71.1509 72.8679 71.4216C72.6953 71.6922 72.5792 71.9951 72.5264 72.312C72.3131 73.188 72.1603 74.0778 72.0691 74.975C71.995 75.6386 71.7106 76.2608 71.2578 76.7503C70.73 77.4988 70.2661 78.2907 69.8712 79.1175C69.6942 79.4134 69.5024 79.6945 69.3107 79.9756L68.6174 79.1175C68.6174 79.1175 68.6174 79.1175 68.6174 79.0287L67.9683 78.141C67.7471 78.4813 67.3931 78.792 67.3636 79.1471C67.1931 80.8895 67.6828 82.6325 68.7354 84.0293L69.2517 82.7569C69.7326 83.9367 69.9101 85.2187 69.768 86.4852H69.3697C69.2868 86.0866 69.1202 85.7103 68.8812 85.3813C68.6421 85.0522 68.336 84.7779 67.9831 84.5767C66.626 83.6298 65.8885 79.9904 66.508 78.4517C66.5931 78.1803 66.7395 77.9322 66.9358 77.7268C68.1306 76.8095 67.9536 75.5224 67.9536 74.2648C67.9536 72.6966 67.9536 71.1136 67.9536 69.5454C67.9925 68.6807 68.2201 67.8352 68.6202 67.0683C69.0203 66.3014 69.5833 65.6319 70.2695 65.107C70.4018 65.0039 70.5208 64.8846 70.6235 64.7519C71.6759 63.386 73.1572 62.4163 74.8275 62.0001C76.1109 61.4527 77.3352 60.7574 78.589 60.1212C78.9725 59.9141 79.3266 59.6922 79.4446 60.3579C79.5626 61.0237 79.8871 60.9349 80.3149 60.7574C80.7427 60.5799 81.5392 60.1804 82.1587 59.9437C82.4095 59.8549 82.7635 59.7662 82.9405 59.9437C83.1176 60.1212 83.1323 60.4319 83.1028 60.6834C82.9848 61.8226 83.1028 61.9114 84.2386 62.0001C85.1532 62.0741 86.0825 62.2073 86.9823 62.37C87.5576 62.4736 87.8526 62.7399 87.4248 63.376C86.9971 64.0122 87.4248 64.2933 87.9854 64.5744C88.7967 65.033 89.6375 65.4769 90.4193 65.9799C90.7787 66.2385 91.0662 66.5848 91.2547 66.9862C91.4431 67.3875 91.5262 67.8305 91.4961 68.273C91.4961 70.655 91.4961 73.0517 91.3781 75.4336C91.3781 76.4544 91.1716 77.4605 91.1421 78.4665C91.1421 78.7476 91.3928 79.0435 91.5256 79.3246C91.6584 79.6057 92.3074 80.3602 92.2484 80.804C92.0898 82.1968 91.773 83.5668 91.3043 84.8874C91.0683 85.4939 90.2865 85.9674 89.667 86.3668C89.4696 86.4515 89.3083 86.6032 89.2112 86.7953C89.1141 86.9873 89.0875 87.2075 89.1359 87.4172C89.2856 90.0608 90.3258 92.575 92.0861 94.5482C92.2394 94.764 92.4527 94.9296 92.6993 95.0243C92.946 95.119 93.215 95.1387 93.4727 95.0808C95.8892 94.6161 98.3905 94.9374 100.612 95.9981C102.322 96.8682 104.177 97.4149 106.085 97.6107C108.07 97.92 109.978 98.608 111.705 99.6376C113.551 100.608 115.209 101.9 116.602 103.455C118.7 105.587 120.082 108.323 120.555 111.281C120.658 111.692 120.702 112.115 120.688 112.538C120.627 113.29 120.746 114.046 121.033 114.743C121.32 115.44 121.768 116.058 122.34 116.548C123.27 117.495 123.978 118.678 124.818 119.714C124.927 119.772 125.049 119.803 125.172 119.803C125.296 119.803 125.418 119.772 125.527 119.714C126.052 119.019 126.502 118.27 126.869 117.48C128.019 114.639 129.111 111.769 130.173 108.884C130.397 108.324 130.433 107.706 130.276 107.124C129.768 106.058 129.589 104.865 129.763 103.697C129.936 102.529 130.454 101.44 131.25 100.57C131.438 100.369 131.542 100.105 131.542 99.8299C131.542 99.555 131.438 99.2904 131.25 99.0902C130.904 98.5099 130.646 97.8818 130.483 97.226C130.299 96.5335 130.362 95.7984 130.661 95.1474C130.96 94.4965 131.476 93.9707 132.12 93.6605C134.525 92.2435 137.118 91.1727 139.82 90.4797C141.044 90.1394 141.118 90.0211 141.192 88.7339C141.295 86.3668 141.399 83.9997 141.59 81.6473C141.737 80.7731 141.954 79.9122 142.239 79.0731C133.492 78.2446 126.898 74.1021 123.137 66.0095C120.941 61.4333 120.474 56.2134 121.824 51.3184C123.107 46.5061 125.978 42.272 129.97 39.3071C133.961 36.3421 138.836 34.8214 143.8 34.9931C148.763 35.1647 153.523 37.0187 157.301 40.2523C161.079 43.4859 163.652 47.9084 164.602 52.7979C165.247 55.879 165.203 59.0652 164.474 62.1273C163.744 65.1894 162.347 68.0512 160.383 70.507C158.474 72.9877 156.062 75.033 153.305 76.5073C150.548 77.9816 147.51 78.8511 144.393 79.0583C144.614 80.1087 144.894 80.9964 144.998 81.8989C145.367 85.1537 145.676 88.4085 146.016 91.6633C146.001 91.9146 146.001 92.1665 146.016 92.4178C146.134 93.2167 146.34 93.2907 146.974 92.832C147.137 92.7137 147.284 92.5805 147.446 92.477C148.272 91.9888 148.922 92.2699 148.818 93.2315C148.671 95.7461 148.024 98.2059 146.915 100.466C146.252 101.827 145.44 103.099 144.673 104.431C144.466 104.831 144.302 105.253 144.186 105.689C143.213 108.973 142.136 112.361 141.207 115.734C140.859 116.98 140.578 118.245 140.366 119.521C139.777 123.173 138.859 126.763 137.622 130.248C137.254 131.194 136.973 131.816 135.749 132.097C134.167 132.581 132.521 132.826 130.866 132.822C129.709 132.844 128.563 132.598 127.516 132.103C126.47 131.608 125.551 130.877 124.833 129.966C123.579 128.309 122.863 126.305 122.783 124.226C122.702 123.693 122.777 123.147 123 122.656C123.222 122.165 123.583 121.749 124.037 121.46C124.211 121.321 124.336 121.129 124.391 120.912C118.992 123.25 114.626 131.135 115.717 135.115C115.857 134.829 115.956 134.526 116.012 134.212C116.265 131.387 117.286 128.685 118.962 126.401C119.689 125.47 120.477 124.591 121.322 123.768C121.541 123.614 121.779 123.489 122.031 123.398C122.031 127.155 122.916 130.558 126.279 132.496C127.849 133.39 129.619 133.87 131.425 133.894C133.23 133.917 135.012 133.482 136.604 132.629C136.457 133.192 136.413 133.532 136.295 133.828C135.008 136.85 133.115 139.575 130.734 141.832C129.893 142.645 129.008 143.444 128.137 144.243C127.828 144.534 127.46 144.755 127.057 144.89C126.655 145.026 126.229 145.072 125.807 145.027C124.88 145.044 123.961 144.849 123.12 144.457C122.279 144.065 121.538 143.486 120.954 142.764C120.248 141.993 119.375 141.395 118.402 141.018C116.27 140.048 114.284 138.783 112.501 137.26C112.13 136.96 111.73 136.697 111.307 136.476C110.599 136.077 110.333 136.21 110.348 137.053C110.363 137.896 110.466 139.198 110.51 140.263C110.613 142.453 110.702 144.702 110.79 146.862C110.812 147.2 110.728 147.537 110.551 147.825C110.374 148.114 110.113 148.341 109.802 148.474V148.474ZM139.171 48.6998C139.171 49.2176 139.171 49.5135 139.171 49.7946C139.171 52.4428 139.171 55.0911 139.083 57.7393C139.083 60.0473 139.304 59.8845 137.076 60.0325C136.774 60.0459 136.483 60.1525 136.242 60.3378C136.002 60.5231 135.825 60.7781 135.734 61.0681C135.447 61.8926 135.417 62.785 135.646 63.6275C135.882 64.8703 136.118 65.107 137.372 65.0182C138.625 64.9295 140.056 64.7519 141.399 64.6632L150.647 64.1158C151.901 64.0418 152.24 63.5388 152.019 62.2812C151.903 61.7316 151.843 61.1713 151.842 60.6094C151.842 59.8845 151.503 59.5442 150.839 59.5294C150.11 59.5119 149.38 59.5465 148.656 59.633C148.14 59.633 147.918 59.633 147.904 59.0412C147.904 56.7924 147.682 54.5289 147.668 52.2801C147.668 49.0549 147.668 45.8149 147.668 42.5748C147.668 41.9535 147.461 41.7907 146.886 41.8203C144.732 41.9239 142.579 41.9831 140.425 42.0866C140.12 42.1057 139.828 42.2137 139.584 42.3973C139.142 42.8559 138.817 43.4329 138.419 43.8768C137.268 45.3562 136.191 46.8357 134.938 48.0932C133.684 49.3508 133.463 49.7798 134.938 51.0521C135.837 51.8215 135.837 51.8215 136.678 51.0521C137.254 50.4752 137.814 49.8982 138.404 49.3212C138.596 49.1732 138.817 49.0105 139.171 48.6998ZM102.707 98.3356L99.9041 96.7526C98.1045 95.7614 96.2754 95.066 94.2545 96.0869C93.5086 96.3739 92.8267 96.8063 92.2484 97.3592C91.1051 98.9207 89.6607 100.236 88.0011 101.227C86.3414 102.218 84.5001 102.865 82.5865 103.129C82.0555 103.129 82.0112 103.455 82.1587 103.958C82.4044 104.724 82.5434 105.52 82.5718 106.325C82.5718 107.138 82.852 107.301 83.5601 107.242C85.6594 107.15 87.7134 106.6 89.5785 105.629C91.5256 104.564 93.4137 103.395 95.2871 102.197C97.3183 100.632 99.618 99.454 102.073 98.7203C102.298 98.617 102.511 98.4879 102.707 98.3356V98.3356ZM54.545 104.668L54.6778 104.993C54.8461 105.07 55.0252 105.12 55.2088 105.141C57.9854 105.332 60.7371 105.793 63.4251 106.517C65.1372 106.794 66.8683 106.938 68.6026 106.946C68.7921 106.951 68.9804 106.914 69.1538 106.837C69.3272 106.76 69.4816 106.646 69.6057 106.502C70.1367 105.689 70.535 104.786 71.0808 103.81L69.8565 103.529C69.4247 103.498 69.0036 103.379 68.6188 103.18C68.234 102.981 67.8934 102.706 67.6176 102.371C67.3418 102.037 67.1366 101.649 67.0143 101.233C66.8921 100.816 66.8553 100.379 66.9063 99.9482C66.9063 99.46 66.6555 99.2233 66.2277 99.4156C65.6833 99.5916 65.1811 99.8788 64.7526 100.259C63.2396 101.71 61.3094 102.647 59.2358 102.937C58.235 103.107 57.2487 103.355 56.2856 103.676C55.6779 103.956 55.0955 104.287 54.545 104.668V104.668ZM74.2965 110.216C75.3391 110.28 76.3836 110.123 77.362 109.756C78.3403 109.389 79.2308 108.82 79.9756 108.085C80.4793 107.74 80.8598 107.242 81.0614 106.665C81.2631 106.087 81.2755 105.46 81.0967 104.875C80.8404 104.297 80.3947 103.826 79.8338 103.538C79.2729 103.25 78.6306 103.163 78.0137 103.292C76.3515 103.491 74.7117 103.848 73.1164 104.357C72.4439 104.597 71.8487 105.016 71.3942 105.568C70.9397 106.12 70.6428 106.786 70.535 107.493C70.4425 107.762 70.4116 108.048 70.4444 108.331C70.4772 108.613 70.5729 108.884 70.7245 109.124C70.8761 109.365 71.0797 109.567 71.3201 109.718C71.5605 109.868 71.8317 109.963 72.1134 109.994C72.8368 110.105 73.5655 110.179 74.2965 110.216V110.216ZM124.45 52.5168C125.161 49.8365 126.433 47.3385 128.18 45.1883C129.927 43.0382 132.11 41.285 134.584 40.045C137.052 38.7635 139.775 38.0543 142.553 37.9698C145.331 37.8853 148.092 38.4276 150.633 39.5568C154.882 41.3637 158.339 44.6471 160.369 48.8043C162.399 52.9615 162.866 57.7136 161.684 62.1883C160.502 66.663 157.751 70.5601 153.935 73.1644C150.12 75.7686 145.496 76.9053 140.912 76.3657C138.255 76.1177 135.687 75.2818 133.391 73.9182C131.095 72.5547 129.13 70.6974 127.636 68.4802C126.082 66.3117 124.982 63.8503 124.401 61.2443C123.821 58.6382 123.772 55.9412 124.258 53.3157C123.384 57.0075 123.637 60.8774 124.984 64.4232C126.33 67.969 128.709 71.0268 131.81 73.1996C135.396 75.7137 139.718 76.9496 144.086 76.7099C148.454 76.4702 152.616 74.7687 155.907 71.8774C159.198 68.986 161.427 65.0717 162.238 60.7601C163.049 56.4486 162.396 51.9886 160.383 48.0932C158.351 44.1773 155.061 41.0638 151.046 39.2568C147.03 37.4497 142.524 37.055 138.257 38.1365C130.365 40.1189 125.069 47.1168 124.391 52.4724L124.45 52.5168ZM103.887 113.027L103.636 112.76C103.341 112.953 103.046 113.13 102.781 113.323C101.187 114.521 99.6534 115.823 97.9865 116.888C94.9581 118.951 91.304 119.883 87.6609 119.521C84.9762 119.226 82.2915 118.9 79.6068 118.619C77.1961 118.229 74.7613 118.006 72.3199 117.953C68.6031 118.099 64.9245 118.761 61.3894 119.921C60.7846 120.098 60.1946 120.32 59.5898 120.528C60.9175 120.457 62.2359 120.264 63.5283 119.951C68.0413 118.826 72.7245 118.56 77.3352 119.166C80.4722 119.61 83.624 120.015 86.7905 120.38C89.7971 120.835 92.8709 120.409 95.6411 119.152C98.4593 118 101.01 116.277 103.135 114.092C103.407 113.753 103.659 113.397 103.887 113.027V113.027ZM88.3836 90.243C86.3185 92.9504 83.5011 94.6814 81.0082 97.0485C81.4145 97.1028 81.8262 97.1028 82.2325 97.0485C83.9436 96.5011 85.6695 95.9685 87.3363 95.3175C88.0566 94.9981 88.7234 94.5689 89.313 94.0452C89.4277 93.9368 89.5145 93.8021 89.5659 93.6526C89.6173 93.5032 89.6317 93.3434 89.608 93.1871C89.2835 92.1959 88.8262 91.2194 88.3836 90.243ZM78.1612 126.534C78.0727 126.86 78.0432 126.919 78.058 126.963C78.0908 127.069 78.1302 127.173 78.176 127.274C79.4937 129.615 80.2369 132.237 80.3444 134.923C80.3444 137.882 80.2264 140.722 80.0936 143.607C80.0936 145.087 79.8281 146.566 79.6806 148.045H79.8724C79.9901 147.714 80.0789 147.372 80.1379 147.025C80.4771 144.243 80.8902 141.447 81.0672 138.651C81.3794 135.321 80.8414 131.965 79.5036 128.901C79.1348 128.206 78.6775 127.481 78.1612 126.534ZM60.7846 126.8C58.575 129.337 57.1771 132.481 56.7724 135.825C56.1971 139.731 56.0643 144.805 56.5659 145.885C57.1264 139.228 56.7281 132.526 60.7846 126.8V126.8ZM105.613 118.752C105.613 118.752 105.613 118.841 105.613 118.9C105.605 119.013 105.605 119.127 105.613 119.24C105.229 122.037 106.542 124.271 108.076 126.401C109.19 127.879 110.738 128.971 112.501 129.523C112.796 129.595 113.098 129.63 113.401 129.626L113.549 129.301C111.425 128.407 109.569 126.974 108.165 125.143C106.759 123.281 105.878 121.073 105.613 118.752V118.752ZM51.226 123.516C50.9313 123.305 50.6206 123.117 50.2967 122.954C49.8022 122.805 49.3552 122.528 49.0006 122.152C48.6459 121.776 48.396 121.312 48.2758 120.809C47.9762 119.853 47.8807 118.845 47.9956 117.85C48.4175 116.374 48.9551 114.935 49.6034 113.544C49.8247 112.997 50.1345 112.494 50.4 111.976L50.2082 111.932C48.7511 113.668 47.7384 115.735 47.258 117.953C46.9977 119.497 47.3297 121.083 48.1873 122.392C48.5293 122.856 48.9992 123.21 49.5391 123.409C50.079 123.609 50.6654 123.646 51.226 123.516V123.516ZM67.4521 134.849C67.4521 134.967 67.3783 135.071 67.3636 135.174C66.8473 138.592 66.3457 142.024 65.8885 145.442C65.741 146.448 65.4902 147.439 65.4459 148.401C65.4459 149.747 65.5197 151.108 65.5787 152.454C65.6 152.654 65.6345 152.851 65.682 153.046C65.6229 146.921 66.8915 140.914 67.4521 134.849ZM148.258 67.3706L148.346 67.5925C149 67.3296 149.64 67.0333 150.264 66.7048C150.377 66.6162 150.467 66.5011 150.527 66.3696C150.586 66.2382 150.612 66.0942 150.603 65.9503C150.527 65.8233 150.422 65.7166 150.296 65.6393C150.17 65.562 150.028 65.5165 149.88 65.5065C148.787 65.4868 147.728 65.8954 146.93 66.6456C146.163 67.4297 146.355 68.2435 147.417 68.3174C149.113 68.4358 150.81 68.3174 152.521 68.3174C152.521 68.3174 152.521 68.1991 152.757 67.9624C152.108 67.9624 151.577 67.9624 151.06 67.9624C150.102 67.9624 149.158 68.0955 148.213 68.1103C147.682 68.1103 147.122 67.3262 147.314 66.9119C147.676 66.5059 148.164 66.234 148.699 66.1401C149.234 66.0461 149.786 66.1356 150.264 66.3941L148.258 67.3706ZM109.197 112.213C112.334 112.119 115.437 112.875 118.181 114.403C118.47 114.495 118.766 114.564 119.066 114.61C117.605 112.583 111.838 111.177 109.197 112.213ZM71.8773 92.5953C71.6669 93.0371 71.5827 93.5288 71.6341 94.0157C71.6855 94.5026 71.8705 94.9657 72.1685 95.3535C72.4666 95.7413 72.8659 96.0387 73.3223 96.2126C73.7787 96.3864 74.2742 96.43 74.7538 96.3384L71.8773 92.5953ZM137.239 67.5481H138.109C138.516 67.4607 138.932 67.4161 139.348 67.415C139.708 67.5095 140.051 67.6592 140.366 67.8588C140.204 68.1695 140.115 68.6281 139.864 68.7465C139.153 69.0392 138.424 69.2862 137.681 69.4862C138.207 69.7011 138.792 69.7224 139.332 69.5464C139.872 69.3704 140.332 69.0084 140.631 68.5245C140.702 68.3148 140.721 68.0912 140.687 67.8725C140.654 67.6538 140.569 67.4462 140.44 67.267C139.947 66.9613 139.37 66.8236 138.793 66.8742C138.216 66.9249 137.671 67.1613 137.239 67.5481V67.5481ZM142.284 68.5689H142.52V68.2582C142.52 67.7552 142.416 67.1634 143.065 67.0303C143.714 66.8971 144.009 67.4002 144.245 67.9032C144.378 68.1695 144.481 68.4358 144.673 68.85C144.776 68.4184 144.725 67.9642 144.528 67.5667C144.331 67.1693 144.002 66.8537 143.596 66.6752C143.391 66.6355 143.18 66.64 142.976 66.6885C142.773 66.737 142.582 66.8283 142.416 66.9563C141.885 67.415 142.151 68.0363 142.284 68.5837V68.5689ZM47.8776 126.179C47.7512 125.492 47.3676 124.879 46.8054 124.467C46.2431 124.054 45.5449 123.873 44.8536 123.96L47.8776 126.179ZM147.21 71.1432C146.679 71.4835 146.37 71.661 146.089 71.8681C146.029 71.9193 145.981 71.9827 145.948 72.0542C145.915 72.1257 145.898 72.2035 145.898 72.2824C145.898 72.3711 146.089 72.5487 146.148 72.5339C146.458 72.5339 146.842 72.4303 147.004 72.2232C147.166 72.0161 147.107 71.6018 147.21 71.1432ZM73.3524 113.175H73.1017L72.4969 116.134H72.7772L73.3524 113.175ZM78.8988 153.357H78.6038L77.7777 156.316L77.999 156.39L78.8988 153.357ZM148.774 72.1048L149.04 72.0013L148.951 70.5218C148.734 70.6078 148.522 70.7066 148.317 70.8177C148.435 71.232 148.582 71.661 148.774 72.1048ZM151.724 72.1048L151.945 72.2528C152.181 72.0309 152.653 71.7794 152.624 71.587C152.594 71.3947 152.211 71.0544 151.96 70.7881L151.665 70.9657C152.491 71.3503 152.122 71.735 151.768 72.1196L151.724 72.1048Z" fill="black"/>
<path d="M103.12 153.919C103.038 149.144 103.216 144.368 103.651 139.613H104.049C104.115 139.86 104.159 140.112 104.182 140.367C104.182 142.853 104.3 145.353 104.3 147.853C104.3 149.333 104.3 150.945 104.093 152.484C103.949 153.006 103.731 153.504 103.444 153.963L103.12 153.919Z" fill="black"/>
</g>
<defs>
<clipPath id="clip0_209_55">
<rect width="130" height="130" fill="white" transform="translate(35 35)"/>
</clipPath>
</defs>
</svg>
