<svg width="200" height="200" viewBox="0 0 200 200" fill="none" xmlns="http://www.w3.org/2000/svg">
<g clip-path="url(#clip0_209_53)">
<path d="M11.6443 143.698C12.1033 142.133 12.527 140.534 13.0213 138.996C13.9864 136.536 14.2908 133.867 13.9041 131.253C13.4536 129.113 12.8367 127.012 12.0592 124.969C10.8234 121.371 10.4527 117.765 12.1475 114.256C12.9062 112.763 13.8886 111.395 15.0604 110.199C16.3016 109 17.6422 107.909 19.0679 106.938C21.1783 105.35 22.7723 103.173 23.6491 100.68C23.9845 99.7961 24.3553 98.9122 24.726 97.9753C26.6944 93.2643 30.7814 91.4966 35.6274 92.1153C36.6219 92.2493 37.6265 92.2907 38.6286 92.239C39.9792 92.1683 40.2616 91.5319 39.7408 90.2768C39.1053 88.7212 38.5168 87.1479 37.9754 85.557C37.0927 82.9054 38.1078 80.6338 39.935 78.8219C41.2365 77.5927 42.7008 76.5488 44.2868 75.7195C46.3876 74.5705 48.6297 73.669 50.8188 72.679C51.1017 72.5158 51.4325 72.4564 51.7544 72.5111C53.3521 73.1387 55.197 73.2359 56.4239 74.6854C56.7244 75.0455 57.0717 75.3636 57.4567 75.6312C58.054 76.0379 58.521 76.6089 58.8014 77.2755C59.0817 77.942 59.1635 78.6756 59.0367 79.3876C58.975 80.1654 58.8072 80.9344 58.6925 81.7122C57.0154 82.2071 56.9271 82.3044 56.9271 84.1516C56.9137 84.3662 56.8691 84.5776 56.7947 84.7792C56.4504 85.6631 56.0797 86.485 55.7619 87.3512C55.5501 87.9346 55.3117 88.1909 54.6585 87.8374C53.6522 87.307 52.8313 87.8374 53.0785 89.0041C53.3256 90.1708 53.8023 90.9309 53.8376 91.3905C53.6574 91.8205 53.5012 92.2601 53.3698 92.7075C53.1485 93.4557 52.7531 94.1407 52.216 94.7061C51.6789 95.2716 51.0155 95.7013 50.2803 95.9601C48.1265 96.844 45.8668 97.2506 43.6953 95.801C43.5805 95.7424 43.4589 95.6979 43.3334 95.6684L43.1039 95.9248C43.633 96.4946 44.196 97.0318 44.7899 97.5334C47.7011 99.5985 51.0992 100.869 54.6497 101.219C55.2113 101.256 55.7573 101.419 56.2474 101.696L50.298 103.703C47.7258 104.461 44.9751 104.343 42.4772 103.367C39.8732 102.483 39.0347 100.194 40.0851 97.2594C40.5176 96.0573 41.1796 94.9348 41.6122 93.7239C41.7269 93.4146 41.4356 92.8401 41.1796 92.5572C40.9262 92.3696 40.6088 92.2901 40.2969 92.3363C38.302 92.4777 36.2806 92.9903 34.3387 92.7693C32.6196 92.5718 30.8817 92.914 29.3652 93.7484C27.8488 94.5828 26.6287 95.8684 25.8735 97.4273C25.3704 98.541 24.8496 99.6547 24.4612 100.804C23.2166 104.472 20.6921 107.132 17.7173 109.377C16.7148 110.032 15.7725 110.774 14.9015 111.596C11.4501 115.22 11.5472 119.409 12.6947 123.802C13.1008 125.322 13.6481 126.851 14.1336 128.318C15.1736 131.68 15.1242 135.284 13.9923 138.616L13.039 141.674L13.3303 141.948C13.8334 141.338 14.3189 140.71 14.8662 140.127C15.4159 139.499 16.1192 139.026 16.9069 138.753C17.6947 138.481 18.5398 138.418 19.3592 138.571C21.1377 138.95 22.7256 139.946 23.8433 141.382L27.6125 146.358C29.2455 148.515 31.4787 148.807 33.9061 148.329C36.2446 147.745 38.6624 147.545 41.0649 147.737C42.1363 147.832 43.1952 148.036 44.225 148.347C47.9853 149.62 51.728 150.999 55.4794 152.298C55.7115 152.367 55.9473 152.423 56.1856 152.466C56.0356 150.459 56.1856 148.524 55.6825 146.756C55.0171 144.71 54.1507 142.735 53.0961 140.861C51.2601 137.21 48.9827 133.692 48.6826 129.494C48.2766 123.775 48.6826 118.128 51.2601 112.851C53.1804 108.662 56.597 105.345 60.8375 103.553C61.2666 103.308 61.6638 103.011 62.0203 102.669C62.2047 102.737 62.3821 102.823 62.5499 102.925C63.0266 103.252 63.6092 103.986 63.9446 103.888C65.0273 103.494 66.0633 102.981 67.0341 102.359C67.307 102.14 67.4842 101.823 67.5284 101.475C67.7226 99.911 67.855 98.3377 67.9962 96.7733C67.9627 96.572 67.9034 96.3759 67.8197 96.1899C66.937 96.676 66.1337 97.1357 65.3128 97.5776C63.6445 98.4615 61.9585 99.3453 60.3078 100.282C59.9724 100.468 59.7782 100.91 59.4251 101.387H57.5979C57.5097 100.821 57.4302 100.291 57.3596 99.7607C57.3596 99.5574 57.2449 99.2569 57.3596 99.1597C58.869 97.7367 58.6307 95.748 59.0721 93.9802C59.2751 93.1759 59.5134 92.3716 59.7341 91.585C62.5323 92.5661 65.1009 92.2037 67.6784 91.6557C67.7975 91.6267 67.9091 91.5732 68.0064 91.4986C68.1037 91.4241 68.1844 91.3301 68.2434 91.2226C68.72 89.7288 69.8146 89.8526 70.9621 90.1443C71.1271 90.2167 71.3053 90.2544 71.4855 90.255C71.6656 90.2556 71.844 90.2192 72.0096 90.1479C72.1751 90.0766 72.3243 89.9721 72.4478 89.8407C72.5713 89.7093 72.6665 89.5539 72.7275 89.3841C72.8792 88.9516 73.0713 88.5343 73.3013 88.1379C74.4135 86.5823 75.6757 85.2918 77.8472 85.4863C78.2268 85.4863 78.7299 85.1592 79.0477 84.8852C88.8545 77.3547 98.6614 69.8418 108.556 62.4439C115.856 56.9816 123.262 51.6607 130.624 46.3133C131.113 46.0249 131.54 45.6419 131.879 45.1867C132.219 44.7314 132.464 44.213 132.601 43.6617C132.652 43.2171 132.877 42.8107 133.226 42.5309C133.574 42.2512 134.019 42.1207 134.464 42.1679C135.4 42.1149 136.344 42 137.227 42C137.677 42.0303 138.108 42.1967 138.463 42.4773C139.208 43.0388 139.9 43.6691 140.528 44.3599C140.956 44.8149 141.483 45.1661 142.067 45.3866C142.651 45.6072 143.278 45.6914 143.9 45.6327C148.128 45.7476 152.365 45.9774 156.593 46.1807C157.873 46.2514 159.656 48.4434 159.515 49.7162C159.515 49.8703 159.474 50.0217 159.397 50.1554C159.321 50.289 159.21 50.4002 159.077 50.4779C158.944 50.5557 158.794 50.5972 158.64 50.5985C158.486 50.5997 158.334 50.5607 158.2 50.4851C156.991 49.9548 155.764 49.2742 154.59 48.6555C154.466 48.5848 154.298 48.4699 154.281 48.3638C154.051 46.932 152.957 47.2325 152.03 47.2237H145.665C145.295 47.2237 144.915 47.2944 144.262 47.3562C144.537 47.7196 144.832 48.0678 145.145 48.3992C149.894 52.518 154.643 56.6457 159.427 60.7203C159.936 61.1102 160.552 61.3353 161.192 61.3655C164.988 61.5953 168.792 61.7456 172.597 61.9312C173.709 61.9842 175.448 64.0878 175.174 65.1662C175.095 65.4844 174.336 65.944 174.124 65.8379C172.676 65.1573 170.875 64.9982 170.072 63.2659C169.99 63.1545 169.883 63.0628 169.761 62.9971C169.639 62.9314 169.504 62.8934 169.366 62.8858C167.248 62.8858 165.129 62.8858 163.011 62.8858C162.852 62.8858 162.702 63.0095 162.401 63.1333C162.603 63.4025 162.825 63.6565 163.064 63.8934C166.594 66.9781 170.187 70.0805 173.727 73.1563C174.474 73.83 175.449 74.1935 176.454 74.1728C179.429 74.1728 182.412 74.3495 185.387 74.4645C186.062 74.6294 186.673 74.99 187.144 75.5009C187.615 76.0118 187.925 76.6505 188.035 77.337C188.035 78.0264 187.594 78.3888 186.967 78.1237C185.696 77.5933 184.275 77.2928 183.436 75.9935C183.381 75.9027 183.306 75.8248 183.218 75.7653C183.13 75.7059 183.029 75.6661 182.924 75.6488C181.035 75.6488 179.155 75.6488 176.922 75.6488C177.416 76.1968 177.655 76.5327 177.946 76.789C178.428 77.3223 178.96 77.8077 179.535 78.2386C180.859 79.1224 181.018 80.1124 180.568 81.6326C178.555 88.4649 176.701 95.3326 174.742 102.183C174.468 103.164 174.618 103.756 175.624 104.145C176.156 104.376 176.657 104.673 177.116 105.029C177.655 105.426 177.672 105.983 176.966 106.116C174.318 106.602 171.67 107.442 168.889 106.036C164.591 103.871 160.177 102.032 155.764 100.097C154.528 99.5486 154.475 99.584 153.998 100.866C150.779 109.527 147.543 118.189 144.288 126.851C143.2 129.744 142.099 132.635 140.987 135.522C140.758 136.132 140.74 136.556 141.411 136.954C141.751 137.264 141.972 137.683 142.037 138.138C142.142 138.665 142.198 139.201 142.205 139.738C142.175 140.229 142.326 140.714 142.628 141.101C142.931 141.489 143.364 141.752 143.847 141.842C145.348 142.169 145.789 143.123 145.842 144.582C145.948 147.596 146.195 150.61 146.433 153.624C146.504 154.561 146.177 154.923 145.233 154.923C138.76 154.923 132.287 154.923 125.813 154.923C124.931 154.923 124.489 154.622 124.56 153.659C124.798 150.291 124.948 146.915 125.257 143.556C125.335 143.241 125.485 142.949 125.697 142.703C125.909 142.457 126.175 142.265 126.475 142.142C128.356 141.603 128.832 140.321 128.868 138.607C128.868 137.148 129.229 136.839 130.686 136.839C131.151 136.862 131.609 136.725 131.986 136.452C132.364 136.179 132.636 135.786 132.76 135.336C137.221 123.068 141.693 110.803 146.177 98.541C147.007 96.2695 147.016 96.2695 144.836 95.2972L122.874 85.3095L122.486 85.1327C120.438 84.1782 120.385 84.0279 121.047 81.8447C124.354 70.9025 127.652 59.9513 130.942 48.9914C131.038 48.5658 131.109 48.1349 131.154 47.7009C130.704 47.9194 130.268 48.1644 129.847 48.4346C118.831 56.7547 107.821 65.0748 96.8165 73.395C91.4673 77.4431 86.1623 81.5707 80.8396 85.6631C80.514 85.84 80.2637 86.1294 80.1354 86.4774C80.0072 86.8254 80.0096 87.2082 80.1422 87.5545C80.3806 88.1795 80.4602 88.8539 80.3739 89.5173C80.2876 90.1807 80.0382 90.8122 79.6479 91.3552C79.3767 91.719 79.2102 92.1503 79.1667 92.6022C79.1231 93.0541 79.204 93.5093 79.4007 93.9184C80.0451 95.5889 80.6189 97.2948 81.1662 98.9918C81.311 99.2849 81.3484 99.6196 81.2721 99.9375C80.8837 100.706 80.4953 101.352 81.8547 101.467C81.9076 101.467 82.1018 102.633 81.8547 102.881C80.7336 103.986 80.6101 105.276 80.5659 106.752C80.5196 107.827 80.217 108.876 79.6832 109.81C77.9178 112.904 76.1524 116.103 73.5661 118.649C73.2218 118.976 72.8952 119.338 72.3656 119.886C72.8275 119.959 73.2931 120.007 73.7603 120.028C78.8849 120.039 83.9295 121.301 88.4573 123.705C90.3468 124.65 92.136 125.784 93.7977 127.09C95.7396 128.663 95.7396 130.06 93.9742 131.863C92.6528 133.216 91.4314 134.663 90.3198 136.194C89.1278 137.642 87.781 138.955 86.3035 140.109C86.0472 140.292 85.8536 140.55 85.7493 140.848C85.645 141.145 85.6351 141.468 85.7209 141.771C86.1446 143.813 86.4624 145.872 86.7537 147.958C87.0538 150.168 88.5191 151.591 90.0373 152.978C90.3463 153.27 90.973 153.252 91.4673 153.297C92.4736 153.385 93.0738 153.906 93.0915 154.808C93.1092 155.71 92.3942 155.939 91.6439 156.019C89.5077 156.258 87.3716 156.523 85.2266 156.735C84.7975 156.76 84.3671 156.727 83.9467 156.638C83.2229 156.514 82.8168 156.054 83.0022 155.338C83.8849 152.077 82.4549 149.602 80.513 147.171C79.1183 145.404 79.3831 145.598 77.5647 146.579C76.0641 147.384 74.9166 148.347 74.5988 150.115C74.3363 150.98 74.4255 151.913 74.847 152.713C75.2686 153.512 75.9883 154.113 76.8497 154.384C77.2682 154.489 77.6784 154.624 78.0767 154.79C78.4487 155.074 78.789 155.397 79.0918 155.754C78.7652 156.081 78.4827 156.638 78.1032 156.691C76.9336 156.87 75.7547 156.982 74.5724 157.027C74.2899 157.027 74.0074 156.912 73.6896 156.912C72.7932 156.919 71.907 156.72 71.0991 156.331C70.2912 155.942 69.583 155.372 69.029 154.667C68.4189 153.963 67.6668 153.396 66.8222 153.005C64.9156 152.121 65.3393 149.266 66.7516 148.524C69.2673 147.198 70.0264 144.626 71.1651 142.337C71.5712 141.559 70.7591 141.453 70.2824 141.17C68.7553 140.374 67.2371 139.579 65.7277 138.766C65.4838 138.612 65.2561 138.435 65.048 138.235C63.6356 136.998 63.7239 137.025 63.0972 138.845C62.3028 141.117 61.3318 143.327 60.4491 145.563C60.1931 146.19 59.69 146.553 59.1074 146.164C58.8602 146.005 58.7896 145.28 58.922 144.891C59.8577 142.319 60.8993 139.791 61.8261 137.228C62.2321 136.114 61.6496 135.221 60.502 135.407C57.4586 135.874 54.3523 135.153 51.8251 133.392L51.5161 133.604C52.2488 135.716 52.9284 137.855 53.7493 139.941C54.6321 142.231 55.9649 144.361 56.5828 146.774C57.0595 148.541 56.8212 150.61 56.7329 152.528C56.6711 153.659 56.2651 153.685 55.2411 153.261C53.361 152.492 51.4367 151.829 49.5035 151.202C46.4406 150.203 43.5276 148.639 40.1998 148.656C38.6021 148.656 36.9956 148.842 35.3979 148.992C34.1973 149.204 32.9863 149.352 31.77 149.434C29.1219 149.434 27.3565 147.94 25.953 145.748C25.0785 144.345 24.0768 143.026 22.9606 141.806C22.1739 140.978 21.24 140.303 20.2066 139.818C19.3652 139.427 18.4171 139.33 17.5143 139.543C16.6116 139.757 15.8065 140.267 15.2281 140.993C14.4248 141.877 13.5686 142.681 12.7212 143.503C12.4869 143.688 12.2322 143.845 11.9621 143.972L11.6443 143.698ZM180.153 80.1035C179.925 79.7399 179.659 79.4021 179.358 79.0959C169.163 70.2838 158.915 61.56 148.781 52.686C145.63 49.9371 142.064 47.6302 139.539 44.1832C139.116 43.5998 138.657 43.7059 138.471 44.3953C138.048 45.6592 137.589 46.9055 137.209 48.1782C134.008 58.7846 130.812 69.3911 127.623 79.9975C127.182 81.4382 127.376 81.6503 128.823 81.2349C129.517 80.9783 130.258 80.8747 130.995 80.9311C131.733 80.9876 132.449 81.2027 133.096 81.5619C146.133 88.5533 159.241 95.4209 172.323 102.315C173.418 102.898 173.656 102.801 173.991 101.635L178.626 85.5658C179.129 83.7981 179.597 82.0304 180.153 80.1035ZM76.4349 133.136C76.7588 133.407 77.162 133.566 77.5838 133.588C78.0057 133.61 78.4233 133.495 78.774 133.259C79.7097 132.331 80.8307 132.375 81.9253 132.154C82.3174 132.018 82.6887 131.827 83.0287 131.589L82.8168 131.129L76.4349 133.136ZM72.1008 97.0119C70.459 96.5258 70.15 97.2947 70.1588 98.6559C70.1588 99.3011 70.6531 99.5398 71.0415 99.0536C71.4665 98.4129 71.8216 97.7285 72.1008 97.0119V97.0119ZM51.1983 136.574L51.5161 136.459C51.0836 134.974 51.013 133.357 50.0773 132.04L49.6006 132.208L51.1983 136.574ZM73.3895 93.9626C74.6518 93.2201 74.8019 92.681 74.0869 91.8059C72.7893 92.133 73.5131 93.1317 73.3895 93.9626Z" fill="black"/>
<path d="M38.7699 94.2366C37.5153 95.7235 36.3846 97.3109 35.3892 98.9829C33.2707 103.323 35.089 107.008 39.7497 108.272C40.3235 108.423 40.8796 108.644 41.6122 108.891C39.7585 109.607 36.4396 108.361 35.1067 106.337C32.3703 102.2 34.4094 98.8062 36.9957 95.5182C34.2513 97.0081 32.0505 99.3325 30.7108 102.156C29.1688 105.962 28.3601 110.025 28.3275 114.132C28.2799 116.058 27.7746 117.944 26.8535 119.635C25.9325 121.326 24.6222 122.772 23.0313 123.855C22.8868 123.963 22.7365 124.064 22.5811 124.155C22.5811 124.155 22.4575 124.155 22.228 124.155C22.687 123.661 23.0666 123.201 23.4903 122.803C24.6824 121.736 25.6512 120.443 26.3406 118.999C27.03 117.555 27.4263 115.988 27.5066 114.389C27.6597 110.79 28.2707 107.226 29.325 103.782C30.7373 99.363 34.0033 96.7644 37.7195 94.5106C38.0538 94.3665 38.4079 94.2741 38.7699 94.2366V94.2366Z" fill="black"/>
<path d="M56.1327 104.145C52.9108 105.444 49.9537 107 47.6852 109.651C46.5465 110.995 45.5843 112.48 44.5604 113.912C42.6273 116.625 40.7824 119.427 38.7522 122.07C36.722 124.712 33.8797 125.72 30.8079 126.401C31.2479 126.101 31.708 125.832 32.1849 125.596C35.5401 124.149 38.3909 121.737 40.3764 118.667C41.8946 116.395 43.4658 114.088 45.0106 111.826C47.3888 108.2 50.9777 105.54 55.1352 104.322C55.4637 104.242 55.7968 104.183 56.1327 104.145V104.145Z" fill="black"/>
<path d="M40.3322 114.38C37.7724 115.122 35.1508 115.732 32.9263 113.876C31.1168 112.356 31.1609 110.182 31.6111 108.025C31.6707 109.028 31.7975 110.026 31.9907 111.012C32.1393 111.893 32.5954 112.691 33.2777 113.266C33.96 113.841 34.8241 114.154 35.7157 114.15C37.2516 114.292 38.7875 114.309 40.3322 114.38Z" fill="black"/>
</g>
<defs>
<clipPath id="clip0_209_53">
<rect width="177" height="115" fill="white" transform="translate(11 42)"/>
</clipPath>
</defs>
</svg>
