<svg width="200" height="200" viewBox="0 0 200 200" fill="none" xmlns="http://www.w3.org/2000/svg">
<g clip-path="url(#clip0_209_67)">
<path d="M94.8251 151.038C94.6554 150.018 95.4048 149.253 95.7441 148.389C96.0834 147.525 96.5076 146.661 96.9318 145.712C95.8572 145.585 94.924 145.443 93.9908 145.401C93.807 145.401 93.5525 145.755 93.4394 145.995C92.6901 147.525 91.9407 149.069 91.2337 150.641C91.1327 150.891 90.9551 151.103 90.7264 151.245C90.4977 151.388 90.2298 151.454 89.9612 151.434C88.0524 151.576 86.1578 151.873 84.3056 152.015C78.7883 152.582 73.2222 151.601 68.2294 149.182C65.0905 147.549 61.9658 145.892 58.8552 144.211C58.029 143.725 57.2355 143.186 56.4798 142.596C56.18 142.401 55.933 142.135 55.7603 141.821C55.5877 141.507 55.4949 141.156 55.4901 140.797C55.0951 137.324 54.1401 133.937 52.6622 130.77C51.7573 128.419 50.7252 126.11 49.7496 123.773C49.6625 123.641 49.5631 123.518 49.4527 123.405C49.4067 123.658 49.3737 123.913 49.3537 124.17C49.3537 127.805 49.3537 131.445 49.3537 135.09C49.3537 135.288 49.3537 135.486 49.3537 135.685C49.3537 135.883 49.3537 136.166 49.3537 136.393C49.1015 136.3 48.8598 136.182 48.6326 136.039C48.4996 135.927 48.4015 135.78 48.3498 135.614C46.1724 130.572 43.1749 125.94 41.5489 120.686C40.6016 117.64 39.6542 114.581 38.919 111.479C38.6801 109.981 38.5995 108.462 38.6786 106.947C38.6786 106.168 38.6786 105.389 38.6786 104.61C38.6616 104.296 38.73 103.982 38.8766 103.704C40.2198 101.976 41.4641 100.234 42.7649 98.4491C42.8546 98.3933 42.9492 98.3459 43.0476 98.3075L43.2739 98.4491C42.68 99.4547 42.1145 100.446 41.5206 101.438C41.3408 101.739 41.1273 102.02 40.8843 102.273C38.8059 104.114 38.8766 106.522 39.117 109.043C39.8094 113.623 41.1322 118.084 43.0476 122.3C44.4615 126.011 46.3986 129.608 48.1377 133.163C48.1377 133.263 48.265 133.319 48.4205 133.503C48.4205 133.163 48.5053 132.937 48.5053 132.724C48.5053 128.235 48.5053 123.759 48.5053 119.283C48.3922 114.185 48.0953 109.1 47.9822 104.015C47.9302 101.782 48.0341 99.5486 48.2932 97.3302C48.6467 94.4267 49.4385 91.6649 51.9836 89.8095C52.0408 89.7454 52.0798 89.6672 52.0967 89.5829L51.9694 89.3704C51.4778 89.5966 51.005 89.8619 50.5555 90.1636L39.5411 99.3697C38.608 100.149 38.5514 100.262 39.2442 101.282C39.4353 101.545 39.5569 101.852 39.5977 102.174C39.3735 102.151 39.1541 102.094 38.9473 102.004C38.6678 101.873 38.4294 101.668 38.2577 101.411C38.086 101.153 37.9876 100.854 37.9731 100.545C37.9585 100.237 38.0284 99.9296 38.1752 99.6575C38.3219 99.3854 38.54 99.1586 38.8059 99.0015C41.7044 96.7212 44.6171 94.4692 47.5015 92.1606C48.4488 91.4099 49.2688 90.4893 50.202 89.7245C51.0985 88.9597 52.2491 88.5603 53.4257 88.6056C53.8752 88.5648 54.3173 88.4648 54.7407 88.3082C55.1083 88.5065 55.4335 88.8464 55.7587 88.8464C57.9047 89.0289 59.9895 89.6559 61.8809 90.6876C64.7088 91.9057 67.4235 93.5203 70.1806 94.9366L74.4223 97.1319H73.4891C74.6627 100.829 73.1781 104.214 71.9904 107.499H72.2308L73.0084 106.48L75.2565 109.426C77.0106 111.338 78.3576 113.589 79.2155 116.04C79.6821 117.825 79.9083 119.68 80.2476 121.493C80.4456 122.612 80.6718 123.745 80.8839 124.864H81.2091C81.2647 124.641 81.2932 124.413 81.2939 124.184C80.898 120.374 80.8132 116.479 78.7348 113.08C77.7111 111.531 76.6067 110.037 75.4262 108.604C74.8465 107.854 74.1537 107.188 73.574 106.409C73.4699 106.271 73.3971 106.112 73.3604 105.944C73.3238 105.775 73.3243 105.6 73.3619 105.432C74.3842 103.135 74.6993 100.586 74.2668 98.1092C74.2668 98.1092 74.2668 98.01 74.2668 97.9817L81.6615 100.984L81.8312 100.715C80.7708 99.2139 80.5728 97.2311 78.6358 96.2113C75.808 94.795 73.9557 92.0756 71.5662 90.0078C69.2218 87.6346 66.6014 85.5518 63.7614 83.8042C62.6822 83.3174 61.5472 82.9654 60.3822 82.7561C58.9683 82.4021 57.5544 82.2179 56.0556 81.8638C53.6661 81.2973 51.2907 80.66 48.9861 80.0509L48.8447 80.0368C46.9642 79.7252 46.4693 79.8243 46.3562 81.878C46.3562 83.0819 46.0451 84.2858 45.8896 85.4897C45.8896 86.0137 45.8896 86.5519 45.7906 87.3592C47.8144 86.1006 50.1529 85.4425 52.535 85.4613C52.1391 85.5888 51.729 85.6738 51.3332 85.8437C49.4951 86.5944 47.6711 87.4159 45.8048 88.1382C44.306 88.7331 42.7649 89.2571 41.2237 89.7528C40.2622 90.0644 40.1067 90.2485 40.4036 91.2683C40.7995 92.5997 41.2095 93.931 41.6196 95.2624C41.7044 95.5315 41.7751 95.8147 41.8458 96.0838L41.6337 96.2113C41.4216 96.0555 41.1106 95.928 41.0399 95.7298C40.4885 93.9877 39.9512 92.2456 39.4987 90.4752C39.3008 89.767 39.7815 89.3563 40.446 89.1438C41.7751 88.7472 43.1183 88.3365 44.4191 87.8691C44.5745 87.8019 44.7119 87.6989 44.82 87.5684C44.9281 87.438 45.0039 87.2838 45.0412 87.1184C45.2251 85.7729 45.324 84.4132 45.4796 83.0677C45.5785 82.1188 45.6775 81.1557 45.8472 80.2351C45.893 79.8964 46.0699 79.5892 46.3397 79.3799C46.6094 79.1706 46.9505 79.0759 47.2894 79.1162C48.2886 79.2181 49.2804 79.3837 50.2586 79.6119C52.6481 80.1926 55.0235 80.8299 57.413 81.4531H57.5826C59.4631 82.0055 59.449 81.9913 60.5943 80.4617C61.4002 79.4136 62.3334 78.4505 63.0686 77.3457C63.8038 76.241 63.818 75.7311 62.8141 74.6547C61.4002 73.2384 59.9863 71.822 58.5724 70.4057C57.0916 68.96 55.9971 67.1649 55.3894 65.1851C54.7816 63.2054 54.6801 61.1044 55.0942 59.075C55.2785 58.2843 55.599 57.5318 56.0415 56.8514C56.6353 55.86 57.4554 54.9818 57.9785 54.0187C59.074 52.3979 60.6096 51.125 62.4041 50.3504C63.7723 49.5915 65.1894 48.9243 66.6458 48.3534C67.7785 47.9923 68.9302 47.6945 70.0958 47.4611L73.3336 46.5971C73.748 46.4559 74.1988 46.465 74.6072 46.6229C75.0155 46.7808 75.3555 47.0775 75.5676 47.4611C76.218 48.5448 76.4541 49.828 76.2321 51.0728C76.1488 51.5722 76.2175 52.0852 76.4293 52.545C76.6412 53.0048 76.9863 53.39 77.4198 53.6505C78.4515 54.4591 79.399 55.3702 80.2476 56.3698C80.5651 56.8332 80.6917 57.4015 80.6011 57.9561C80.5001 58.3201 80.5049 58.7055 80.6151 59.0668C80.7254 59.4281 80.9363 59.7504 81.2232 59.9957C81.9867 60.6613 82.722 61.412 83.5138 61.9785C83.6833 62.0675 83.8283 62.1972 83.9357 62.3559C84.043 62.5147 84.1095 62.6976 84.1291 62.8884C84.1487 63.0791 84.1208 63.2718 84.048 63.4491C83.9752 63.6265 83.8596 63.783 83.7117 63.9047C83.0048 64.5421 82.8068 65.1369 83.4714 65.9018C83.5758 66.0422 83.6394 66.2089 83.6552 66.3833C83.74 67.2473 83.74 68.1254 83.8672 68.9894C83.9452 69.4391 84.1241 69.8653 84.3904 70.2357C84.635 70.521 84.8144 70.8565 84.9159 71.2185C85.0174 71.5806 85.0385 71.9605 84.9779 72.3317C84.9173 72.7028 84.7763 73.0561 84.5649 73.3669C84.3535 73.6777 84.0768 73.9384 83.7541 74.1307C83.0343 74.6683 82.4365 75.3528 82.0002 76.139C81.564 76.9251 81.2991 77.795 81.2232 78.6913C81.1464 79.6499 80.9759 80.5986 80.7142 81.5239C80.6147 81.7312 80.5914 81.9669 80.6483 82.1897C80.7052 82.4125 80.8387 82.6081 81.0253 82.742C82.5364 83.9857 83.6681 85.6298 84.2914 87.4867C84.3706 87.7039 84.5017 87.8984 84.6732 88.0532C85.5074 88.6764 86.3416 89.2996 87.2182 89.852C87.6503 90.1426 88.1284 90.3581 88.6321 90.4893C89.3674 90.6734 89.4805 90.8717 89.1977 91.5657C88.7877 92.5855 88.4907 93.6477 88.0241 94.6533C87.8164 95.2072 87.7328 95.8001 87.7793 96.39C87.8257 96.9798 88.001 97.5522 88.2928 98.0667C89.4743 100.915 90.3052 103.897 90.7671 106.947C91.2521 109.579 90.7485 112.298 89.3532 114.581C88.4974 115.941 88.0962 117.538 88.208 119.142C88.208 119.666 88.208 120.19 88.208 120.714C88.208 121.804 88.3918 122.13 89.5088 122.059C91.969 122.059 94.4433 121.974 96.9035 121.776C97.5033 121.732 98.0843 121.547 98.6 121.238C99.1156 120.928 99.5515 120.501 99.8727 119.992C100.262 119.385 100.779 118.871 101.387 118.484C101.995 118.098 102.68 117.849 103.393 117.754C104.242 117.642 105.049 117.316 105.736 116.805C106.424 116.295 106.971 115.617 107.324 114.836C111.17 106.494 115.143 98.1942 119.045 89.8945C123.16 81.1557 127.218 72.4027 131.361 63.6781C135.277 55.3359 139.264 47.0929 143.223 38.8356C143.359 38.4983 143.59 38.2079 143.888 38C143.435 39.0623 142.997 40.1245 142.474 41.1726C141.951 42.2207 141.527 43.2971 141.06 44.3452C140.998 44.4234 140.955 44.5152 140.935 44.6132C140.914 44.7111 140.918 44.8125 140.944 44.909C140.97 45.0055 141.018 45.0945 141.085 45.1688C141.152 45.2431 141.235 45.3006 141.329 45.3366C141.866 45.6624 142.347 46.0731 142.955 46.5263L146.928 38.3258L147.225 38.4532C146.914 39.2464 146.617 40.0395 146.277 40.8043C145.485 42.5889 144.694 44.3593 143.86 46.1156C143.591 46.6963 143.605 47.022 144.156 47.4186C146.489 49.0899 148.808 50.8037 151.099 52.5316C151.707 52.999 151.947 52.8715 152.216 52.2058C153.842 48.3251 155.496 44.4443 157.15 40.5636C157.348 40.0962 157.603 39.6571 157.843 39.1472L158.069 39.2322C158.015 39.5161 157.94 39.7955 157.843 40.0678C156.194 44.1374 154.53 48.1976 152.852 52.2483C149.619 60.0381 146.376 67.8233 143.124 75.6037C140.919 80.9149 138.685 86.2262 136.479 91.5374C136.337 91.9656 136.237 92.4068 136.182 92.8546C136.182 92.9396 136.182 93.0529 136.182 93.1095C134.542 95.1632 133.948 97.7268 132.944 100.078C128.801 109.78 124.772 119.538 120.7 129.24C120.049 130.798 120.148 130.911 121.831 131.053C122.166 131.125 122.516 131.061 122.805 130.875C123.094 130.689 123.297 130.397 123.372 130.062C128.745 117.428 134.127 104.804 139.519 92.1889C144.788 79.8385 150.076 67.4881 155.383 55.1376C157.315 50.6054 159.257 46.0637 161.208 41.5125C161.35 41.1868 161.519 40.861 161.689 40.5494L162 40.6485C161.91 41.0561 161.797 41.4581 161.661 41.8524C158.937 48.2259 156.231 54.5947 153.545 60.9588C149.303 70.9392 145.061 80.9243 140.82 90.9142C135.296 103.888 129.763 116.857 124.22 129.821C123.867 130.628 123.711 131.081 124.814 131.45C125.068 131.547 125.3 131.695 125.494 131.886C125.689 132.076 125.843 132.304 125.946 132.556C126.049 132.809 126.1 133.079 126.095 133.352C126.09 133.624 126.029 133.893 125.917 134.141C125.762 134.664 125.704 135.211 125.747 135.755C125.788 136.145 125.747 136.539 125.628 136.912C125.508 137.285 125.313 137.629 125.054 137.922C124.312 138.714 123.889 139.754 123.867 140.84C123.867 141.237 123.499 141.647 123.273 142.044C122.785 142.747 122.341 143.48 121.944 144.239C121.825 144.56 121.641 144.854 121.404 145.101C121.168 145.348 120.883 145.544 120.567 145.677C120.252 145.81 119.913 145.876 119.571 145.873C119.229 145.869 118.891 145.795 118.579 145.656C117.787 145.231 117.532 145.528 117.25 146.208C115.148 151.193 113.036 156.188 110.915 161.193C110.888 161.305 110.84 161.41 110.774 161.504C110.586 161.681 110.388 161.847 110.18 162C110.18 161.731 110.01 161.405 110.095 161.179C111.255 158.44 112.424 155.716 113.602 153.006C114.592 150.698 115.567 148.403 116.543 146.095C116.656 145.84 116.741 145.571 116.868 145.216C116.203 144.967 115.523 144.759 114.832 144.593C114.69 144.612 114.554 144.664 114.436 144.745C114.318 144.826 114.221 144.935 114.153 145.061C112.089 149.933 110.053 154.819 108.003 159.691C107.785 160.052 107.518 160.381 107.211 160.669C107.19 160.255 107.228 159.84 107.324 159.436C107.678 158.445 108.172 157.51 108.483 156.519C108.547 156.312 108.562 156.093 108.527 155.88C108.493 155.666 108.41 155.463 108.285 155.287C105.326 152.171 102.356 149.088 99.3779 146.038C98.4164 145.046 98.0912 145.146 97.5115 146.392C96.9318 147.638 96.2672 149.083 95.631 150.414C95.4708 150.685 95.2811 150.937 95.0654 151.165L94.8251 151.038ZM75.8362 78.6204C76.0625 80.6741 76.2745 82.6853 76.529 84.6965C76.7129 86.0137 77.0946 86.297 78.4096 86.3253C78.9327 86.3253 79.1448 86.1978 79.2296 85.6171C79.3851 84.3141 79.6538 83.0394 79.9366 81.7647C80.271 80.7185 80.5262 79.6485 80.7001 78.5638C80.6878 77.7249 80.8859 76.8963 81.2762 76.1539C81.6665 75.4116 82.2365 74.7792 82.9341 74.3148C84.5035 73.2667 84.6449 72.2328 83.6834 70.6182C83.4302 70.1012 83.263 69.5462 83.1886 68.9752C83.0784 67.9295 82.8942 66.893 82.6371 65.8734C82.4967 65.5487 82.4527 65.1903 82.5104 64.8411C82.5681 64.492 82.725 64.1669 82.9623 63.9047C83.6269 63.1258 83.4572 62.7433 82.6654 62.1485C81.7544 61.4882 80.9197 60.7281 80.1769 59.8824C79.8526 59.4272 79.7205 58.8623 79.8093 58.3102C79.979 57.4038 79.9649 56.7381 79.0599 56.2424C78.7436 55.9889 78.4795 55.6762 78.2823 55.3218C77.0381 53.7071 75.6807 52.4891 73.4326 53.438C73.2421 53.5063 73.041 53.5399 72.8387 53.5372C72.293 53.5166 71.7522 53.6471 71.2757 53.9145C70.7993 54.1819 70.4056 54.5757 70.1382 55.0527C69.8738 55.3931 69.6905 55.7895 69.6023 56.2117C69.5141 56.6339 69.5233 57.0707 69.6292 57.4887C69.8069 58.0108 69.8724 58.5647 69.8212 59.114C69.77 59.6632 69.6034 60.1954 69.3322 60.6755C68.9426 61.3174 68.7668 62.0668 68.8303 62.8153C68.8939 63.5639 69.1934 64.2728 69.6857 64.8395C70.0377 65.2774 70.3411 65.7523 70.5906 66.2559C70.9724 66.9499 70.5906 67.6722 69.8554 67.6722C69.2682 67.5973 68.7192 67.3397 68.2859 66.9357C67.8023 66.4713 67.1903 66.1635 66.5296 66.0524C65.8689 65.9412 65.1901 66.0319 64.5815 66.3125C64.4257 66.3503 64.2798 66.4209 64.1533 66.5195C64.0268 66.6181 63.9227 66.7425 63.8478 66.8844C63.773 67.0264 63.7291 67.1826 63.719 67.3429C63.709 67.5031 63.7331 67.6636 63.7897 67.8138C64.0526 68.7742 64.6689 69.5991 65.5147 70.1224C66.0017 70.6519 66.6574 70.9951 67.3694 71.0933C68.0814 71.1915 68.8053 71.0385 69.4171 70.6606C69.4171 70.6606 69.5726 70.6606 69.8271 70.6606C69.5867 70.9439 69.4595 71.1989 69.2474 71.3263C67.8335 72.1336 66.6458 71.3263 65.2602 70.8589V71.907C65.2803 72.9663 65.0628 74.0166 64.6239 74.9805C64.3147 75.443 64.1579 75.9909 64.1757 76.5473C64.1934 77.1037 64.3848 77.6405 64.7229 78.0822C66.0198 79.5558 67.4756 80.881 69.0636 82.0338C71.1959 83.2576 73.3957 84.3594 75.6524 85.3339C75.6524 85.3339 75.808 85.3339 75.9352 85.3339C75.4456 83.1262 75.412 80.8416 75.8362 78.6204V78.6204ZM125.945 85.1639C125.733 85.5463 125.578 85.8154 125.45 86.0987L119.795 98.2083C119.187 99.5539 119.187 99.5539 120.233 100.559L128.109 108.193C128.227 108.283 128.355 108.359 128.49 108.42C128.592 108.297 128.682 108.164 128.759 108.024L134.952 93.4778C135.064 93.2731 135.094 93.0334 135.036 92.8073C134.978 92.5812 134.837 92.3854 134.641 92.2597C132.619 90.5743 130.611 88.8605 128.575 87.1751C127.698 86.4953 126.864 85.8296 125.945 85.0931V85.1639ZM143.52 72.8135C143.633 72.5869 143.704 72.4594 143.761 72.3178C145.91 67.2095 148.064 62.0966 150.222 56.9789C150.434 56.4832 150.222 56.1857 149.854 55.8741C147.55 54.1037 145.273 52.305 142.997 50.5204C142.234 49.9255 142.163 49.9255 141.753 50.8037C139.519 55.6664 137.275 60.5197 135.023 65.3636C134.956 65.4638 134.911 65.5771 134.891 65.696C134.871 65.8149 134.877 65.9366 134.908 66.0532C134.938 66.1697 134.993 66.2784 135.069 66.3719C135.145 66.4655 135.24 66.5418 135.348 66.5958C136.889 67.743 138.416 68.9044 139.929 70.0658L143.52 72.8135ZM121.392 125.359C121.548 125.105 121.647 124.977 121.704 124.85C123.414 120.785 125.111 116.706 126.836 112.641C126.908 112.433 126.911 112.208 126.844 111.999C126.778 111.79 126.646 111.608 126.468 111.479C123.81 108.746 121.18 106.012 118.522 103.293C117.844 102.585 117.745 102.613 117.335 103.505C115.539 107.386 113.771 111.267 111.948 115.134C111.665 115.743 111.863 116.068 112.287 116.479C114.521 118.674 116.727 120.898 118.975 123.079C119.243 123.348 119.71 123.405 120.078 123.603C120.424 123.739 120.737 123.946 120.997 124.212C121.183 124.574 121.316 124.96 121.392 125.359ZM136.507 89.2005C136.677 89.0163 136.762 88.9597 136.79 88.8889C138.458 84.9231 140.113 80.9574 141.795 77.0058C142.036 76.4393 141.795 76.1419 141.385 75.8161C138.883 73.7907 136.394 71.7654 133.92 69.7117C133.425 69.301 133.17 69.3151 132.888 69.9242C131.191 73.6538 129.471 77.3693 127.727 81.0707C127.648 81.182 127.593 81.3086 127.565 81.4425C127.538 81.5764 127.539 81.7146 127.568 81.8481C127.598 81.9815 127.655 82.1074 127.735 82.2174C127.816 82.3275 127.919 82.4193 128.038 82.487C129.607 83.6909 131.134 84.9231 132.69 86.1553L136.507 89.2005ZM108.809 132.045C109.45 132.082 110.092 131.99 110.697 131.773C111.302 131.557 111.857 131.22 112.329 130.784C113.611 129.293 115.119 128.012 116.797 126.988C117.49 126.634 117.504 126.209 116.924 125.643C114.818 123.617 112.683 121.55 110.647 119.496C110.481 119.382 110.306 119.283 110.124 119.198L108.879 121.889C109.671 122.753 110.392 123.49 111.071 124.255C111.197 124.358 111.297 124.49 111.36 124.641C111.423 124.791 111.448 124.955 111.432 125.118C111.417 125.28 111.362 125.437 111.271 125.573C111.181 125.709 111.059 125.82 110.915 125.898C110.709 126.025 110.548 126.213 110.454 126.437C110.36 126.66 110.339 126.908 110.392 127.144C110.505 128.079 110.392 128.943 109.261 129.311C109.063 129.311 108.879 129.793 108.851 130.062C108.801 130.721 108.787 131.383 108.809 132.045V132.045ZM102.686 144.65C102.732 144.773 102.788 144.892 102.856 145.004L109.685 151.576C110.194 152.071 110.435 151.902 110.675 151.321C111.41 149.494 112.188 147.667 112.951 145.854C113.715 144.041 113.503 143.673 111.537 143.489C108.543 143.368 105.549 143.761 102.686 144.65V144.65ZM139.533 47.7302C139.066 48.7358 138.656 49.5856 138.26 50.4496C136.3 54.6325 134.339 58.8295 132.379 63.0408C132.181 63.4657 131.954 63.9047 132.379 64.2871L134.075 65.5619C134.655 64.3155 135.164 63.1824 135.687 62.0635C137.525 58.1261 139.377 54.1745 141.201 50.223C141.279 50.0566 141.319 49.8753 141.319 49.6918C141.319 49.5084 141.279 49.3271 141.201 49.1607C140.683 48.6413 140.125 48.163 139.533 47.7302V47.7302ZM123.188 82.6995C122.835 83.4218 122.552 83.9883 122.283 84.5549C120.473 88.3931 118.664 92.2314 116.882 96.0697C116.755 96.3529 116.684 96.8345 116.882 97.0186C117.391 97.6276 118.013 98.1517 118.72 98.8457L119.809 96.5087C121.534 92.7979 123.273 89.0871 124.97 85.3622C125.05 85.1942 125.092 85.0103 125.092 84.824C125.092 84.6377 125.05 84.4538 124.97 84.2858C124.418 83.7114 123.822 83.1811 123.188 82.6995V82.6995ZM115.341 99.8654C114.987 100.319 114.903 100.389 114.846 100.489C112.895 104.653 110.948 108.807 109.007 112.952C109.007 113.122 108.893 113.42 109.007 113.505C109.657 114.1 110.336 114.652 111 115.233C111.156 115.049 111.226 114.992 111.269 114.921C113.178 110.814 115.101 106.706 116.924 102.585C116.97 102.458 116.987 102.322 116.974 102.188C116.962 102.053 116.921 101.923 116.854 101.806C116.43 101.098 115.921 100.503 115.341 99.8654ZM85.7478 94.3276L85.3236 94.4409C85.1824 94.2194 85.0684 93.9816 84.9842 93.7327C84.7156 92.4863 84.4611 91.24 84.2066 89.9936C83.837 87.6325 82.8019 85.4262 81.2232 83.6343C80.9744 83.4104 80.7045 83.2112 80.4173 83.0394C80.3042 83.6484 80.2335 84.0733 80.1487 84.4557C80.0337 84.9767 80.0337 85.5166 80.1484 86.0376C80.2632 86.5587 80.4901 87.0483 80.8132 87.4725C82.3653 89.5842 83.4631 91.9956 84.0369 94.5542C84.4598 96.0389 85.1551 97.4318 86.0871 98.6616C86.183 98.5269 86.2681 98.3848 86.3416 98.2367C87.0203 96.0838 87.7555 93.9168 88.3352 91.7499C88.3512 91.6375 88.339 91.5229 88.2994 91.4165C88.2599 91.3101 88.1944 91.2154 88.109 91.1408C87.3596 90.5176 86.5678 89.9369 85.7902 89.3421L84.8994 88.6339L85.7478 94.3276ZM85.465 142.596L85.5639 142.256C85.4013 142.134 85.2259 142.029 85.0408 141.945C84.2631 141.732 83.4855 141.491 82.6796 141.35C80.3056 140.937 78.0372 140.056 76.0059 138.758C74.394 137.752 72.867 136.449 70.8027 136.322C70.482 136.279 70.1815 136.141 69.9402 135.925C68.6167 134.898 67.3649 133.781 66.1934 132.583C64.4825 130.657 63.0262 128.518 61.3295 126.577C59.4104 124.34 58.1736 121.596 57.7664 118.674C57.3491 115.943 56.5295 113.29 55.3345 110.8C55.2214 110.559 55.1507 110.304 54.981 109.836C56.0698 110.375 56.904 110.842 57.8089 111.253C58.7138 111.664 59.548 111.848 60.4246 112.131L60.5094 111.848L51.4463 107.301C52.0684 107.868 52.7753 108.335 53.4116 108.902C53.9238 109.282 54.3522 109.764 54.67 110.318C55.9128 113.148 56.7598 116.136 57.1867 119.198C57.4496 121.638 58.3737 123.96 59.859 125.912C62.1779 128.744 64.4401 131.676 66.9286 134.41C67.5405 135.229 68.3122 135.915 69.1969 136.426C70.0817 136.938 71.0609 137.264 72.0752 137.384C72.3904 137.445 72.6863 137.581 72.9377 137.781C75.9211 139.608 78.8337 141.619 82.4392 142.03C83.4714 142.228 84.4752 142.426 85.465 142.596ZM130.625 66.8507L130.102 67.8563C128.561 71.1705 127.006 74.4706 125.45 77.7706C124.63 79.5269 124.644 79.4986 126.087 80.7733C126.624 81.2407 126.893 81.1698 127.175 80.5467C128.914 76.7792 130.668 73.0259 132.379 69.216C132.434 69.0652 132.453 68.9038 132.436 68.7441C132.419 68.5845 132.365 68.431 132.28 68.2954C131.758 67.781 131.205 67.2985 130.625 66.8507V66.8507ZM109.332 132.809V132.526C109.159 132.45 108.979 132.393 108.795 132.356L104.935 131.846C104.504 131.837 104.077 131.775 103.662 131.662C101.767 130.897 99.901 130.033 98.0064 129.283C97.0473 128.953 96.0701 128.679 95.0796 128.461C91.9989 127.57 88.8332 127.005 85.6346 126.776C84.9239 126.727 84.2214 126.594 83.542 126.379C82.8492 126.167 82.1988 125.855 81.5202 125.586L81.407 125.841C82.0565 126.257 82.7372 126.621 83.4431 126.932C86.0588 127.895 86.7516 130.203 86.1436 132.767C85.9457 133.617 85.6912 134.438 85.4508 135.274C86.0217 134.219 86.4949 133.115 86.8647 131.974C87.0709 131.377 87.11 130.736 86.9779 130.118C86.67 129.187 86.2968 128.278 85.8609 127.399C86.176 127.371 86.493 127.371 86.8082 127.399C88.8866 127.824 90.9651 128.22 93.0153 128.716C94.9403 129.122 96.8311 129.676 98.6709 130.373C101.006 131.528 103.49 132.353 106.052 132.824C107.144 132.881 108.24 132.877 109.332 132.809ZM81.2939 97.6135L81.4495 97.7268C81.4485 98.0449 81.5011 98.3609 81.605 98.6616C82.3685 99.9221 83.1179 101.211 83.9945 102.387C84.2914 102.769 84.9701 102.868 85.4084 103.109C85.6386 102.578 85.7818 102.014 85.8326 101.438C85.6419 99.6684 84.8182 98.0283 83.5138 96.8203C83.033 96.3813 82.5523 95.9989 82.015 96.3388C81.4777 96.6787 81.5484 97.1744 81.2939 97.6135ZM93.0153 145.188L88.6887 143.899L88.5049 144.14L90.4278 150.06H90.6964L93.0153 145.188ZM108.568 117.584L106.249 121.224C106.514 121.308 106.774 121.408 107.027 121.521C107.762 121.875 108.201 121.634 108.441 120.884C108.625 120.36 108.893 119.878 109.12 119.368C109.643 118.278 109.586 118.136 108.611 117.57L108.568 117.584ZM102.206 129.608C102.658 127.64 102.658 127.654 104.539 128.475C105.108 128.666 105.696 128.799 106.292 128.872L106.377 128.589C106.194 128.47 106.006 128.361 105.811 128.263C105.019 127.909 104.213 127.597 103.45 127.201C103.277 127.126 103.13 127.003 103.026 126.846C102.922 126.688 102.867 126.504 102.867 126.315C102.867 126.127 102.922 125.943 103.026 125.785C103.13 125.628 103.277 125.505 103.45 125.43C103.762 125.281 104.089 125.167 104.426 125.09C102.814 124.637 102.121 125.218 102.291 126.776C102.287 127.096 102.166 127.403 101.951 127.64C101.822 127.778 101.725 127.944 101.667 128.124C101.609 128.305 101.592 128.496 101.616 128.684C101.641 128.872 101.706 129.052 101.808 129.212C101.91 129.372 102.046 129.507 102.206 129.608V129.608ZM69.9119 126.252L69.9826 125.954C68.4565 125.124 66.7228 124.755 64.9915 124.892C64.7526 124.93 64.5258 125.024 64.3293 125.165C64.1327 125.306 63.9717 125.491 63.8592 125.706C63.7466 125.92 63.6855 126.158 63.6808 126.4C63.6762 126.643 63.728 126.883 63.8321 127.102C64.0162 126.911 64.1863 126.707 64.3411 126.493C64.9915 125.416 65.3167 125.26 66.5327 125.515C67.07 125.614 67.5931 125.77 68.1304 125.898L69.9119 126.252ZM108.879 125.898C108.727 125.751 108.561 125.618 108.384 125.501C107.494 125.105 106.589 124.736 105.684 124.326C104.779 123.915 104.539 123.674 105.005 122.612L105.26 122.045L105.005 121.833C104.68 122.173 104.213 122.456 104.072 122.853C103.939 123.115 103.912 123.419 103.996 123.701C104.08 123.983 104.269 124.222 104.524 124.368C104.939 124.684 105.374 124.972 105.825 125.232C106.733 125.807 107.815 126.042 108.879 125.898V125.898ZM87.3172 115.346L81.2232 115.049C83.0048 116.153 86.285 116.309 87.3172 115.346Z" fill="black"/>
<path d="M80.276 73.3658C77.8596 74.5509 75.0948 74.8128 72.4995 74.1023C75.1145 74.2907 77.7426 74.0419 80.276 73.3658V73.3658Z" fill="black"/>
<path d="M67.8617 69.3152L65.6702 67.4031C66.6175 67.0774 67.0841 67.7855 67.6921 68.3096C67.9016 68.5775 68.0642 68.8793 68.1728 69.2019L67.8617 69.3152Z" fill="black"/>
</g>
<defs>
<clipPath id="clip0_209_67">
<rect width="124" height="124" fill="white" transform="translate(38 38)"/>
</clipPath>
</defs>
</svg>
