<svg width="200" height="200" viewBox="0 0 200 200" fill="none" xmlns="http://www.w3.org/2000/svg">
<path d="M97.7958 49.5928C99.3963 48.0433 100.371 45.9589 100.535 43.7366C100.933 43.8772 101.179 44.0646 101.331 44.006C101.679 43.6319 101.928 43.1765 102.055 42.6813C102.181 42.1862 102.182 41.6671 102.057 41.1716L101.05 42.2491C101.05 40.5743 99.7974 39.3796 100.43 37.7633C100.541 37.5191 100.578 37.2475 100.536 36.9822C100.495 36.717 100.376 36.4699 100.195 36.2716C100.015 36.0732 99.7795 35.9323 99.5194 35.8665C99.2593 35.8006 98.9856 35.8126 98.7323 35.9011C97.0263 36.2954 95.2416 36.1731 93.6053 35.5497C91.8027 34.8821 90.995 35.374 90.7258 37.2714C90.66 38.1036 90.3274 38.8923 89.7777 39.5202C89.3901 40.1293 89.1054 40.798 88.9349 41.4996C88.6256 41.0487 88.3923 40.5502 88.2443 40.0238C88.1565 38.44 88.1565 36.8525 88.2443 35.2686C88.316 34.2499 88.6707 33.2715 89.2684 32.4438C89.8661 31.616 90.6831 30.9717 91.6271 30.5837C92.1773 30.2909 92.7157 29.9395 93.2893 29.6818C93.8628 29.4242 94.5651 28.6629 95.326 29.5413C95.3962 29.6233 95.7708 29.4827 95.9815 29.4007C96.1922 29.3187 96.7423 29.1313 97.3042 28.9205C96.9413 30.326 97.7958 30.2909 98.6152 30.3494C99.0249 30.3494 99.4346 30.49 99.9262 30.572C99.4931 31.5675 100.113 31.7432 100.816 32.0477C101.279 32.2307 101.671 32.5564 101.936 32.9776C102.201 33.3988 102.326 33.8936 102.291 34.3902C102.232 36.1119 102.139 37.8219 102.08 39.5319C102.042 39.855 102.09 40.1825 102.22 40.4806C102.596 41.1372 102.72 41.9082 102.569 42.6496C102.419 43.3909 102.003 44.0521 101.401 44.5096C101.23 44.5935 101.096 44.7388 101.027 44.9167C100.957 45.0946 100.957 45.2921 101.027 45.47C101.249 46.325 101.448 47.2035 101.682 48.199C101.975 48.0233 102.15 47.8828 102.349 47.7774C102.806 47.4424 103.316 47.1888 103.859 47.0278C105.399 46.7811 106.887 46.2783 108.26 45.5403C108.739 45.2154 109.319 45.0744 109.893 45.1433C110.467 45.2122 110.997 45.4863 111.386 45.9151C111.573 46.1376 112.065 46.0556 112.404 46.1728C113.213 46.4613 114.089 46.504 114.922 46.2956C115.755 46.0872 116.508 45.637 117.086 45.0015C119.126 43.4806 121.642 42.741 124.18 42.9167C124.641 42.9218 125.097 42.8121 125.505 42.5975C125.914 42.3828 126.263 42.0699 126.521 41.687C128.578 39.13 131.349 37.2425 134.48 36.2641C135.98 35.7288 137.442 35.095 138.858 34.3668C141.41 33.1018 142.183 30.8531 141.995 28.2061C141.831 26.051 142.089 25.524 143.997 24.587C144.561 24.2962 145.104 23.9675 145.624 23.6031C146.186 23.2283 146.572 23.1932 147.005 23.8257C147.111 23.929 147.238 24.0077 147.378 24.0563C147.517 24.1049 147.666 24.1221 147.813 24.1068C148.13 24.0247 148.462 24.0143 148.784 24.0762C149.106 24.1381 149.41 24.2708 149.674 24.4647C149.938 24.6586 150.156 24.9089 150.312 25.1974C150.468 25.4859 150.558 25.8055 150.575 26.133C150.692 26.8592 150.751 27.597 150.833 28.2529C149.898 28.1202 148.952 28.0966 148.012 28.1826C147.109 28.4177 146.27 28.8496 145.554 29.4476L147.438 28.7566C148.339 28.3931 149.346 28.3931 150.248 28.7566C151.043 29.0962 151.125 29.6116 150.926 30.326C148.129 29.9863 147.93 30.0098 146.631 31.0405C147.274 30.8179 147.661 30.6539 148.07 30.5602C148.558 30.4231 149.063 30.3599 149.569 30.3729C150.891 30.5251 151.254 31.2396 150.552 32.3522C150.106 33.0239 149.588 33.6445 149.007 34.2028C147.356 35.7605 145.612 37.33 144.02 39.0517C142.428 40.7734 140.813 42.7176 139.268 44.5916C138.042 46.0473 136.517 47.2218 134.796 48.035C132.792 49.0737 130.992 50.4665 129.482 52.1461C127.408 54.3516 124.787 55.968 121.885 56.831C120.2 57.3463 118.573 58.0725 116.934 58.7401C116.582 58.912 116.258 59.1372 115.974 59.4077C115.406 59.8224 114.938 60.3599 114.606 60.9804C114.273 61.6009 114.085 62.2883 114.055 62.9917C113.82 70.0191 113.493 76.9527 113.188 83.9216C113.188 84.7063 113.516 84.8234 114.16 84.7883C116.84 84.6829 119.521 84.6009 122.19 84.5189C123.454 84.5189 123.922 85.1045 124.531 86.1352C125.701 87.9858 125.315 89.8597 125.116 91.7805C124.18 100.674 123.251 109.564 122.33 118.449C121.441 126.976 120.567 135.507 119.708 144.041C119.322 147.847 118.924 151.642 118.538 155.449C118.304 157.967 118.175 160.497 117.964 163.015C117.871 164.186 117.613 164.409 116.372 164.432L92.3645 164.842C90.2576 164.842 88.1506 164.947 86.0436 164.959C85.7777 164.945 85.5132 165.007 85.2811 165.138C85.049 165.268 84.8588 165.462 84.7326 165.697C82.6842 168.742 80.589 171.764 78.5639 174.821C78.4057 175.123 78.1405 175.356 77.8201 175.473C77.4997 175.59 77.1472 175.583 76.8315 175.453C72.2424 174.212 67.8178 172.427 63.6513 170.136C61.041 168.754 58.8053 166.903 56.3823 165.299C53.9593 163.694 54.2519 164.128 55.5161 161.785C58.6297 156.151 61.7667 150.53 64.8804 144.872C65.1853 144.264 65.3073 143.581 65.2315 142.905C64.377 136.674 63.4523 130.455 62.5627 124.165C61.556 116.81 60.5143 109.326 59.4491 101.912C58.934 98.2106 58.4307 94.5095 57.8454 90.8318C57.5879 89.2624 57.7635 87.9389 59.2384 87.0839C59.7126 86.7965 60.244 86.6166 60.7952 86.5569C62.5393 86.4397 64.3068 86.3929 66.0275 86.3577C66.3295 86.3983 66.6354 86.3195 66.8802 86.1379C67.125 85.9564 67.2894 85.6865 67.3385 85.3856C67.7248 83.7459 68.2047 82.1179 68.4271 80.4664C68.8953 76.9527 69.1294 73.2868 69.6561 69.7145C70.0201 67.7973 70.5009 65.9042 71.0959 64.0458C71.3651 63.0385 71.3417 63.0268 70.2882 62.9448C69.0008 62.8593 67.7191 62.7029 66.4489 62.4763C64.0025 61.9961 61.556 61.4808 59.133 60.8834C57.8806 60.5789 56.6866 60.0519 55.4575 59.7122C54.2285 59.3726 53.3155 59.1383 52.2386 58.9041C51.1617 58.6698 50.9042 58.4356 50.9042 57.2526C50.929 56.8312 50.8693 56.4091 50.7286 56.0111C49.5595 53.1345 48.8295 50.0983 48.5631 47.0043C47.945 42.2878 47.7414 37.5261 47.9544 32.7739C48.1259 30.8561 48.3955 28.9484 48.7621 27.0583C48.8301 26.3806 49.1249 25.7458 49.5988 25.2569C50.0726 24.7679 50.6976 24.4534 51.3724 24.3644C52.5429 24.1536 53.7135 24.0248 54.884 23.8257C55.0102 23.7967 55.1412 23.7952 55.2681 23.8214C55.395 23.8476 55.5147 23.9009 55.6191 23.9776C55.7235 24.0543 55.8102 24.1526 55.8732 24.2659C55.9362 24.3791 55.9741 24.5046 55.9843 24.6338C56.0041 24.891 56.1175 25.1321 56.3031 25.3112C56.4886 25.4904 56.7333 25.5952 56.991 25.6059C57.7518 25.7113 58.1615 26.2618 57.7635 26.8943C57.2927 28.005 57.2022 29.2404 57.506 30.408C57.6582 31.7666 57.506 31.9892 56.2535 32.6802C56.0781 32.7767 55.9235 32.9072 55.7989 33.064C55.6743 33.2209 55.5822 33.4009 55.5278 33.5937C55.3601 34.6402 54.8544 35.6028 54.088 36.3344C53.8183 36.5471 53.6326 36.8485 53.5641 37.1852C53.4955 37.5218 53.5484 37.8719 53.7135 38.1733C54.4098 39.7261 55.1913 41.2393 56.0545 42.7059C57.2251 44.533 58.5478 46.2196 59.7651 48.0233C60.0578 48.445 60.2567 48.5387 60.7015 48.2927C62.1516 47.4087 63.8315 46.9757 65.5279 47.0487C67.2243 47.1216 68.8609 47.6973 70.2297 48.7026C70.6554 49.0556 71.1698 49.2848 71.7168 49.3654C72.2638 49.4459 72.8223 49.3747 73.3316 49.1594C73.7765 49.0008 74.1948 48.7757 74.5724 48.4918C75.3171 47.6994 76.3323 47.2162 77.4165 47.1381C78.5007 47.06 79.5747 47.3927 80.4251 48.0702C80.6987 48.3069 81.0417 48.4485 81.4025 48.4738C81.7633 48.4991 82.1227 48.4068 82.4267 48.2107C82.7331 47.9879 83.0807 47.8284 83.4493 47.7413C83.818 47.6542 84.2002 47.6413 84.5738 47.7035C84.9475 47.7656 85.305 47.9015 85.6257 48.1032C85.9463 48.3049 86.2237 48.5684 86.4416 48.8783C86.8864 49.4171 87.3781 49.2882 87.6122 48.7495C88.0921 47.3089 88.455 45.8214 88.7827 44.3574C88.7827 44.2168 88.6774 44.0294 88.5954 43.8654C88.1857 42.987 87.7643 42.1086 87.4249 41.1833C88.0336 41.7338 87.7409 42.9636 88.9817 43.1159C89.4265 44.533 89.3563 46.1728 90.4097 47.508C91.1878 48.7179 92.2536 49.7159 93.5117 50.4126C94.1653 50.8133 94.9429 50.9607 95.6977 50.8269C96.4525 50.6931 97.1323 50.2874 97.6085 49.6865L95.9698 51.5487C97.6092 51.3536 99.1226 50.5715 100.231 49.3468C100.426 49.1928 100.588 49.0001 100.706 48.7808C100.825 48.5614 100.896 48.32 100.917 48.0717C100.938 47.8234 100.908 47.5735 100.828 47.3374C100.748 47.1014 100.62 46.8844 100.453 46.6998L97.7958 49.5928ZM93.1137 160.532C94.1086 160.532 95.1036 160.532 96.0986 160.532L113.06 160.216C113.329 160.216 113.785 159.958 113.832 159.747C113.982 158.973 114.088 158.191 114.148 157.405L115.131 147.25C115.752 140.949 116.29 134.776 116.922 128.616C117.461 123.498 118.093 118.391 118.596 113.273C119.377 105.613 120.157 97.949 120.937 90.2814C121.066 89.1101 121.066 89.0399 119.849 89.1101L105.966 89.6489L73.8701 90.8201C70.3585 90.949 66.7766 91.1364 63.2299 91.2652C62.4691 91.2652 62.2584 91.4994 62.3754 92.2959C63.0894 96.9808 63.7449 101.666 64.4121 106.351C65.5515 114.284 66.6791 122.205 67.795 130.115C69.2113 139.977 70.6394 149.839 72.0089 159.7C72.1377 160.614 72.4771 160.872 73.3316 160.79C79.9452 160.696 86.4885 160.602 93.0552 160.485L93.1137 160.532ZM67.6077 86.1469C67.8588 86.1964 68.113 86.2277 68.3686 86.2406C72.4888 86.1235 76.5623 85.9947 80.7294 85.8892C81.4083 85.8892 81.502 85.5262 81.4786 84.9523C81.3822 81.5193 80.8953 78.1086 80.0271 74.786C79.7736 73.944 79.3776 73.1517 78.8566 72.4435C76.773 69.5037 74.6309 66.5873 72.524 63.6827C72.4091 63.4654 72.3263 63.2327 72.2781 62.9917L71.8685 63.2493C71.701 63.5853 71.5601 63.9338 71.4471 64.2917C70.5374 67.7486 69.911 71.274 69.5742 74.8328C69.3401 77.4681 68.9421 80.0799 68.5207 82.6918C68.2794 83.8592 67.9746 85.0127 67.6077 86.1469V86.1469ZM94.6822 56.6202C93.8022 56.4116 92.9346 56.1535 92.0836 55.8471C89.2743 54.6759 87.5888 52.3335 86.1256 49.8387C85.154 48.199 83.3397 47.8008 82.0872 49.0891C83.3748 50.9397 85.435 51.865 87.144 53.2119C85.5669 52.8156 84.1492 51.9449 83.0822 50.7171C81.9896 49.5207 80.6521 48.574 79.1609 47.9413C78.4792 47.6222 77.7099 47.5423 76.9772 47.7144C76.2445 47.8865 75.5911 48.3007 75.1226 48.89C75.2023 48.969 75.293 49.036 75.3918 49.0891C77.924 49.9327 80.0788 51.641 81.4786 53.9146C83.0261 55.9992 85.1151 57.6196 87.5185 58.5995C89.1793 59.3351 91.0235 59.5515 92.8093 59.2203C93.125 59.1724 93.4101 59.0046 93.6053 58.7518C94.0618 58.0725 94.3779 57.3229 94.6822 56.6202ZM113.739 63.8818L113.469 63.7881C112.817 64.664 112.245 65.597 111.76 66.5756C110.695 69.246 109.63 71.9399 108.822 74.704C107.921 77.8195 107.324 81.0169 106.563 84.1675C106.399 84.8586 106.68 85.0108 107.301 84.9757C108.74 84.9054 110.18 84.8234 111.62 84.8351C112.498 84.8351 112.79 84.6009 112.79 83.6639C112.978 78.3114 113.247 72.9706 113.493 67.6297C113.598 66.3882 113.668 65.135 113.739 63.8818ZM109.993 45.8448C109.741 45.8033 109.484 45.8033 109.232 45.8448C107.336 46.4539 105.439 47.098 104.643 49.218C104.489 49.6232 104.301 50.0149 104.082 50.3892L101.401 54.8048L101.12 54.6408L105.159 47.6134L104.995 47.3791C104.55 47.4611 103.965 47.3791 103.684 47.6602C102.659 48.5696 101.722 49.5735 100.886 50.6586C99.7155 52.2046 98.8376 53.8912 97.7958 55.4958C97.4915 55.9526 97.5266 56.1985 97.9831 56.503C98.3819 56.7717 98.7338 57.1041 99.0249 57.4869C99.9964 58.7987 100.102 58.8455 101.553 58.0256C101.886 57.8233 102.203 57.5962 102.501 57.3463C104.754 55.3839 106.559 52.9592 107.792 50.2369L109.993 45.8448ZM96.1922 60.9069C96.8466 60.7311 97.4849 60.4999 98.1002 60.2158C99.1654 59.6068 99.2707 58.8221 98.6035 57.8031C98.3093 57.3712 97.8835 57.0461 97.3896 56.876C96.8957 56.706 96.3601 56.7002 95.8626 56.8595C95.3652 57.0189 94.9325 57.3348 94.6291 57.7602C94.3256 58.1856 94.1677 58.6978 94.1789 59.2203C94.2491 60.1339 94.9865 60.7663 96.1922 60.9069ZM78.8917 60.8366C78.7746 61.0006 78.7278 61.024 78.7395 61.0357C79.504 62.8534 80.6221 64.5009 82.0288 65.8823C83.4354 67.2636 85.1026 68.3513 86.9333 69.0821C88.2305 69.6573 89.6509 69.8989 91.0652 69.7848C91.3625 69.7408 91.656 69.6743 91.9432 69.5857V69.3515C85.8095 69.328 81.8063 65.99 78.8917 60.8366ZM94.7641 51.8298L94.9046 51.4902C93.5739 51.2812 92.3594 50.6093 91.4749 49.5928C90.7024 48.5035 89.9884 47.3791 89.1339 46.0791C88.8763 47.0395 88.2091 47.7774 88.8295 48.5269C89.984 49.9315 91.5402 50.9492 93.2893 51.4433C93.7692 51.619 94.2725 51.7127 94.7641 51.8298ZM116.314 55.73C120.188 55.73 124.894 50.2955 125.011 47.6485C122.974 51.2793 120.551 54.4885 116.314 55.73V55.73ZM113.411 54.0434H113.118C112.72 55.7534 112.334 57.4752 111.948 59.1852C111.327 61.7853 111.128 64.5845 108.694 66.3765C109.327 66.104 109.891 65.6917 110.343 65.1705C110.795 64.6493 111.124 64.0326 111.304 63.3665C111.819 61.551 112.229 59.7122 112.662 57.8617C112.861 56.6202 113.106 55.3084 113.411 54.0434ZM147.356 24.8446L147.11 24.7627C146.806 25.5357 146.549 26.3204 146.197 27.1051C146.024 27.4835 145.721 27.787 145.343 27.9601C145.074 28.0538 144.664 27.761 144.336 27.6439C144.547 28.6043 145.074 28.8151 145.87 28.2646C146.058 28.1135 146.258 27.9765 146.467 27.8547L149.335 26.4024V26.2853L147.134 26.6132L147.356 24.8446ZM65.8636 56.4679C67.2683 58.0725 72.1026 58.8924 73.3199 58.1896C70.6745 58.0256 68.1462 57.8617 65.887 56.5147L65.8636 56.4679ZM53.5262 52.6145C52.6752 51.7989 51.9989 50.8187 51.5381 49.7335C51.0773 48.6483 50.8417 47.4807 50.8456 46.3016C50.7286 48.8315 51.1149 51.1505 53.5262 52.6145Z" fill="black"/>
</svg>
