<svg width="200" height="200" viewBox="0 0 200 200" fill="none" xmlns="http://www.w3.org/2000/svg">
<g clip-path="url(#clip0_209_61)">
<path d="M169.642 121.185C169.463 121.095 169.275 121.022 169.081 120.969C167.138 120.663 165.153 120.758 163.248 121.247C161.342 121.737 159.558 122.611 158.004 123.816C154.938 126.252 151.764 128.538 148.633 130.91C148.093 131.319 147.683 131.6 147.186 130.759C146.992 130.435 146.236 130.327 145.761 130.349C145.309 130.419 144.879 130.597 144.509 130.866C143.728 131.296 142.864 131.557 141.975 131.631C141.086 131.706 140.191 131.592 139.349 131.298H139.176C138.355 131.125 137.513 130.414 136.757 131.298C136.402 131.74 136.15 132.256 136.019 132.808C135.888 133.36 135.882 133.934 136.002 134.489C136.109 135.361 136.152 136.241 136.131 137.12C136.071 137.445 136.1 137.781 136.214 138.092C136.328 138.403 136.523 138.678 136.779 138.888C136.94 139.037 137.069 139.217 137.158 139.417C137.247 139.617 137.294 139.833 137.297 140.052C137.459 141.731 138.062 143.338 139.046 144.709C139.495 145.369 140.185 145.826 140.968 145.982C142.239 146.11 143.519 146.11 144.79 145.982C144.984 145.982 145.178 145.766 145.33 145.421H144.531C143.559 145.421 142.566 145.572 141.594 145.55C141.096 145.558 140.608 145.411 140.198 145.128C139.788 144.846 139.476 144.444 139.305 143.976C138.514 142.668 138.047 141.189 137.945 139.664C137.926 139.472 137.866 139.286 137.769 139.118C137.672 138.951 137.541 138.806 137.384 138.694C137.172 138.523 137.01 138.3 136.915 138.045C136.82 137.791 136.795 137.516 136.844 137.249C136.844 136.365 136.649 135.459 136.671 134.575C136.677 133.84 136.808 133.11 137.06 132.419C137.06 132.203 137.902 132.139 138.334 132.203C139.5 132.203 140.666 132.591 141.853 132.721C142.997 132.763 144.122 132.422 145.049 131.751C145.453 131.495 145.912 131.34 146.388 131.298C146.647 131.298 146.992 131.621 147.186 131.901C147.381 132.182 146.927 132.397 146.711 132.57C146.297 132.85 145.864 133.102 145.416 133.325V133.562C145.812 133.575 146.207 133.516 146.582 133.389C148.129 132.666 149.635 131.86 151.095 130.974C152.693 129.961 154.161 128.818 155.672 127.589C156.035 127.325 156.426 127.1 156.838 126.921C155.37 133.044 157.853 137.572 162.517 141.518C161.81 141.78 161.089 142.003 160.358 142.187C157.313 142.726 154.247 143.2 151.203 143.696C150.752 143.772 150.311 143.895 149.886 144.063C149.189 144.209 148.576 144.618 148.173 145.204C147.771 145.79 147.611 146.509 147.726 147.211C147.726 148.871 147.726 150.51 147.726 152.17C147.716 152.292 147.716 152.415 147.726 152.537C147.942 153.766 147.726 154.24 146.388 154.693C142.532 155.775 138.586 156.504 134.598 156.871C133.502 157 132.397 157.044 131.295 157C126.547 157.026 121.807 156.629 117.13 155.814C115.406 155.565 113.698 155.219 112.013 154.779C110.156 154.262 109.659 153.356 109.983 151.437C110.307 149.518 110.544 148.181 110.868 146.585C111.691 142.444 112.139 138.236 112.207 134.015C112.207 131.858 112.531 129.702 112.704 127.697C112.725 127.41 112.725 127.121 112.704 126.834C112.419 126.776 112.125 126.776 111.84 126.834L104.024 130.888C103.435 131.273 102.814 131.605 102.167 131.88C101.655 132.052 101.102 132.052 100.59 131.88C98.9278 131.168 97.2868 130.414 95.6889 129.573C92.3421 127.826 88.9522 126.101 85.6917 124.182C80.7547 121.138 76.6166 116.962 73.6216 111.999C73.5488 111.83 73.4544 111.671 73.3409 111.525C73.1544 111.397 72.9596 111.282 72.758 111.18C72.65 111.374 72.4125 111.59 72.4341 111.762C72.6068 113.078 71.7431 113.638 70.7499 113.918C69.1723 114.29 67.6686 114.924 66.3019 115.794C65.974 115.955 65.6036 116.008 65.2438 115.945C64.5253 115.887 63.8032 115.887 63.0846 115.945C62.7129 116.036 62.3207 115.984 61.9851 115.801C61.6495 115.617 61.3947 115.315 61.2709 114.953C61.1158 114.649 60.9428 114.354 60.7527 114.069C59.8242 115.018 59.0469 115.967 58.1184 116.743C57.1899 117.519 55.6137 118.576 54.3613 119.503C54.2318 119.503 54.0806 119.719 53.9511 119.697C53.3249 119.697 52.4828 119.697 52.1158 119.309C51.7487 118.921 52.1158 118.037 52.6124 117.606C54.8027 115.645 56.6236 113.308 57.9888 110.706C58.552 109.793 59.0015 108.816 59.3276 107.795C59.8793 106.35 60.9706 105.175 62.3721 104.517C64.5313 103.267 66.8633 102.167 69.1305 101.003C69.6153 100.766 70.1542 100.661 70.6925 100.699C71.2309 100.737 71.7497 100.916 72.1966 101.218C75.6081 103.073 79.0845 104.819 82.4529 106.76C85.3655 108.198 88.4597 109.235 91.6512 109.843C94.5446 110.598 97.4379 111.417 100.288 112.215C100.397 112.271 100.517 112.301 100.639 112.305C100.762 112.308 100.883 112.284 100.995 112.234C101.107 112.185 101.206 112.111 101.285 112.018C101.365 111.925 101.422 111.816 101.454 111.698C103.261 107.592 106.499 104.282 110.566 102.383C111.405 102.044 112.151 101.512 112.744 100.83C113.337 100.148 113.76 99.3352 113.978 98.4583C114.457 96.6054 115.554 94.9705 117.087 93.8224C118.732 92.2176 120.676 90.9502 122.809 90.0921C122.925 90.0227 123.022 89.925 123.09 89.808C123.158 89.6911 123.195 89.5589 123.197 89.4237C123.197 88.2449 123.09 87.059 122.874 85.8659C122.874 85.37 122.614 84.8956 122.507 84.3997C122.441 84.1816 122.441 83.9492 122.507 83.7312C122.749 83.2778 122.822 82.7526 122.711 82.2505C122.6 81.7483 122.313 81.3023 121.902 80.9928C121.594 80.6746 121.188 80.4695 120.749 80.4108C120.31 80.3521 119.864 80.4432 119.484 80.6694C117.864 81.6828 116.094 80.6694 115.727 78.5131C115.532 77.7642 115.178 77.0657 114.69 76.4647C114.021 75.4297 112.812 74.7397 112.66 73.3598C112.66 72.6698 112.013 72.5619 111.408 72.5404C109.681 72.5404 109.4 71.9798 109.659 70.3842C109.821 69.081 109.821 67.7629 109.659 66.4598C109.485 65.9202 109.105 65.471 108.601 65.2092C108.227 64.998 107.924 64.68 107.731 64.2958C107.539 63.9117 107.466 63.4789 107.522 63.053C107.522 61.3495 107.522 59.6461 107.716 57.9211C107.73 57.5719 107.658 57.2246 107.508 56.9091C107.357 56.5936 107.132 56.3193 106.852 56.1099C105.753 55.3055 104.895 54.2171 104.369 52.9618C104.173 52.5887 104.065 52.1765 104.05 51.7556C104.036 51.3347 104.117 50.9161 104.287 50.5308C104.457 50.1455 104.712 49.8034 105.033 49.5299C105.354 49.2564 105.732 49.0586 106.14 48.9512C107.09 48.52 107.997 47.9593 108.903 47.4418C109.955 46.7577 111.06 46.1592 112.207 45.6522C114.974 44.379 117.901 43.4868 120.909 43C122.09 42.9993 123.269 43.1148 124.428 43.345C125.335 43.4744 126.22 43.7762 127.127 43.8194C128.213 43.9211 129.268 44.2364 130.232 44.7471C131.195 45.2578 132.048 45.9538 132.741 46.795C134.121 48.1863 135.213 49.8356 135.954 51.6485C136.695 53.4614 137.07 55.4024 137.06 57.3605C137.06 59.5167 137.06 61.4574 137.06 63.5058C137.012 64.3798 137.153 65.2539 137.473 66.0687C137.794 66.8835 138.286 67.6199 138.917 68.2279C139.413 68.6592 139.716 69.306 140.191 69.7804C141.544 71.2989 143.033 72.6918 144.639 73.9419C145.589 74.5636 146.683 74.9333 147.816 75.0163C148.949 75.0993 150.085 74.8928 151.116 74.4163C153.184 73.6447 155.422 73.4436 157.594 73.8341C157.979 73.8583 158.345 74.0122 158.631 74.2706C158.917 74.5291 159.107 74.8769 159.17 75.2572C159.559 77.1116 159.991 78.966 160.358 80.8203C160.391 81.1236 160.526 81.4067 160.742 81.6224C160.958 81.8381 161.242 81.9736 161.545 82.0062C163.078 82.3297 164.611 82.6316 166.101 83.0628C167.591 83.494 167.872 83.9037 167.462 85.564C167.051 87.2243 166.706 89.2296 166.404 91.0624C166.356 91.4852 166.455 91.9115 166.684 92.2699C168.668 95.3315 170.175 98.6758 171.154 102.189C171.74 104.173 172.905 105.937 174.501 107.256C177.949 110.26 180.125 114.461 180.59 119.007C180.741 120.581 180.978 122.177 181.13 123.751C181.288 124.441 181.221 125.163 180.937 125.811C180.653 126.46 180.168 127 179.553 127.352C178.192 128.303 177.081 129.568 176.314 131.039C174.296 134.456 171.405 137.277 167.937 139.211C166.546 139.873 165.102 140.414 163.618 140.828C163.359 140.828 162.841 140.57 162.647 140.289C161.912 139.276 161.329 138.133 160.617 137.163C159.167 135.513 158.137 133.538 157.616 131.406C157.443 129.858 157.443 128.296 157.616 126.748C157.747 126.046 158.121 125.412 158.674 124.958C161.197 122.662 164.526 121.453 167.937 121.595H169.686L169.642 121.185ZM127.861 66.3736C128.611 66.3441 129.325 66.0508 129.878 65.5457C130.432 65.0405 130.788 64.356 130.884 63.6136C131.133 62.9071 131.224 62.1546 131.149 61.4094C131.074 60.6642 130.837 59.9444 130.452 59.3011C130.303 59.1093 130.114 58.9522 129.897 58.8405C129.681 58.7288 129.443 58.6653 129.2 58.6542C128.378 58.7953 127.629 59.2117 127.075 59.8348C126.522 60.458 126.198 61.2508 126.156 62.0827C126.156 62.3845 126.156 62.708 126.156 63.0098C126.156 63.9155 125.443 64.6917 124.731 64.6486C124.018 64.6054 123.737 63.8939 123.608 63.2255C123.611 61.9652 123.185 60.7413 122.4 59.7541C121.616 58.767 120.519 58.0751 119.289 57.7918C118.423 57.4439 117.721 56.7814 117.324 55.9374C116.877 55.2118 116.236 54.6255 115.473 54.2445C114.71 53.8635 113.855 53.703 113.006 53.7812C112.804 53.8516 112.615 53.9535 112.445 54.083C111.581 54.6652 110.696 55.2043 109.875 55.8511C109.201 56.2897 108.657 56.9001 108.299 57.6193C108.169 58.7079 108.169 59.8081 108.299 60.8967C108.363 61.4699 108.363 62.0485 108.299 62.6217C108.216 62.9942 108.258 63.3835 108.418 63.7301C108.578 64.0766 108.847 64.3614 109.184 64.5408C109.724 64.9073 110.393 65.5111 110.458 66.0933C110.58 67.4526 110.53 68.8219 110.307 70.1685C110.113 71.376 110.307 71.8504 111.516 71.9366C111.931 71.9325 112.336 72.0626 112.671 72.3075C113.005 72.5523 113.252 72.8988 113.373 73.2951C113.546 73.7479 113.956 74.136 114.172 74.5888C114.884 76.055 116.331 76.9391 116.655 78.7719C116.849 80.1519 117.67 80.4322 119.009 80.0441L120.347 79.6991C122.766 79.16 123.565 79.6991 123.78 82.1787C123.78 83.149 124.169 83.3431 124.925 82.804C127.181 81.3903 129.212 79.6458 130.949 77.6291C131.23 77.2113 131.346 76.7041 131.273 76.206C131.122 75.2572 130.798 74.3301 130.56 73.4029H130.776L131.618 75.365C131.986 76.1844 132.266 76.2275 132.828 75.4944C133.213 74.9771 133.566 74.4371 133.886 73.8772C134.836 72.1738 135.829 70.4704 136.649 68.7023C136.84 68.2148 136.846 67.6747 136.668 67.1827C136.489 66.6908 136.137 66.2806 135.678 66.0286C134.596 65.3242 133.564 64.5461 132.59 63.6998C132.396 63.5489 132.374 63.2039 132.245 62.9667C131.489 64.1095 131.1 64.9936 130.56 65.7698C130.441 66.0053 130.271 66.2115 130.062 66.3736C129.853 66.5357 129.611 66.6496 129.354 66.7073C129.096 66.765 128.828 66.765 128.57 66.7073C128.312 66.6496 128.07 66.5356 127.861 66.3736V66.3736ZM137.513 84.9172V84.7015C138.658 84.184 139.672 83.6019 140.925 83.1706C142.4 82.4839 144 82.1066 145.627 82.0621C147.253 82.0176 148.872 82.3068 150.382 82.9119C152.259 83.6551 154.185 84.2675 156.147 84.7447C158.102 85.28 159.915 86.2369 161.459 87.5478L164.374 90.0706C165.194 90.739 165.367 90.6527 165.583 89.6177C165.885 88.1084 166.188 86.6206 166.533 85.1328C166.663 84.5722 166.533 84.2272 165.993 84.0547C165.454 83.8822 165.173 83.7528 164.763 83.645C162.841 83.149 160.898 82.7178 158.976 82.1787C157.508 81.7691 156.083 81.1869 154.657 80.6909V80.4322C154.887 80.41 155.119 80.41 155.348 80.4322C156.406 80.6909 157.508 80.9928 158.544 81.23C158.997 81.23 159.451 81.3809 159.3 80.6478L158.35 76.5079C158.026 74.8907 157.831 74.8044 156.19 74.5672C154.087 74.5046 151.987 74.7813 149.972 75.3866C146.517 75.9688 143.062 76.7235 139.608 77.3919C137.878 77.6829 136.329 78.6339 135.289 80.0441C133.978 82.0081 132.342 83.736 130.452 85.1543C128.639 86.3834 126.847 87.6556 125.076 88.9493C124.841 89.1932 124.684 89.5007 124.623 89.8334C124.126 91.3643 123.673 92.9168 123.197 94.4477C123.197 94.4477 123.003 94.5555 122.852 94.6418L122.636 93.8871C122.401 94.2415 122.133 94.5735 121.837 94.8789C120.063 96.5544 118.932 98.7972 118.642 101.218C118.502 101.704 118.519 102.221 118.689 102.697C118.86 103.173 119.175 103.583 119.592 103.87C121.087 103.127 122.316 101.942 123.112 100.476C123.908 99.0093 124.232 97.3335 124.04 95.6768C123.989 95.5469 123.967 95.408 123.974 95.2691C123.981 95.1301 124.018 94.9942 124.081 94.8701C124.144 94.7461 124.232 94.6367 124.341 94.549C124.449 94.4614 124.574 94.3975 124.709 94.3615C127.041 93.2186 129.416 92.2052 131.64 90.8037C136.016 88.0183 140.616 85.6021 145.394 83.5803C145.714 83.4144 146.017 83.2195 146.301 82.9981L146.172 82.7394C143.181 82.9595 140.251 83.6964 137.513 84.9172ZM165.302 107.256V106.911C165.034 106.792 164.751 106.712 164.46 106.674C162.301 106.674 159.926 106.479 157.68 106.674C153.676 107.114 149.628 106.473 145.956 104.819L143.797 103.676C143.801 103.776 143.826 103.873 143.871 103.963C143.916 104.052 143.979 104.131 144.056 104.194C144.487 104.539 144.919 104.905 145.373 105.207C148.846 107.328 152.915 108.267 156.968 107.881L162.841 107.601C163.683 107.493 164.482 107.364 165.302 107.256ZM160.336 120.948L160.509 120.624C160.012 120.15 159.559 119.611 159.019 119.18C156.68 117.516 154.993 115.092 154.247 112.323C154.118 111.827 153.988 111.309 153.837 110.619C153.686 110.878 153.621 110.943 153.621 111.029C153.6 111.208 153.6 111.389 153.621 111.568C153.707 113.91 154.616 116.147 156.19 117.886C156.85 118.369 157.352 119.037 157.632 119.804C157.912 120.571 157.959 121.404 157.767 122.198C157.771 122.491 157.878 122.774 158.069 122.996C158.506 122.92 158.924 122.758 159.3 122.522C159.3 122.522 159.3 121.94 159.105 121.659C158.911 121.379 158.587 120.84 158.328 120.409L158.479 120.301L160.336 120.948ZM108.515 118.792L108.644 119.158C109.681 118.748 110.804 118.403 111.732 117.908C112.66 117.412 113.459 117.088 114.086 118.274C114.086 118.274 114.28 118.274 114.647 118.533C114.544 118.148 114.406 117.773 114.237 117.412C113.73 116.641 113.384 115.775 113.221 114.867C113.057 113.959 113.08 113.028 113.287 112.129C113.731 108.767 114.609 105.476 115.899 102.34C115.909 102.203 115.909 102.066 115.899 101.93C115.832 101.945 115.768 101.973 115.712 102.014C115.657 102.055 115.61 102.107 115.575 102.167C114.119 104.79 113.174 107.666 112.79 110.641C112.47 112.23 112.397 113.859 112.574 115.471C112.574 116.463 112.574 116.916 111.602 117.282C110.631 117.649 109.508 118.317 108.45 118.835L108.515 118.792ZM139.759 113.207C139.6 113.288 139.448 113.381 139.305 113.487C137.42 115.147 135.285 116.5 132.979 117.498C130.775 118.728 128.292 119.373 125.767 119.374C123.209 119.204 120.699 118.606 118.339 117.606C118.339 118.231 118.728 118.447 119.225 118.554C120.605 118.958 122.012 119.268 123.435 119.482C125.091 119.697 126.767 119.697 128.423 119.482C131.045 118.959 133.544 117.941 135.786 116.484C137.294 115.681 138.624 114.581 139.694 113.25L139.759 113.207ZM87.0952 123.988V124.182C87.4878 124.041 87.8585 123.845 88.1964 123.6C90.9772 121.232 93.0224 118.12 94.0911 114.63C94.1843 114.089 94.2348 113.541 94.2423 112.991H93.9184C93.6056 115.205 92.6949 117.292 91.2841 119.029C89.9238 120.624 88.4555 122.328 87.0952 123.988ZM61.8107 111.676L61.9834 111.805L63.6028 108.765C63.7486 108.511 63.9387 108.284 64.1642 108.097C65.0279 108.657 65.87 109.283 66.7121 109.886C66.3019 110.555 66.0428 111.568 65.4598 111.784C64.337 112.215 64.4449 113.142 64.1858 113.94C64.1858 114.113 64.337 114.35 64.4017 114.544C64.92 113.703 65.3518 112.948 65.8268 112.237C66.3019 111.525 66.8849 110.792 67.3599 110.08C67.6406 109.649 67.3599 109.347 66.9496 109.11C66.2489 108.753 65.5899 108.319 64.9847 107.816C64.4233 107.364 64.0779 107.428 63.754 108.032L61.8107 111.676ZM168.952 117.368H169.34C169.88 115.48 169.758 113.464 168.995 111.654C168.833 111.241 168.586 110.866 168.27 110.554C167.953 110.242 167.575 110 167.159 109.843C167.688 110.665 168.129 111.539 168.476 112.452C168.679 113.65 168.795 114.86 168.822 116.075L168.952 117.368ZM117.476 111.999H117.864L119.03 105.531H118.793C118.166 107.645 117.726 109.809 117.476 111.999V111.999ZM114.107 120.301H113.848C113.382 122.236 113.15 124.219 113.157 126.209H113.524L114.107 120.301ZM155.413 124.376C156.773 124.01 157.141 122.867 156.514 121.314L155.413 124.376ZM102.663 116.484L101.821 113.034C101.708 113.636 101.725 114.255 101.87 114.85C102.015 115.445 102.286 116.002 102.663 116.484V116.484Z" fill="black"/>
<path d="M25.0618 142.947H19.0044C18.5099 142.947 18.2318 142.817 18.2318 142.215C18.17 138.134 18.0927 134.048 18 129.957C18 129.371 18.1545 129.143 18.7417 129.143L31.1037 128.947C32.0154 128.947 32 128.947 32 129.908V141.889C32 142.882 32 142.899 31.0419 142.899H25.0618V142.947Z" fill="black"/>
<path d="M67 135.144V129.295C67 128.24 67 128.208 68.099 128.176L77.1138 128C77.9261 128 78.7065 128 79.5506 128C80.3948 128 80.4266 128.256 80.4425 128.863C80.6337 132.89 80.8089 136.854 81 140.961C81 141.584 80.7611 141.984 80.124 142C78.8817 142 77.6394 142 76.413 142L67.6689 141.872C67.2548 141.872 67.1593 141.696 67.1752 141.345V135.144H67Z" fill="black"/>
<path d="M42.7797 135.467C42.7797 133.35 42.7797 131.232 42.7797 129.051C42.7797 128.489 43.0923 128.473 43.4872 128.473H51.4002C52.8479 128.473 54.2956 128.473 55.7433 128.473C56.3356 128.473 56.6152 128.585 56.6152 129.259C56.6152 133.398 56.6152 137.536 56.6152 141.675C56.6152 142.156 56.4343 142.413 55.9572 142.461C55.6778 142.477 55.3976 142.477 55.1182 142.461H43.4542C42.8291 142.461 42.6152 142.285 42.6152 141.643C42.6152 139.526 42.6152 137.424 42.6152 135.307L42.7797 135.467ZM56.1052 136.446H56.3191C56.2369 134.216 56.1546 131.986 56.0888 129.772C56.0888 129.179 55.842 128.986 55.2498 128.986C51.5208 128.986 47.7919 128.954 44.0629 128.89C43.4542 128.89 43.2897 129.115 43.2897 129.66C43.2897 131.024 43.1746 132.387 43.1581 133.751C43.1581 136.365 43.1581 138.98 43.1581 141.595C43.1581 141.771 43.3555 142.06 43.4872 142.076C44.159 142.148 44.8348 142.18 45.5107 142.172C48.8009 142.172 52.0911 141.964 55.3814 141.916C56.0065 141.916 56.204 141.739 56.1875 141.162C56.0888 139.526 56.1052 137.954 56.1052 136.381V136.446Z" fill="black"/>
<path d="M121.448 77.4998C124.175 75.9777 126.575 73.9334 128.509 71.4839C128.531 73.1873 124.299 76.896 121.448 77.4998Z" fill="black"/>
<path d="M128.552 60.6379C128.552 61.5651 128.552 62.557 128.552 63.5273C128.551 63.6107 128.53 63.6927 128.493 63.7673C128.456 63.8419 128.402 63.9072 128.336 63.9585C128.253 63.9671 128.168 63.956 128.089 63.926C128.01 63.8961 127.94 63.8481 127.883 63.786C127.696 63.2503 127.659 62.6736 127.777 62.1186C127.895 61.5636 128.163 61.0515 128.552 60.6379V60.6379Z" fill="black"/>
</g>
<defs>
<clipPath id="clip0_209_61">
<rect width="163" height="114" fill="white" transform="translate(18 43)"/>
</clipPath>
</defs>
</svg>
