<svg width="200" height="200" viewBox="0 0 200 200" fill="none" xmlns="http://www.w3.org/2000/svg">
<g clip-path="url(#clip0_209_63)">
<path d="M156.653 81.0471L159.548 78.7244C158.823 79.7599 157.819 80.5658 156.653 81.0471V81.0471Z" fill="white"/>
<path d="M157.184 82.2858L160.217 80.8062L160.302 80.9782L157.27 82.4579L157.184 82.2858Z" fill="white"/>
<path d="M60.8407 105.462C59.8984 105.961 58.956 106.46 58.0137 106.924C53.9409 108.919 49.4323 109.848 44.9063 109.626C41.9935 109.36 39.0633 109.889 36.4251 111.157C34.7117 112.034 33.1868 113.015 31.6105 113.996C31.2242 114.286 30.8683 114.614 30.5482 114.976C30.4074 115.106 30.2586 115.227 30.1027 115.338H29.9314C29.9376 115.139 29.9723 114.942 30.0342 114.753C31.2233 111.793 32.6981 108.958 34.4376 106.288C36.1052 103.886 38.5136 102.102 41.2911 101.212C43.8448 100.497 46.2244 99.2608 48.2817 97.5816C49.3728 96.6611 50.3713 95.6353 51.263 94.5191C52.5879 92.7667 54.2937 91.3412 56.2505 90.3512C58.2072 89.3613 60.3632 88.8331 62.5541 88.8068C65.1756 88.5832 67.7971 88.239 70.4185 87.8777C72.5813 87.6388 74.5903 86.6393 76.0898 85.056C76.9041 84.2585 77.7807 83.5278 78.7113 82.8709C79.6104 82.1937 80.7057 81.8311 81.8296 81.8386C82.001 81.8386 82.3265 81.8386 82.3265 81.7009C82.339 81.4912 82.2914 81.2822 82.1894 81.0988C81.6926 80.0664 81.0929 79.0513 80.6645 77.9673C80.1762 76.783 80.1762 75.4525 80.6645 74.2682C80.7121 74.1579 80.7466 74.0424 80.7673 73.924C81.0744 71.957 82.0129 70.1445 83.4402 68.7624C83.8872 68.1001 84.2825 67.4041 84.6224 66.6805C84.7785 66.44 84.9502 66.2101 85.1364 65.9923C85.2906 66.1816 85.4277 66.388 85.5819 66.5945L85.8047 66.8698L86.5414 65.9407C86.7984 65.5794 87.0212 65.2008 87.2953 64.8739C87.5694 64.547 88.1349 64.461 88.3576 65.0976C88.7174 66.1472 88.7174 66.1299 89.7283 65.6482C90.4308 65.3213 91.1504 65.0116 91.87 64.7191C92.1397 64.6526 92.4151 64.6123 92.6924 64.5987L92.7952 65.4761V65.7686C93.0234 65.7528 93.2524 65.7528 93.4806 65.7686C94.2687 65.7686 95.074 65.6654 95.8622 65.7686C96.3227 65.8047 96.7689 65.9458 97.1668 66.1814C97.5647 66.417 97.9038 66.7407 98.1581 67.1279C99.2059 68.6502 100.036 70.3124 100.625 72.0659C101.037 73.0466 101.448 74.0445 101.876 75.0252C102.15 75.6446 102.476 75.6446 102.973 75.1628C103.744 74.4058 104.549 73.6832 105.371 72.995C106.194 72.3067 106.931 71.8422 107.685 71.2744C108.165 70.9213 108.546 70.4483 108.79 69.9022C109.033 69.3561 109.131 68.7556 109.072 68.1602C108.965 67.4459 109.019 66.7165 109.229 66.0257C109.44 65.335 109.802 64.7003 110.289 64.1685C110.708 63.7037 111.231 63.3442 111.814 63.119C113.436 62.6547 114.851 61.6467 115.823 60.2629C117.851 57.3076 120.816 55.1301 124.236 54.0861C124.611 54.0421 124.991 54.0421 125.367 54.0861C125.167 54.3905 124.944 54.6782 124.698 54.9464C122.632 56.7321 121.004 58.9736 119.943 61.4957C118.882 64.0178 118.416 66.7521 118.582 69.485C118.917 71.786 118.759 74.1324 118.119 76.3672C117.913 76.9178 118.119 77.0899 118.719 76.935C120.426 76.4765 122.237 76.6098 123.859 77.3135C124.72 77.7369 125.669 77.9498 126.628 77.9349C127.586 77.9199 128.528 77.6775 129.376 77.2275C130.487 76.6589 131.729 76.3976 132.974 76.4705C133.654 76.5016 134.333 76.3751 134.957 76.1006C135.581 75.8261 136.134 75.411 136.572 74.8876C138.775 72.4037 141.839 70.8589 145.139 70.569C147.65 70.4173 150.168 70.6847 152.592 71.3604C157.171 72.4678 161.891 72.8682 166.59 72.5476C166.869 72.5582 167.145 72.4955 167.391 72.3657C167.638 72.2359 167.846 72.0436 167.995 71.8078C168.904 70.3281 169.709 68.814 170.788 67.3687C171.234 66.7544 171.822 66.2584 172.502 65.9235C173.478 65.3901 174.215 65.7686 174.472 66.8354C174.546 67.0464 174.632 67.2531 174.729 67.4548C175.02 67.1795 175.26 66.9902 175.466 66.7666C175.98 66.2504 176.442 65.6826 176.991 65.2008C177.162 65.014 177.382 64.8789 177.625 64.811C177.869 64.7432 178.126 64.7452 178.369 64.8168C178.612 64.8884 178.829 65.0268 178.998 65.2164C179.166 65.4059 179.278 65.6389 179.321 65.8891C179.592 66.9381 179.477 68.0503 178.995 69.0205C178.721 69.7087 178.361 70.3625 178.002 71.154C178.178 71.1704 178.356 71.1704 178.533 71.154C178.875 71.0163 179.201 70.8271 179.544 70.7238C180.503 70.4141 181.154 70.8271 181.017 71.825C180.855 72.6748 180.56 73.4936 180.143 74.251C179.938 74.6983 179.715 74.9392 180.143 75.4209C180.387 75.7459 180.518 76.1414 180.518 76.5479C180.518 76.9544 180.387 77.3499 180.143 77.6749C179.584 78.7054 178.755 79.5623 177.745 80.1524C175.864 81.3113 173.819 82.1758 171.679 82.7161C169.967 83.1292 168.297 83.7054 166.693 84.4366C165.762 84.7982 164.921 85.3597 164.228 86.0819C163.536 86.8041 163.009 87.6695 162.684 88.6176C162.444 89.495 162.273 90.3381 162.033 91.3016C161.64 92.6677 160.786 93.8538 159.617 94.6567C159.335 94.8515 159.022 94.9969 158.692 95.0868C158.362 95.2097 158.003 95.2277 157.663 95.1385C157.322 95.0492 157.018 94.857 156.79 94.5879C156.565 94.3298 156.422 94.0101 156.379 93.6698C156.336 93.3295 156.396 92.9841 156.55 92.6781C157.013 91.6113 157.561 90.579 157.955 89.495C158.223 88.7613 158.407 87.9994 158.503 87.2239C158.64 86.3292 158.4 86.0884 157.544 86.4153C156.381 86.8044 155.266 87.3239 154.22 87.9638C152.321 89.2801 150.156 90.1612 147.88 90.5446C147.064 90.6641 146.237 90.6987 145.413 90.6478C143.472 90.5691 141.539 90.9339 139.759 91.7146C137.514 92.6092 135.218 93.4351 132.905 94.1922C130.092 95.0788 127.093 95.1976 124.219 94.5363C122.385 94.1749 122.334 94.1922 122.145 96.0503C121.245 102.682 118.694 108.979 114.726 114.357C113.767 115.751 112.842 117.196 111.882 118.59C109.723 121.713 106.763 124.192 103.315 125.764C99.0638 127.598 94.6608 129.054 90.1566 130.117C85.8157 131.058 81.3012 130.79 77.1007 129.343C74.9247 128.724 72.7659 127.967 70.6241 127.227C70.2381 127.068 69.8208 127.001 69.4047 127.031C68.9886 127.06 68.585 127.186 68.2254 127.399C67.0328 127.985 65.7951 128.474 64.5245 128.861C64.243 128.922 63.9557 128.951 63.6678 128.947C63.6987 128.762 63.7565 128.582 63.8392 128.414C64.8094 126.822 65.2308 124.954 65.0385 123.097C65.0385 122.426 65.1927 122.203 65.8781 122.186C67.4334 122.082 68.9422 121.61 70.2815 120.809C70.5609 120.649 70.8606 120.527 71.1724 120.448C70.7391 122.309 70.0712 124.107 69.1849 125.799L69.3905 125.919C69.562 125.76 69.7066 125.574 69.8188 125.369C70.3447 124.246 70.8136 123.098 71.2238 121.927C71.6064 120.738 72.1856 119.621 72.9372 118.624C75.3619 115.711 76.7861 112.091 76.9979 108.301C77.0747 107.261 76.8961 106.219 76.4779 105.265C76.0596 104.311 75.4145 103.474 74.5992 102.829C73.9742 102.344 73.2544 101.997 72.4868 101.811C71.7192 101.624 70.9211 101.602 70.1444 101.745C70.0452 101.761 69.9501 101.797 69.8648 101.85C69.7795 101.903 69.7056 101.973 69.6475 102.055H70.5042C71.264 102.017 72.0234 102.136 72.7356 102.405C73.4479 102.673 74.0977 103.085 74.6452 103.616C75.1927 104.146 75.6261 104.784 75.9188 105.489C76.2114 106.194 76.3571 106.952 76.3468 107.716C76.3678 109.054 76.1887 110.388 75.8157 111.673C75.2206 113.903 74.2089 115.999 72.8344 117.85C71.9994 118.9 70.9622 119.77 69.7846 120.409C68.6071 121.048 67.3134 121.441 65.9809 121.566C65.2955 121.566 65.227 121.222 65.3127 120.689C65.5797 118.366 66.1979 116.097 67.146 113.961C67.2368 113.771 67.3003 113.568 67.3344 113.359C65.9219 115.408 65.0226 117.769 64.713 120.241C62.6398 116.645 60.1554 113.892 55.9919 113.617C54.1752 113.451 52.3577 113.926 50.8517 114.959C51.8626 114.701 52.6679 114.477 53.5075 114.323C54.6799 114.073 55.8924 114.083 57.0609 114.35C58.2294 114.617 59.3262 115.136 60.2753 115.871C61.6835 116.798 62.8238 118.082 63.5817 119.592C64.3396 121.102 64.6884 122.786 64.593 124.474C64.4694 125.556 64.1804 126.612 63.7364 127.605C63.6139 127.835 63.545 128.089 63.5347 128.349C63.5244 128.61 63.5731 128.869 63.677 129.107C63.7809 129.346 63.9374 129.558 64.1347 129.727C64.3319 129.896 64.5648 130.017 64.8158 130.083C65.5084 130.303 66.231 130.413 66.9575 130.41C68.6709 130.41 70.1958 130.221 71.8064 130.117C72.2518 130.117 72.6802 130.014 73.1085 130.014C73.5067 129.991 73.9034 130.079 74.2554 130.267C74.6073 130.455 74.9011 130.737 75.1044 131.081C75.3077 131.426 75.4129 131.82 75.4084 132.22C75.4039 132.621 75.2899 133.012 75.0789 133.352C74.8619 133.806 74.5534 134.211 74.173 134.539C73.7926 134.868 73.3485 135.114 72.8687 135.262C70.1156 136.105 67.1748 136.105 64.4217 135.262C64.1882 135.197 63.9592 135.116 63.7364 135.021C63.1064 134.706 62.3993 134.581 61.7002 134.66C61.001 134.739 60.3396 135.02 59.7956 135.468C58.9818 135.934 58.0742 136.21 57.1398 136.277C56.2961 136.319 55.4945 136.66 54.8782 137.24C53.5246 138.668 52.171 140.079 50.7489 141.439C49.5587 142.79 48.0758 143.849 46.4141 144.536C45.7775 144.757 45.1153 144.896 44.4437 144.948C44.2487 144.974 44.0505 144.954 43.8644 144.89C43.6783 144.826 43.5093 144.721 43.3702 144.581C43.2312 144.442 43.1259 144.272 43.0625 144.085C42.9991 143.898 42.9793 143.699 43.0045 143.503C42.989 143.111 43.0663 142.721 43.2302 142.366C43.394 142.01 43.6396 141.698 43.9468 141.456L45.6259 140.028L46.3113 139.443V139.271L45.4203 139.408C43.0027 139.968 40.4635 139.573 38.3269 138.307C38.0618 138.146 37.8197 137.949 37.6073 137.722C37.3735 137.485 37.2133 137.185 37.1464 136.858C37.0795 136.531 37.1087 136.192 37.2304 135.881C37.3472 135.583 37.5533 135.328 37.8203 135.153C38.0873 134.977 38.402 134.889 38.721 134.9C39.5777 134.9 40.4344 134.9 41.3254 134.9C41.8565 134.9 42.3877 134.78 42.9188 134.728V134.522C42.5513 134.433 42.1905 134.318 41.8394 134.178C40.6346 133.665 39.4566 133.09 38.3098 132.457C37.9633 132.249 37.6739 131.958 37.4675 131.609C37.2611 131.261 37.1443 130.866 37.1276 130.461C37.0771 130.126 37.1182 129.783 37.2466 129.469C37.3751 129.155 37.5859 128.882 37.8568 128.679C38.1276 128.475 38.4482 128.35 38.7845 128.315C39.1208 128.281 39.4601 128.339 39.7662 128.483C40.5372 128.741 41.274 129.171 42.0621 129.36C43.0045 129.572 43.9607 129.716 44.9235 129.79C45.0777 129.79 45.2661 129.653 45.4203 129.584C45.3577 129.415 45.2773 129.254 45.1805 129.102L44.1182 127.984C43.8229 127.674 43.6175 127.289 43.5239 126.871C43.4303 126.452 43.4521 126.016 43.587 125.609C43.6289 125.399 43.7133 125.2 43.8351 125.024C43.9568 124.847 44.1133 124.698 44.2949 124.585C44.4764 124.472 44.6791 124.398 44.8904 124.367C45.1016 124.336 45.317 124.349 45.5231 124.405C45.9475 124.505 46.3652 124.631 46.7739 124.784C47.5621 125.042 47.7163 124.973 47.682 124.164C47.6613 121.942 48.0565 119.736 48.8471 117.66C49.1712 116.916 49.5611 116.202 50.0122 115.527C50.0758 115.428 50.133 115.324 50.1835 115.217C50.5246 114.511 50.9629 113.857 51.4857 113.273C53.4581 111.39 55.6986 109.813 58.1336 108.593C59.3665 107.899 60.3769 106.867 61.0463 105.617L60.8407 105.462ZM31.4392 113.118L31.6105 113.29L33.1183 112.396C35.1431 110.96 37.432 109.942 39.8519 109.402C41.5528 109.141 43.2714 109.014 44.992 109.023C48.0961 109.102 51.1922 108.672 54.1586 107.75C57.6367 106.464 60.9681 104.809 64.0962 102.812C65.9614 101.636 67.9422 100.656 70.0073 99.8872C73.8915 98.5173 78.0892 98.314 82.0866 99.3022C83.7143 99.7151 85.3763 99.87 87.0383 100.145C87.6206 100.213 88.1946 100.34 88.7517 100.524C91.9111 101.656 95.1967 102.395 98.5351 102.726C99.5379 102.886 100.552 102.961 101.568 102.95C102.562 102.95 102.561 102.847 102.51 101.866C102.475 101.701 102.475 101.531 102.51 101.367C102.767 100.661 102.407 100.472 101.825 100.489C99.5218 100.325 97.285 99.6425 95.2796 98.4935C93.7719 97.8397 92.2984 97.0999 90.8249 96.3773C88.4614 95.3153 86.2255 93.9877 84.1598 92.42C83.796 92.2136 83.4771 91.9358 83.2223 91.6033C82.9674 91.2707 82.7818 90.8901 82.6763 90.484C82.5708 90.0779 82.5477 89.6547 82.6082 89.2395C82.6688 88.8243 82.8119 88.4256 83.029 88.067C83.3386 87.5669 83.4925 86.9854 83.4712 86.3969C83.4498 85.8084 83.2541 85.2397 82.9091 84.7635C82.6952 84.4933 82.5861 84.1545 82.6019 83.8097C82.6176 83.4649 82.7572 83.1376 82.9947 82.8881C83.3545 82.4752 82.9947 82.1483 82.6178 82.0279C82.3586 81.9663 82.0888 81.9663 81.8296 82.0279C79.8176 82.55 78.0196 83.6935 76.6895 85.2969C75.5324 86.6284 74.0047 87.5812 72.3032 88.0326C71.3095 88.239 70.3157 88.4971 69.322 88.6176C66.3407 88.9789 63.3423 89.237 60.3781 89.6499C58.8663 89.8131 57.4033 90.2832 56.0779 91.0314C54.7526 91.7797 53.5924 92.7907 52.6679 94.0029C52.4109 94.3298 52.1196 94.6223 51.8626 94.9492C49.4751 97.9567 46.2473 100.179 42.5933 101.332C39.4271 102.113 36.6724 104.067 34.8831 106.804C33.7865 108.524 32.827 110.486 31.8161 112.344C31.6682 112.59 31.542 112.85 31.4392 113.118V113.118ZM97.507 95.2933V94.9664C98.0069 95.0047 98.5092 94.9372 98.9814 94.7683C99.4537 94.5994 99.8853 94.3327 100.248 93.9857C100.366 93.8935 100.5 93.8235 100.643 93.7792C101.08 93.6211 101.469 93.3503 101.769 92.994C102.07 92.6377 102.272 92.2084 102.356 91.749C102.784 90.3897 103.264 89.0821 103.761 87.7573C104.109 86.9456 104.151 86.0346 103.881 85.1937C103.538 84.1441 103.264 83.043 102.921 81.9934C102.801 81.5805 102.921 81.4084 103.281 81.2192C103.641 81.0299 104.035 80.6514 104.001 80.4105C103.778 79.0857 103.452 77.7781 103.127 76.4533C103.127 76.3328 102.836 76.2812 102.681 76.1952C102.527 76.1091 102.476 76.5221 102.476 76.6941C102.476 76.8662 102.476 77.4168 102.476 77.7781C102.476 78.1394 102.339 78.2082 102.236 78.2254C102.133 78.2426 101.962 78.0878 101.79 78.0878C101.097 77.2509 100.335 76.474 99.5117 75.765C99.1328 75.4845 98.8209 75.1228 98.5987 74.7062C98.3764 74.2895 98.2493 73.8284 98.2267 73.3563C98.1961 73.0436 98.0911 72.7429 97.9207 72.4795C97.7503 72.2161 97.5194 71.9976 97.2473 71.8425C96.9753 71.6873 96.6701 71.6001 96.3575 71.5881C96.0449 71.576 95.734 71.6396 95.451 71.7734C95.0452 71.9821 94.6797 72.2617 94.3716 72.5992C92.7633 74.1357 90.7237 75.1388 88.5289 75.4725C87.8589 75.5711 87.2031 75.7501 86.5757 76.0059C86.3118 76.0882 86.0676 76.2245 85.8587 76.406C85.6497 76.5876 85.4803 76.8106 85.3613 77.0611C85.2422 77.3115 85.176 77.5839 85.1668 77.8613C85.1576 78.1387 85.2056 78.4149 85.3078 78.6728C85.5305 79.447 85.9075 80.2041 86.1645 80.9783C86.3305 81.3503 86.3841 81.7631 86.3187 82.1655C85.9677 83.1323 85.9677 84.1925 86.3187 85.1593C86.3187 85.3657 86.3187 85.641 86.3187 85.8819C86.0917 85.8515 85.8748 85.7691 85.6847 85.641C85.0508 85.0904 84.4682 84.471 83.8171 83.9205C83.6458 83.7656 83.3545 83.7656 83.1147 83.6796C83.1147 83.9377 82.9947 84.2302 83.1147 84.4022C83.6287 85.3141 84.177 86.2088 84.828 87.0691C85.0048 87.3471 85.2808 87.5466 85.5995 87.6265C85.9181 87.7065 86.2552 87.661 86.5414 87.4992C87.0554 87.2927 87.3124 87.4992 87.5694 87.8777C88.2719 88.9445 88.9915 89.994 89.7283 91.0607C89.8559 91.266 90.0253 91.4419 90.2252 91.5769C91.2189 92.1275 92.2127 92.6781 93.2236 93.1942C94.2345 93.7104 95.708 94.433 96.9588 95.0524L96.8388 95.2933C94.7073 94.5016 92.6296 93.5705 90.6193 92.506C91.6815 95.6374 97.3186 97.0999 100.917 95.2933C103.555 93.9341 105.474 89.5639 104.532 87.3272C104.393 87.5667 104.267 87.8137 104.155 88.067C103.668 89.2305 103.262 90.4262 102.938 91.6457C102.442 94.0029 100.454 94.5535 98.6893 95.3965C98.2923 95.4406 97.8905 95.4056 97.507 95.2933ZM123.242 55.3593L123.088 55.1184C122.454 55.3937 121.803 55.6518 121.203 55.9615C119.391 56.9551 117.822 58.3423 116.611 60.022C115.608 61.5919 114.094 62.7651 112.328 63.3427C111.733 63.4851 111.189 63.7904 110.756 64.2248C110.324 64.6592 110.019 65.2055 109.878 65.803C109.708 66.6581 109.633 67.5295 109.655 68.4011C109.671 68.9014 109.578 69.3993 109.383 69.8599C109.187 70.3205 108.894 70.7328 108.524 71.0679C107.616 71.825 106.639 72.5132 105.68 73.2014C104.72 73.8896 104.223 74.1649 103.538 74.6811C103.23 74.9048 102.921 75.2661 103.247 75.679C104.043 76.9164 104.509 78.3382 104.6 79.8083C104.644 80.2108 104.591 80.6179 104.446 80.9955C104.292 81.4084 104.446 81.5805 104.772 81.6837C105.641 81.9414 106.381 82.519 106.845 83.3011C107.365 84.0428 107.73 84.8824 107.918 85.7694C108.107 86.6564 108.115 87.5726 107.942 88.4627C107.708 90.8618 107.131 93.2145 106.228 95.4482C106.086 95.7866 105.977 96.1381 105.903 96.4977C105.766 96.9794 105.903 97.1859 106.451 97.0827C106.847 96.9766 107.257 96.9302 107.667 96.945C107.904 96.982 108.146 96.9376 108.355 96.8189C108.563 96.7002 108.725 96.5142 108.815 96.2912C109.484 95.0008 110.289 93.762 110.854 92.4372C111.749 90.7366 112.401 88.9179 112.79 87.0347C112.846 86.7519 112.944 86.4792 113.082 86.226C114.506 83.5898 115.776 80.8724 116.885 78.0878C117.849 75.5684 118.23 72.8621 117.999 70.1732C117.751 67.5852 118.05 64.9737 118.877 62.5098C119.704 60.0458 121.039 57.785 122.796 55.8755L123.242 55.3593ZM107.342 97.6333C107.205 97.6333 106.896 97.7193 106.605 97.8053C105.762 98.0438 104.994 98.4946 104.373 99.1149C103.753 99.7352 103.3 100.504 103.058 101.35C102.943 102.034 103.097 102.738 103.487 103.311C103.658 103.586 104.412 103.638 104.875 103.552C105.943 103.297 106.902 102.705 107.611 101.863C108.321 101.021 108.743 99.9726 108.815 98.8721C108.815 98.0118 108.37 97.6161 107.342 97.6333ZM151.65 88.7724C149.925 88.366 148.334 87.5188 147.031 86.313C145.728 85.1071 144.758 83.5836 144.214 81.8902C143.641 80.2027 143.465 78.405 143.7 76.6378C143.935 74.8706 144.574 73.1821 145.567 71.7045C144.037 73.3697 143.108 75.5024 142.929 77.7609C142.908 79.908 143.408 82.0279 144.385 83.9377C144.728 84.7119 144.642 84.8668 143.803 84.7463C142.646 84.6122 141.501 84.3937 140.376 84.0925C139.005 83.6624 137.703 83.0602 136.332 82.5096C136.374 82.5757 136.419 82.639 136.469 82.6989L137.069 83.1118C139.313 84.4842 141.863 85.2709 144.488 85.4001C144.957 85.4568 145.401 85.6413 145.773 85.9335C146.441 86.4841 147.024 87.1551 147.692 87.6541C148.828 88.5048 150.238 88.9032 151.65 88.7724V88.7724ZM101.619 120.551V120.31L100.351 120.637C98.7775 121.11 97.167 121.45 95.5366 121.652C92.658 121.804 89.7871 121.232 87.1841 119.988C84.5812 118.745 82.3285 116.868 80.6303 114.529L78.9169 112.258L78.7627 112.413C79.9 114.644 81.4813 116.617 83.4088 118.209C85.3363 119.801 87.5689 120.979 89.9682 121.669C93.8473 122.849 98.0327 122.447 101.619 120.551ZM116.474 89.1165C120.569 87.5852 123.054 84.1613 125.726 80.9783C124.201 82.3548 122.865 83.9033 121.34 85.2797C119.815 86.6561 118.102 87.8433 116.474 89.1165ZM106.194 107.612C106.16 108.071 106.16 108.531 106.194 108.989C106.51 111.651 106.253 114.35 105.44 116.903C105.393 117.153 105.375 117.407 105.389 117.66H105.611C107.002 114.492 107.221 110.929 106.228 107.612H106.194ZM47.8019 134.35C48.1241 134.405 48.4542 134.391 48.7704 134.308C49.0866 134.225 49.3814 134.075 49.6352 133.868C50.6233 133.027 51.718 132.321 52.8907 131.769C53.3441 131.585 53.7531 131.305 54.09 130.949C54.4269 130.593 54.684 130.169 54.8439 129.704C54.7787 129.741 54.7157 129.781 54.6554 129.825C53.7537 130.829 52.5508 131.512 51.2287 131.769C51.0745 131.769 50.9203 132.027 50.7832 132.182C50.5993 132.477 50.3807 132.748 50.1321 132.991C49.3268 133.507 48.5216 133.92 47.8019 134.35ZM140.547 87.1895C139.967 87.9264 139.344 88.6273 138.68 89.2886C137.446 90.3897 136.109 91.4049 134.824 92.4544C134.652 92.6077 134.491 92.7745 134.345 92.9534C137.04 91.8514 139.244 89.8028 140.547 87.1895ZM61.7317 134.092C59.59 132.75 55.9062 132.578 54.8782 133.989C57.0713 132.939 59.3501 133.713 61.646 134.092H61.7317ZM172.913 70.9131L168.578 77.7953C170.668 75.9816 172.177 73.5868 172.913 70.9131V70.9131ZM167.396 79.4126L167.19 79.2922C165.837 81.4084 163.849 83.1118 163.198 85.6926L167.396 79.4126ZM79.7736 119.14C80.5275 120.241 83.2003 121.48 84.0741 121.084L79.7736 119.14ZM113.527 113.979L109.278 116.577C110.971 116.271 112.488 115.338 113.527 113.961V113.979ZM171.097 77.3996C172.499 76.8271 173.715 75.8739 174.609 74.6467L171.097 77.3996ZM171.731 78.8964V79.1201L175.414 77.3996L175.312 77.1759L171.731 78.8964ZM48.3673 138.152C48.8185 137.956 49.2126 137.648 49.5124 137.257C49.8121 136.865 50.0077 136.404 50.0807 135.916L48.3673 138.152ZM79.4823 122.547L79.6879 122.375L78.2144 120.413L78.0431 120.534L79.4823 122.547Z" fill="black"/>
<path d="M88.2548 97.1342C87.5475 97.1859 86.8375 97.1859 86.1302 97.1342C83.2175 96.7385 80.2705 96.446 77.3749 95.8438C72.2709 94.7562 66.9582 95.2543 62.1429 97.2719C59.1862 98.3393 56.3631 99.7481 53.7302 101.47C53.7302 101.47 53.5932 101.47 53.439 101.47C53.696 101.264 53.9187 101.023 54.1929 100.833C57.1333 98.9068 60.3056 97.3631 63.6336 96.2395C66.513 95.0686 69.6115 94.5403 72.7145 94.691C74.8048 94.8631 76.878 95.2588 78.9683 95.5685L86.7299 96.6697L88.2891 96.9622L88.2548 97.1342Z" fill="black"/>
<path d="M70.1101 91.3876C74.2167 91.602 78.1841 92.9538 81.5726 95.2932L81.4013 95.4653C79.568 94.6222 77.786 93.7447 75.9013 93.0049C74.0166 92.2651 72.0805 91.8521 70.1101 91.3876Z" fill="black"/>
<path d="M111.882 81.5288C112.105 80.5309 112.414 79.533 112.533 78.535C112.825 76.2467 112.962 73.924 113.287 71.6528C113.536 70.2101 113.897 68.7891 114.367 67.4031C114.024 69.9323 113.664 72.4443 113.356 74.9563C113.25 76.6857 113.055 78.4085 112.773 80.118C112.317 81.5618 111.744 82.9658 111.06 84.3161C111.06 84.4365 110.889 84.5226 110.649 84.5742C110.722 84.2519 110.82 83.9356 110.94 83.6279C111.119 83.3522 111.225 83.0346 111.246 82.706C111.267 82.3774 111.203 82.0489 111.06 81.7525C110.929 81.3893 110.876 81.0021 110.906 80.6169C110.887 79.2995 110.583 78.0019 110.015 76.8145C109.807 76.365 109.658 75.891 109.569 75.4036C110.933 77.1418 111.622 79.3188 111.505 81.5288H111.882Z" fill="black"/>
</g>
<defs>
<clipPath id="clip0_209_63">
<rect width="151" height="91" fill="white" transform="translate(30 54)"/>
</clipPath>
</defs>
</svg>
